<?xml version="1.0" standalone="no"?>
<!DOCTYPE svg PUBLIC "-//W3C//DTD SVG 20010904//EN"
 "http://www.w3.org/TR/2001/REC-SVG-20010904/DTD/svg10.dtd">
<svg version="1.0" xmlns="http://www.w3.org/2000/svg"
 width="1280.000000pt" height="720.000000pt" viewBox="0 0 1280.000000 720.000000"
 preserveAspectRatio="xMidYMid meet">
<metadata>
Created by potrace 1.16, written by Peter Selinger 2001-2019
</metadata>
<g transform="translate(0.000000,720.000000) scale(0.100000,-0.100000)"
fill="#000000" stroke="none">
<path d="M1068 7155 c15 -38 16 -57 9 -113 -21 -160 -24 -167 -98 -257 -69
-83 -71 -85 -115 -85 -24 0 -44 3 -44 8 0 20 -115 62 -171 62 -30 0 -39 4 -39
18 0 13 -2 14 -9 3 -13 -20 -33 -4 -22 18 9 15 3 19 -39 29 -34 8 -57 8 -72 1
l-23 -10 23 5 c19 4 21 2 11 -10 -6 -8 -9 -15 -5 -15 3 -1 11 -3 16 -4 6 -1
18 -3 28 -4 14 -1 15 -3 2 -11 -9 -5 -16 -6 -18 0 -2 5 -9 7 -17 4 -7 -3 -19
1 -26 9 -11 12 -16 11 -29 -4 -10 -12 -32 -20 -65 -22 -54 -4 -95 -21 -95 -39
0 -7 5 -6 15 2 8 7 15 9 15 6 0 -11 -54 -55 -67 -56 -6 0 -13 -4 -15 -8 -6
-15 -131 -103 -175 -123 l-43 -19 0 -1910 0 -1910 26 -11 c15 -5 24 -12 20
-16 -3 -3 -1 -12 5 -20 9 -9 8 -13 0 -13 -6 0 -2 -9 9 -20 11 -11 20 -29 20
-40 0 -27 -9 -25 -20 5 -5 14 -16 25 -25 25 -10 0 -15 10 -15 30 0 17 -4 30
-9 30 -5 0 -9 -161 -10 -367 -1 -328 1 -366 14 -349 8 11 15 15 15 9 0 -6 -7
-16 -15 -23 -13 -11 -15 -81 -15 -539 l1 -527 123 -3 c68 -1 136 -4 152 -7 16
-2 65 -4 108 -4 54 1 82 -3 87 -12 6 -10 9 -10 9 -1 0 9 18 11 68 7 50 -4 63
-3 52 5 -11 9 62 11 275 10 160 -1 295 -1 300 1 6 1 25 2 44 1 62 -2 23 -14
-71 -22 -51 -4 -104 -11 -118 -14 -57 -14 -157 -24 -192 -18 -25 4 -38 2 -38
-6 0 -13 52 -14 153 -2 38 4 70 4 73 0 2 -4 -4 -9 -13 -12 -10 -2 14 -2 52 0
59 2 65 1 38 -7 -66 -21 -25 -46 81 -49 38 -2 1 -19 -46 -23 -36 -2 -44 0 -36
9 8 10 -9 13 -83 14 -69 1 -85 3 -61 9 66 16 45 22 -53 15 -118 -7 -155 -13
-155 -25 0 -5 8 -10 18 -12 9 -2 -19 -13 -63 -23 -88 -20 -116 -35 -68 -35 17
0 40 -3 50 -6 15 -5 15 -4 3 5 -12 8 -12 11 3 17 9 3 24 3 33 0 8 -3 27 0 42
8 15 7 54 17 87 21 75 10 215 12 215 3 0 -7 -43 -17 -70 -16 -8 0 -41 -5 -73
-12 -31 -6 -62 -8 -69 -4 -6 4 -8 3 -4 -4 3 -6 1 -14 -6 -18 -8 -5 -6 -10 8
-14 11 -4 23 -2 29 6 10 13 39 17 265 34 126 9 160 8 95 -4 -25 -5 -35 -11
-31 -21 4 -10 -11 -15 -62 -20 -37 -4 -80 -11 -96 -16 -42 -13 -55 -10 -25 6
15 8 55 17 90 20 35 3 65 8 68 10 11 11 -92 4 -131 -9 -67 -22 -108 -29 -108
-18 0 6 8 13 18 15 9 3 -1 5 -23 5 -29 0 -35 -2 -20 -7 19 -8 19 -8 -4 -20
-12 -7 -25 -10 -28 -8 -2 3 -19 1 -36 -4 -25 -7 -34 -6 -44 7 -12 17 -49 12
-39 -5 3 -5 -4 -9 -17 -10 -12 0 -40 -3 -62 -5 -37 -5 -38 -5 -7 3 18 5 36 12
40 16 8 8 -87 -2 -138 -16 -19 -5 -48 -9 -65 -8 l-30 1 30 8 c38 9 124 26 195
38 48 8 44 9 -30 4 -47 -2 -93 -9 -102 -13 -9 -5 -35 -9 -58 -9 -29 0 -47 -6
-58 -19 -18 -20 -79 -40 -67 -21 7 11 -15 11 -60 0 l-30 -8 35 -2 35 -2 -40
-9 c-22 -4 -58 -8 -80 -7 l-40 0 45 14 45 13 -55 -4 c-120 -9 -170 -17 -165
-25 3 -5 -9 -11 -27 -15 -60 -12 -68 -16 -68 -35 0 -10 8 -21 18 -23 16 -4 16
-5 0 -6 -13 -1 -18 -10 -18 -35 l0 -34 50 4 c31 2 48 0 45 -6 -3 -6 -26 -10
-51 -10 -37 0 -44 -3 -44 -19 0 -18 3 -18 52 -6 150 37 175 24 38 -21 l-90
-29 0 -73 0 -72 33 14 c48 20 135 13 153 -12 12 -18 11 -20 -11 -24 -14 -3
-25 -1 -25 3 0 13 -27 11 -50 -3 -14 -9 -23 -10 -28 -3 -4 6 -22 11 -40 12
-25 2 -32 -2 -32 -17 0 -16 6 -18 38 -14 28 3 32 2 17 -5 -29 -14 0 -13 47 1
29 9 41 9 50 0 9 -9 7 -12 -8 -12 -11 0 -25 -5 -31 -11 -5 -5 -32 -13 -59 -17
-46 -7 -49 -9 -52 -40 -3 -34 5 -38 43 -22 19 8 19 9 1 9 -16 1 -16 3 -5 17 8
10 21 13 38 9 47 -12 44 -23 -11 -40 -53 -17 -83 -35 -60 -35 12 0 132 45 164
61 10 5 26 9 35 9 15 0 16 -2 3 -10 -11 -7 -7 -10 17 -10 18 0 36 6 40 13 4 7
36 21 71 32 34 10 67 24 73 32 6 7 22 13 35 13 12 0 26 4 29 10 4 6 -20 9 -63
8 -38 0 -74 2 -80 6 -17 10 -62 -4 -62 -20 0 -9 11 -14 31 -14 20 0 29 -4 27
-12 -5 -15 -40 -26 -89 -27 -20 -1 -53 -8 -73 -16 -40 -17 -64 -12 -47 9 6 7
8 15 5 19 -3 3 5 8 18 12 13 3 32 10 43 14 11 5 31 13 44 18 22 8 23 10 7 26
-16 16 -13 17 51 18 37 1 77 3 88 4 11 1 41 2 67 3 26 1 53 8 60 15 7 6 42 13
78 14 36 1 85 9 110 18 50 19 135 30 110 15 -8 -5 -24 -7 -35 -4 -16 4 -17 3
-5 -5 12 -9 11 -11 -9 -11 -13 0 -22 -3 -18 -6 11 -11 86 7 108 27 18 15 32
18 63 14 41 -6 312 41 366 63 l25 11 -25 0 c-26 1 -133 -18 -230 -39 -91 -21
-125 -15 -99 17 13 15 12 16 -6 8 -11 -5 -40 -10 -64 -11 -24 -2 -47 -8 -51
-14 -4 -6 -24 -13 -46 -16 -35 -5 -37 -4 -21 9 14 11 15 16 5 20 -10 4 -9 6 2
6 19 2 89 60 73 61 -18 0 -16 20 1 20 23 0 37 -24 23 -39 -10 -11 -7 -12 13
-6 14 4 32 14 41 21 8 8 29 14 45 14 l29 -1 -30 -13 -30 -13 45 -5 c25 -3 70
-2 100 2 30 4 48 8 40 9 -13 1 -13 3 -1 10 8 5 26 4 47 -5 28 -12 42 -11 110
6 83 22 107 25 86 11 -27 -17 18 -21 61 -5 80 29 147 47 154 40 10 -10 0 -15
-78 -36 -57 -15 -64 -19 -31 -16 37 4 41 2 31 -10 -7 -8 -18 -13 -26 -10 -7 3
-13 2 -13 -3 0 -10 50 -19 68 -13 7 2 10 7 7 12 -2 4 12 10 32 13 46 8 56 1
13 -8 -17 -4 -38 -18 -47 -31 -12 -19 -19 -22 -29 -13 -16 13 -35 3 -28 -15 4
-10 -6 -12 -47 -8 -34 3 -50 1 -46 -6 7 -11 -14 -22 -41 -22 -15 0 -15 2 -2
11 11 8 6 9 -20 4 -19 -3 -54 -8 -77 -12 -24 -3 -43 -9 -43 -13 0 -4 -28 -10
-62 -13 -35 -3 -76 -10 -93 -17 -28 -11 -28 -13 -10 -20 11 -5 14 -9 8 -9 -18
-1 -16 -31 1 -31 8 0 18 5 21 10 4 6 21 17 38 25 l32 14 -40 -5 c-33 -4 -37
-3 -22 6 11 7 33 9 49 6 27 -5 81 3 128 20 25 9 244 13 230 4 -10 -6 -9 -9 6
-13 10 -2 7 -3 -7 -1 -34 4 -74 -23 -60 -40 15 -18 3 -26 -36 -26 -30 0 -33 3
-28 20 7 22 3 24 -23 11 -71 -38 -145 -47 -162 -20 -6 8 -80 -12 -112 -31 -22
-13 -45 -13 -50 -1 -5 14 -58 0 -58 -15 0 -8 7 -14 16 -14 8 0 12 -4 9 -10 -3
-5 -25 -10 -48 -10 -24 0 -54 -8 -71 -19 l-28 -19 43 -6 c117 -15 128 -18 122
-32 -4 -10 3 -14 26 -14 17 0 31 -4 31 -10 0 -5 25 -10 55 -10 30 0 55 4 55 9
0 11 39 25 47 17 3 -3 -5 -10 -18 -15 -17 -7 26 -10 141 -10 170 0 171 0 114
35 -25 15 -9 34 29 34 22 0 28 3 18 9 -7 5 -9 11 -5 14 17 10 129 10 154 0
l25 -10 -23 -7 c-12 -4 -26 -5 -31 -1 -5 3 -12 1 -15 -4 -3 -5 1 -11 9 -15 30
-11 14 -24 -47 -37 l-63 -14 92 -3 c71 -2 98 1 116 13 21 14 145 29 213 26 12
0 30 8 40 18 16 14 26 16 58 9 22 -5 42 -5 45 -1 3 4 23 8 44 9 23 0 33 -3 25
-8 -7 -4 -21 -8 -30 -8 -31 0 -30 -20 2 -27 19 -3 27 -9 20 -13 -9 -6 -9 -9 0
-15 6 -4 19 0 29 10 11 9 28 14 42 11 49 -11 96 -17 168 -23 65 -5 73 -4 61 9
-10 11 -31 13 -77 10 -41 -2 -63 0 -63 7 0 6 1 11 3 12 1 0 38 4 82 9 44 5 89
11 100 13 11 3 29 5 40 6 19 2 19 2 2 15 -16 13 -16 15 -2 30 25 24 -6 21 -37
-4 -30 -23 -114 -53 -131 -46 -7 2 -4 5 6 5 9 1 17 6 17 12 0 7 -9 9 -22 6
-13 -4 -43 -9 -68 -13 -43 -6 -44 -5 -24 10 25 18 94 35 142 36 21 0 31 4 26
11 -3 6 -15 8 -26 6 -14 -4 -18 -1 -14 8 7 18 -21 27 -45 15 -11 -6 -24 -8
-29 -5 -6 3 -10 1 -10 -4 0 -6 -10 -11 -22 -10 -20 0 -19 2 10 16 17 9 32 23
32 31 0 15 -48 14 -155 -3 -24 -4 -21 -2 10 9 22 8 36 15 30 16 -5 1 -1 5 10
10 11 4 30 6 43 3 12 -3 22 0 22 5 0 15 -9 19 -55 26 -22 3 -34 3 -27 0 15 -7
6 -24 -13 -24 -8 0 -18 12 -21 26 -6 24 -10 26 -47 21 -27 -4 -36 -2 -26 4 7
5 41 9 74 9 37 0 55 4 47 9 -10 6 -3 10 22 15 20 4 36 11 36 16 0 4 -10 6 -22
4 -14 -2 -17 -1 -8 3 8 3 20 12 25 18 14 18 102 45 144 45 27 0 32 -3 21 -10
-8 -5 -30 -10 -49 -10 -43 0 -111 -20 -111 -33 0 -5 12 -6 28 -2 15 4 70 8
122 8 65 0 84 2 60 7 -30 6 -31 8 -10 10 90 10 166 -1 106 -16 -13 -3 -27 -12
-30 -20 -3 -8 -12 -14 -21 -14 -8 0 -15 -3 -15 -7 0 -16 -62 -43 -77 -34 -10
5 -26 3 -44 -7 l-27 -16 21 -19 22 -19 -21 6 c-33 10 -40 -22 -9 -36 14 -6 25
-16 25 -21 0 -5 22 -7 53 -4 28 4 70 3 92 -2 39 -8 40 -8 15 -19 -21 -10 -15
-12 45 -11 92 2 92 1 69 -16 -19 -14 -18 -14 4 -15 12 0 22 5 22 10 0 6 7 10
16 10 8 0 13 -4 10 -9 -3 -5 16 -12 44 -16 27 -4 53 -11 56 -16 3 -5 22 -7 41
-3 28 5 34 4 28 -6 -5 -9 -4 -11 3 -6 7 4 20 3 29 -3 15 -8 12 -10 -18 -16
-25 -5 -35 -12 -35 -25 0 -14 7 -18 33 -17 22 1 32 6 28 15 -2 6 2 12 9 12 8
0 16 -5 18 -12 5 -14 98 -19 115 -5 8 5 26 4 49 -3 48 -16 177 -4 223 21 l36
19 -38 0 c-23 0 -36 4 -32 10 3 5 13 10 22 10 8 0 26 9 40 20 14 11 33 20 43
20 11 0 16 8 16 22 -1 14 6 24 18 26 11 2 26 10 34 18 7 8 20 14 27 14 23 0
85 -33 79 -42 -3 -4 14 -8 37 -8 l42 0 -24 -26 c-14 -15 -31 -23 -42 -20 -10
2 -46 -9 -80 -24 l-62 -29 58 -1 c44 0 57 3 57 15 0 9 6 12 15 9 26 -10 16
-21 -29 -33 -64 -16 -117 -14 -130 5 -7 9 -18 12 -29 9 -15 -6 -15 -8 0 -23
15 -16 258 -17 3247 -20 2949 -2 3236 -1 3283 13 33 11 61 14 75 9 20 -7 18
-9 -17 -15 -22 -4 57 -6 175 -5 170 2 226 6 270 19 30 10 66 16 80 14 24 -3
24 -4 -10 -20 -30 -14 -31 -16 -12 -17 30 0 112 21 112 29 0 11 52 30 110 40
30 6 89 19 130 30 86 24 110 26 110 9 0 -6 -3 -9 -6 -6 -3 3 -30 -3 -59 -13
-30 -10 -62 -19 -70 -19 -9 0 -44 -13 -78 -29 -34 -15 -69 -31 -77 -34 -8 -3
7 -6 33 -6 29 -1 63 7 85 18 85 43 152 70 156 62 6 -10 -64 -50 -118 -67 l-41
-13 52 0 c52 -1 200 40 238 66 26 18 19 17 -50 -7 -72 -25 -72 -25 -49 1 41
45 114 61 184 39 24 -7 24 -8 5 -16 -11 -4 -26 -14 -33 -21 -7 -7 -20 -13 -28
-13 -8 0 -14 -5 -14 -11 0 -6 -8 -8 -18 -5 -12 4 -18 1 -18 -12 0 -15 11 -18
88 -20 55 -1 90 2 94 9 5 8 -4 10 -28 7 -36 -4 -44 14 -13 26 20 7 66 -17 60
-31 -3 -9 6 -13 25 -13 17 0 30 4 30 9 0 5 17 13 38 18 24 6 37 15 36 25 -2
18 33 31 42 17 7 -12 -14 -39 -31 -39 -7 0 -18 -7 -25 -15 -11 -14 8 -15 176
-13 147 2 188 6 186 16 -1 7 5 15 13 18 8 4 15 12 15 19 0 7 16 23 35 36 30
21 33 26 19 36 -12 9 -13 16 -4 32 6 12 18 21 26 21 8 0 13 -4 10 -9 -4 -5 -3
-17 0 -26 6 -14 9 -14 25 4 23 25 24 29 2 33 -10 3 2 8 27 12 25 5 54 15 65
22 19 14 19 14 -5 14 -18 0 -21 3 -13 11 15 15 61 15 75 1 17 -17 -9 -42 -43
-42 -22 0 -32 -7 -44 -30 -9 -17 -19 -30 -24 -30 -14 0 -55 -40 -48 -47 4 -4
-3 -17 -15 -30 -14 -15 -17 -23 -8 -23 9 0 8 -6 -5 -20 -17 -19 -17 -20 0 -20
21 0 80 18 108 32 11 5 21 7 23 5 3 -2 -10 -12 -28 -20 -32 -16 -25 -17 154
-17 114 0 189 4 193 10 6 9 -71 15 -130 11 -16 -1 -13 4 15 28 19 17 40 31 45
31 6 0 15 8 21 18 7 10 30 24 52 30 22 7 46 19 53 28 12 15 9 16 -41 9 -52 -7
-54 -6 -35 10 17 14 18 16 2 11 -12 -4 -16 -2 -11 7 14 25 48 57 60 57 17 0
26 -30 13 -46 -9 -11 -7 -15 5 -20 9 -3 23 -4 31 -1 8 4 17 2 20 -4 4 -5 22
-7 43 -3 33 6 36 5 24 -9 -11 -13 -10 -16 5 -19 15 -3 12 -7 -12 -21 l-30 -17
43 5 c103 12 127 16 138 26 7 6 23 9 36 7 21 -4 21 -5 -7 -13 -39 -10 -114
-66 -115 -85 0 -10 -3 -11 -8 -3 -10 15 -81 -17 -75 -34 6 -17 248 -18 258 -2
4 6 13 8 21 5 8 -3 29 8 46 24 21 20 38 28 50 24 16 -5 18 1 18 50 l0 56 -40
-16 c-23 -9 -44 -14 -47 -10 -4 3 -1 6 6 6 6 0 21 9 33 20 13 12 17 20 9 20
-11 0 -11 3 -1 15 7 9 19 14 27 11 10 -4 13 13 13 79 0 52 -4 85 -10 85 -6 0
-27 -8 -48 -19 -53 -27 -122 -37 -122 -18 0 8 15 20 33 27 17 6 51 20 75 31
23 10 49 19 57 19 8 0 15 7 15 16 0 13 -3 14 -15 4 -8 -6 -22 -10 -32 -7 -14
3 -11 7 12 16 18 7 31 19 32 31 1 13 -3 17 -13 13 -8 -3 -14 -8 -14 -12 0 -4
-16 -8 -36 -9 l-37 -1 19 22 c11 12 24 25 31 30 7 4 10 14 7 21 -3 8 7 23 22
35 l27 21 -27 0 c-14 0 -26 -4 -26 -10 0 -5 -6 -10 -14 -10 -19 0 -8 47 12 55
9 3 18 1 20 -4 2 -6 10 -11 18 -11 11 0 14 21 14 105 0 101 -1 105 -19 95 -28
-14 -36 -12 -21 5 7 8 19 15 26 15 12 0 14 45 14 275 -1 188 -5 275 -12 275
-7 0 -7 4 0 13 13 16 16 241 3 233 -5 -4 -12 -2 -16 4 -3 5 1 10 9 10 9 0 16
5 16 10 0 6 -9 10 -20 10 -11 0 -20 -5 -20 -10 0 -14 -46 -31 -65 -24 -23 9
-8 22 20 16 15 -2 25 0 25 8 0 19 29 42 45 36 26 -10 16 8 -11 21 -21 10 -32
9 -55 -2 -15 -8 -32 -22 -37 -31 -5 -10 -25 -18 -47 -20 -35 -3 -36 -2 -19 11
10 8 24 15 29 15 6 0 18 7 28 14 16 12 4 14 -85 10 -81 -3 -98 -2 -78 7 14 6
57 11 95 13 72 2 100 10 90 27 -4 5 6 14 22 20 66 24 83 35 83 51 0 27 -25 22
-45 -8 -14 -22 -22 -25 -48 -20 -22 4 -27 3 -17 -3 25 -17 2 -24 -42 -13 -24
5 -59 8 -78 6 l-35 -5 30 25 c24 21 26 26 12 26 -10 0 -15 5 -12 10 3 6 -1 13
-9 16 -9 3 -13 11 -9 17 4 7 -10 8 -44 3 -58 -7 -122 2 -101 15 11 8 11 11 -1
18 -7 5 -11 13 -7 19 3 6 0 13 -6 15 -10 4 -9 8 2 16 12 8 8 11 -17 11 -34 0
-47 19 -15 21 34 3 127 -2 146 -8 15 -4 16 -7 5 -14 -8 -5 -25 -9 -39 -9 -14
0 -32 -5 -40 -11 -11 -7 2 -8 44 -3 43 5 57 4 52 -5 -5 -7 1 -11 14 -11 20 0
48 46 35 58 -3 3 2 14 12 24 9 10 12 18 6 18 -5 0 -10 7 -10 15 0 8 6 15 13
15 6 0 14 11 16 25 3 14 1 25 -3 25 -5 0 -9 -4 -9 -10 0 -5 -7 -10 -15 -10 -9
0 -30 -8 -48 -17 -18 -10 -45 -23 -62 -30 -28 -11 -26 -12 35 -13 57 -2 61 -3
35 -11 -49 -16 -94 -19 -100 -9 -3 6 -16 10 -28 11 l-22 0 23 9 c19 8 32 30
16 30 -21 0 -117 -74 -108 -83 3 -2 -11 -8 -31 -11 -55 -11 -89 25 -42 44 31
12 4 12 -29 0 -19 -8 -30 -8 -38 0 -7 7 -6 10 2 10 27 0 10 19 -20 22 l-32 3
28 19 c24 15 33 16 49 7 11 -7 31 -10 50 -5 45 9 54 16 31 26 -12 5 -3 7 28 4
35 -4 48 -2 52 9 3 8 16 15 28 15 22 -1 22 -1 4 -15 -19 -15 -19 -15 1 -15 29
0 36 25 12 46 -15 13 -22 15 -31 6 -14 -14 -38 -16 -38 -3 0 5 8 12 18 14 10
3 6 5 -11 6 -16 0 -26 5 -23 10 8 12 -43 21 -91 14 -23 -3 -43 -1 -47 5 -4 7
14 13 46 16 119 12 177 14 180 5 2 -5 17 -4 35 3 24 9 40 9 74 -1 31 -9 39
-15 28 -22 -18 -11 -42 -12 -35 -1 3 5 -8 6 -25 4 -28 -4 -41 -21 -16 -23 6 0
-1 -7 -18 -15 -29 -14 -27 -14 29 -8 33 4 82 18 110 32 27 14 81 35 120 46 49
15 72 27 74 40 2 11 -4 19 -16 23 -14 3 -18 11 -15 24 3 12 11 18 19 15 8 -3
14 -1 14 4 0 13 -27 13 -35 0 -3 -5 -15 -10 -25 -10 -10 0 -23 -6 -27 -14 -4
-8 -25 -19 -46 -24 -33 -9 -37 -9 -26 4 9 11 8 14 -9 14 -11 0 -22 5 -24 11
-2 5 -11 7 -21 4 -9 -4 -14 -12 -11 -17 7 -10 -13 -28 -31 -28 -5 0 -3 5 5 10
12 8 12 12 2 18 -19 13 -11 35 18 49 14 7 19 12 10 13 -21 1 30 29 55 30 18 1
18 2 -3 10 -13 6 -31 6 -45 0 -12 -5 -42 -15 -67 -21 -41 -11 -43 -13 -20 -20
14 -4 19 -7 11 -8 -8 -1 -19 -9 -26 -18 -11 -15 -20 -15 -81 -6 -38 6 -87 12
-109 13 -46 1 -187 -29 -196 -43 -3 -5 -10 -8 -15 -7 -5 1 -10 -4 -13 -11 -2
-7 1 -9 8 -5 19 12 12 -13 -9 -34 -25 -25 -46 -26 -53 -1 -3 14 -11 18 -26 14
-22 -6 -29 -33 -8 -33 8 0 7 -4 -3 -10 -8 -5 -22 -7 -32 -4 -23 7 -32 -13 -11
-25 16 -9 14 -10 -9 -11 -30 0 -35 9 -17 27 6 6 12 26 14 45 2 27 7 33 25 31
12 -2 19 1 15 7 -3 6 5 10 19 10 14 0 27 4 30 9 3 4 -13 5 -37 0 -58 -11 -77
-10 -47 4 14 6 30 17 35 24 6 7 44 21 85 32 53 13 66 19 44 20 -17 1 -51 -6
-74 -14 -24 -8 -44 -14 -46 -13 -3 4 23 119 29 124 2 3 41 12 86 22 45 10 79
21 75 25 -4 3 6 11 22 17 22 9 25 13 14 20 -8 5 -21 5 -31 -1 -10 -5 -35 -9
-56 -9 -21 -1 -49 -7 -63 -15 -33 -19 -66 -19 -74 1 -9 23 -8 24 14 24 11 0
19 3 19 8 -1 4 0 12 1 17 2 6 3 19 4 30 1 13 12 22 38 30 41 11 60 25 34 25
-15 0 -46 22 -46 32 0 9 117 1 136 -9 16 -10 41 -7 127 14 101 25 137 43 83
43 -14 0 -28 5 -32 11 -5 9 4 10 32 4 21 -4 42 -12 46 -18 6 -11 9 -10 173 25
32 7 89 22 125 34 l65 22 3 53 c2 35 -1 55 -10 60 -10 7 -10 9 0 9 7 0 12 14
12 35 0 33 -2 35 -34 35 -21 0 -36 6 -40 15 -7 18 -2 19 23 3 10 -6 25 -8 34
-5 12 5 15 27 16 125 1 116 1 120 -23 136 -23 15 -28 14 -85 -14 -33 -17 -63
-30 -67 -30 -18 0 31 39 77 60 48 23 52 23 64 7 28 -39 35 -19 35 103 l0 121
-30 -16 c-50 -26 -55 -17 -11 21 32 28 39 39 29 45 -10 7 -10 9 0 9 6 0 12 9
12 20 0 17 -3 19 -19 10 -12 -6 -22 -6 -26 -1 -3 5 5 11 17 13 23 3 23 4 25
191 l2 187 -27 -7 c-15 -3 -32 -13 -38 -21 -6 -8 -19 -12 -30 -10 -17 4 -16 6
9 18 29 14 36 47 15 68 -9 9 -9 12 0 12 7 0 12 4 12 9 0 5 -24 9 -54 8 l-54
-1 19 -27 c10 -15 19 -29 19 -32 0 -2 -18 -5 -41 -5 -23 -1 -49 -8 -58 -16
-18 -17 -51 -22 -51 -8 0 4 10 12 23 17 12 6 21 16 19 23 -1 7 2 12 8 12 5 0
10 -5 10 -11 0 -8 4 -8 15 1 10 8 13 25 10 55 -3 41 -2 44 23 47 15 2 -14 7
-65 12 -50 4 -101 5 -113 1 -15 -5 -20 -4 -16 4 11 17 -59 14 -74 -4 -8 -9 -9
-15 -2 -15 6 0 14 5 17 10 10 16 45 12 39 -4 -3 -8 -27 -17 -57 -21 -29 -4
-68 -16 -87 -27 l-35 -19 32 4 c18 2 30 0 27 -5 -3 -4 -20 -8 -38 -8 -18 0
-36 -3 -40 -8 -8 -7 -13 -8 -41 -11 -8 0 -15 -6 -15 -12 0 -6 9 -8 20 -4 50
16 -4 -21 -69 -46 -20 -8 -22 -7 -12 5 6 8 23 17 37 20 14 4 22 11 19 16 -4 6
-17 4 -35 -5 -42 -22 -57 -19 -32 7 18 20 19 25 6 42 -10 14 -11 23 -3 33 17
20 39 16 39 -7 0 -11 5 -20 10 -20 6 0 10 4 10 9 0 9 63 35 85 36 6 0 24 10
39 23 16 12 37 22 47 22 10 0 21 4 24 10 3 5 39 8 80 7 82 -3 122 8 67 19 -24
5 -30 9 -20 15 21 14 -6 10 -38 -5 -16 -7 -50 -16 -76 -20 -43 -5 -48 -4 -48
14 0 26 -12 25 -48 -5 -53 -45 -73 -28 -21 18 21 19 26 27 15 27 -9 0 -16 -4
-16 -8 0 -10 -61 -47 -80 -47 -8 -1 -14 -6 -12 -13 1 -7 -6 -12 -16 -12 -39 0
-30 14 23 38 52 24 78 51 35 37 -13 -4 -20 -2 -20 7 0 7 22 21 50 31 52 18
104 64 148 131 29 42 61 59 98 50 13 -3 30 -2 37 3 6 5 28 10 47 11 32 2 33 1
17 -11 -10 -9 -38 -14 -67 -13 -32 1 -52 -4 -55 -11 -4 -11 21 -18 48 -14 18
3 5 -29 -20 -49 -20 -15 -22 -19 -8 -14 32 11 84 17 101 10 18 -7 8 -17 -70
-70 l-39 -26 42 0 c22 0 41 -4 41 -10 0 -5 -13 -10 -29 -10 -31 0 -52 -15 -23
-16 9 -1 25 -4 35 -9 12 -5 17 -3 17 9 0 9 7 19 15 23 14 5 14 7 0 23 -19 20
-10 30 26 30 32 0 48 -17 25 -26 -22 -9 -20 -24 3 -24 29 0 51 11 51 25 0 7
14 18 30 25 36 15 39 30 5 30 -18 0 -23 4 -19 15 4 8 1 15 -5 15 -6 0 -11 -4
-11 -10 0 -5 -8 -10 -17 -10 -16 -1 -16 -2 1 -15 18 -14 17 -15 -21 -15 -23 0
-45 4 -48 10 -8 13 53 50 71 43 8 -3 14 0 14 6 0 6 17 11 40 11 25 0 42 6 48
15 5 10 15 13 25 9 9 -3 15 -10 12 -14 -3 -5 -1 -11 5 -15 5 -3 10 1 10 9 0 8
-5 18 -11 22 -8 5 -7 9 1 14 7 4 10 15 7 24 -4 9 -7 20 -8 24 -1 4 -9 13 -18
19 -14 11 -14 13 6 19 21 6 22 11 22 121 l0 115 -34 -5 c-32 -5 -33 -4 -23 13
7 10 22 24 35 31 13 7 23 16 23 21 0 5 -11 1 -25 -8 -13 -9 -30 -14 -37 -11
-8 2 3 14 25 27 40 24 51 52 17 43 -11 -3 -20 -8 -20 -12 0 -4 -24 -32 -52
-62 -53 -56 -80 -73 -119 -78 -5 0 -7 -6 -4 -11 4 -6 11 -7 17 -4 13 8 28 -15
21 -32 -3 -8 -24 -19 -47 -26 -40 -11 -48 -12 -91 -16 -16 -2 -17 -4 -6 -11 9
-6 22 -6 33 0 23 12 23 8 -3 -35 -12 -20 -27 -36 -34 -36 -7 0 -15 -6 -18 -13
-3 -7 -24 -19 -48 -26 -24 -8 -62 -22 -84 -31 -47 -21 -55 -18 -30 10 18 20
18 20 -16 9 -19 -7 -38 -16 -44 -22 -7 -7 -6 -8 3 -3 22 13 13 -10 -19 -47
-35 -41 -114 -91 -132 -83 -7 2 -6 5 4 5 19 1 52 35 43 44 -4 3 3 22 14 41
l21 36 -27 -3 c-38 -5 -62 -17 -62 -31 0 -13 -107 -62 -116 -53 -3 3 3 8 14
11 11 4 23 13 26 21 3 8 11 15 18 15 16 1 77 50 62 50 -6 0 -22 -8 -35 -18
-13 -10 -46 -29 -72 -43 -54 -26 -78 -56 -56 -70 10 -6 6 -11 -14 -18 -30 -11
-38 -24 -9 -15 14 5 14 3 -3 -11 -19 -15 -20 -14 -29 5 -8 17 -16 21 -38 16
-18 -3 -27 -2 -23 4 3 6 10 10 15 10 13 0 95 57 111 77 13 17 13 17 -7 0 -24
-20 -154 -73 -136 -55 26 26 10 29 -22 4 -19 -14 -40 -26 -46 -26 -6 0 -26
-11 -43 -24 -53 -40 -131 -77 -152 -72 -11 2 -29 0 -40 -5 -17 -7 -15 -8 9 -6
16 1 31 -4 33 -10 3 -7 0 -13 -6 -13 -6 0 -19 -9 -30 -21 -11 -12 -35 -23 -55
-25 -20 -1 -41 -6 -46 -9 -5 -3 -18 -1 -28 4 -14 8 -31 2 -75 -27 -61 -39 -78
-62 -47 -62 10 0 22 -5 26 -12 4 -7 3 -8 -4 -4 -12 7 -49 -41 -38 -51 3 -3 14
1 23 9 30 25 41 29 49 16 4 -7 4 -10 -1 -6 -5 5 -14 -1 -22 -12 -8 -11 -31
-25 -53 -31 -22 -7 -37 -15 -35 -20 3 -4 -15 -17 -40 -29 -25 -12 -45 -28 -45
-36 0 -18 4 -18 40 1 17 9 30 13 30 11 0 -11 -66 -40 -95 -43 -16 -2 -25 1
-20 5 6 4 17 16 25 27 14 18 13 18 -20 -2 -28 -17 -42 -20 -70 -13 -30 7 -31
8 -10 10 14 1 30 2 37 1 6 -1 14 3 18 9 3 5 -1 10 -11 10 -29 0 4 28 48 42 31
9 38 15 34 31 -2 10 -2 16 1 13 8 -7 43 23 43 37 0 6 -8 3 -18 -6 -21 -20 -37
-22 -26 -5 5 8 2 9 -9 5 -45 -18 -50 -17 -22 7 18 15 40 25 54 23 13 -1 26 4
29 12 3 8 0 11 -7 7 -6 -4 -11 -4 -11 1 0 14 73 79 108 97 21 11 32 23 28 31
-3 8 0 17 6 21 7 4 8 3 4 -4 -11 -18 3 -15 40 9 19 11 39 17 45 13 8 -4 9 -3
5 4 -4 8 3 16 19 22 33 13 38 13 30 0 -8 -13 5 -13 25 0 11 7 11 10 2 10 -20
0 -5 18 30 36 28 15 30 15 25 0 -6 -15 -4 -15 18 0 14 9 23 20 20 24 -3 5 0
12 6 16 8 4 9 3 5 -4 -4 -7 -3 -12 1 -12 5 0 14 9 20 20 7 11 37 26 67 35 34
10 60 25 69 39 9 13 28 27 44 33 73 26 94 31 113 26 12 -3 22 1 26 11 4 10 18
16 38 16 33 0 62 14 195 93 81 49 99 64 60 52 -35 -12 -13 10 31 30 39 17 58
41 23 28 -28 -10 -97 -63 -84 -63 27 0 -4 -21 -92 -64 -51 -24 -119 -52 -152
-61 -33 -9 -70 -21 -82 -27 -34 -17 -39 -2 -6 16 15 8 24 15 19 16 -15 0 -109
-61 -140 -91 -21 -20 -33 -26 -42 -19 -8 7 -13 6 -17 -4 -7 -18 -165 -98 -178
-90 -5 2 -17 1 -27 -5 -10 -5 -24 -6 -31 -2 -11 7 -11 9 0 13 8 3 11 9 7 13
-5 5 -16 1 -26 -8 -10 -9 -33 -20 -50 -23 -18 -4 -43 -19 -56 -35 -13 -15 -37
-31 -52 -34 -51 -11 -106 -38 -93 -46 8 -4 1 -13 -20 -23 -17 -9 -31 -21 -31
-27 0 -6 -9 -9 -20 -6 -11 3 -18 1 -15 -3 7 -11 -27 -30 -54 -30 -33 0 -24 17
12 24 25 5 29 9 17 16 -12 8 -9 12 18 22 17 7 32 16 32 20 0 13 -8 10 -56 -18
-25 -15 -47 -24 -50 -21 -5 5 57 47 70 47 12 0 126 82 126 91 0 14 -23 11 -48
-7 -12 -8 -28 -12 -35 -9 -6 4 -4 0 6 -8 17 -14 16 -16 -10 -33 -15 -11 -49
-30 -75 -44 -27 -13 -48 -28 -48 -32 0 -4 -7 -4 -17 -1 -10 4 -14 2 -10 -4 4
-7 -8 -21 -28 -33 -19 -12 -40 -30 -45 -40 -5 -10 -25 -23 -44 -30 -26 -8 -37
-20 -50 -53 -11 -27 -19 -38 -24 -30 -5 8 -8 -2 -8 -22 0 -19 4 -35 10 -35 16
0 0 -10 -23 -15 -11 -2 -21 1 -21 7 0 6 -11 8 -24 6 -14 -3 -31 -1 -38 3 -9 6
-6 9 10 9 12 0 23 6 24 13 0 6 2 17 3 22 2 6 3 16 4 23 0 7 5 11 10 8 5 -3 12
1 15 10 9 23 7 36 -4 29 -22 -13 -21 26 1 62 13 21 24 40 25 43 8 32 32 70 47
74 14 3 17 1 12 -12 -3 -9 9 0 28 21 25 26 40 35 53 31 12 -4 15 -3 7 3 -16
11 -1 29 63 76 45 32 112 67 129 67 2 0 -12 -16 -33 -36 l-37 -35 50 33 c59
40 89 41 71 3 -6 -14 -19 -25 -28 -25 -10 0 -18 -4 -18 -10 0 -5 -6 -10 -13
-10 -8 0 -22 -9 -32 -20 -24 -27 -13 -25 35 5 22 14 49 25 61 25 12 0 41 17
64 39 23 21 53 44 66 50 15 8 9 -1 -16 -23 -22 -20 -36 -36 -32 -36 15 0 67
30 67 39 0 14 84 73 88 62 3 -9 68 27 147 82 22 15 57 39 78 53 22 14 37 28
34 31 -8 8 -97 -35 -97 -47 0 -6 -4 -9 -8 -6 -5 3 -33 -7 -63 -21 -30 -14 -72
-27 -94 -28 -24 -1 -39 -6 -38 -13 2 -6 -6 -16 -16 -22 -14 -7 -20 -6 -25 6
-4 10 -2 13 7 8 6 -4 9 -3 4 1 -4 5 0 17 10 27 24 27 0 22 -25 -5 -12 -13 -19
-27 -15 -32 5 -4 2 -5 -5 -1 -6 4 -30 -3 -53 -16 -32 -18 -42 -20 -48 -9 -7
10 -18 5 -47 -22 -39 -34 -84 -56 -84 -40 0 5 12 16 28 26 44 27 78 57 65 57
-7 0 -42 -23 -80 -51 -37 -29 -94 -64 -125 -79 -32 -14 -56 -29 -53 -32 3 -2
-8 -4 -23 -3 -18 1 -29 -3 -29 -12 0 -9 8 -11 21 -8 19 5 19 5 3 -5 -9 -6 -22
-8 -28 -5 -19 12 -56 -43 -95 -141 -21 -55 -37 -104 -36 -111 4 -21 -47 -113
-63 -113 -21 0 -29 43 -17 87 l10 38 1 -36 c1 -24 7 -39 17 -43 13 -5 14 -4 5
7 -11 14 -18 353 -7 364 2 3 8 -16 11 -41 12 -74 29 -70 21 5 -4 35 -11 65
-16 67 -28 10 -17 174 11 180 12 2 15 -4 12 -30 l-4 -33 16 28 c9 15 14 31 11
36 -3 4 12 17 33 29 21 12 46 33 55 47 20 30 16 31 -14 5 -27 -23 -40 -25 -40
-6 0 8 12 22 28 33 41 27 38 46 -3 21 -20 -11 -54 -24 -77 -30 -48 -10 -68
-24 -68 -45 0 -12 7 -11 35 6 25 14 35 17 35 7 0 -7 -11 -18 -24 -26 -27 -14
-35 -33 -42 -100 -2 -25 -9 -67 -14 -95 -7 -39 -9 -22 -6 80 3 77 1 120 -4
105 -6 -18 -8 -5 -7 42 2 66 3 68 37 87 19 11 49 31 65 45 17 14 34 26 38 26
5 0 5 5 2 10 -3 6 -1 10 4 10 6 0 11 5 11 10 0 12 -32 13 -46 1 -5 -4 -22 -11
-39 -15 -20 -4 -10 5 33 28 59 32 121 75 150 103 7 7 18 10 25 7 8 -2 20 8 28
23 18 35 67 83 85 83 13 0 68 22 109 43 26 14 -30 -53 -59 -70 l-21 -12 23 -1
c12 0 31 9 42 20 12 12 25 18 30 15 12 -8 50 12 50 26 0 6 -9 8 -20 4 -11 -3
-20 -3 -20 2 1 19 72 83 92 83 4 0 5 -6 2 -14 -4 -10 2 -12 20 -9 29 6 35 23
9 24 -13 0 -11 3 7 11 14 6 38 17 54 25 32 14 130 16 161 3 18 -8 17 -9 -7 -9
-17 -1 -43 -15 -67 -36 -22 -20 -41 -31 -43 -25 -2 7 -15 5 -37 -6 -19 -10
-51 -18 -70 -19 -26 -2 -37 -8 -40 -21 -3 -14 0 -16 10 -8 23 19 67 25 72 11
4 -8 8 -8 14 -2 4 6 17 17 28 25 20 15 20 14 1 -8 -19 -22 -19 -22 5 -22 14 0
41 18 71 47 26 26 48 42 48 37 0 -6 -9 -19 -20 -29 -11 -10 -22 -26 -26 -37
-3 -10 -15 -23 -27 -29 -12 -5 -30 -15 -40 -21 -11 -9 -20 -9 -25 -3 -8 11
-34 14 -42 4 -3 -3 -20 -13 -37 -22 -78 -40 -93 -49 -93 -53 0 -3 6 -2 13 1 6
4 -1 -5 -16 -19 -35 -32 -15 -34 27 -2 17 13 41 26 54 30 12 4 22 11 22 16 0
4 12 16 28 25 l27 18 -19 -21 c-19 -22 -19 -22 0 -22 16 0 17 -2 4 -10 -12 -8
-10 -10 10 -10 20 0 22 -2 10 -10 -20 -13 -53 -13 -45 0 9 14 -1 12 -35 -5
-17 -9 -30 -21 -30 -28 0 -14 -54 -52 -90 -62 -22 -7 -23 -6 -11 9 8 9 9 16 3
16 -6 0 -13 -9 -17 -19 -3 -10 -16 -22 -28 -26 -22 -7 -22 -7 3 -14 22 -6 21
-8 -24 -28 -43 -18 -47 -22 -30 -31 19 -11 18 -11 0 -12 -11 0 -27 -6 -35 -13
-9 -7 -34 -19 -56 -26 -22 -8 -52 -23 -67 -34 -23 -17 -25 -22 -13 -34 12 -11
25 -7 87 32 40 25 74 41 76 35 2 -6 15 -4 32 5 34 17 44 19 35 5 -4 -6 1 -7
11 -3 11 4 15 2 11 -4 -7 -11 -81 -27 -109 -24 -10 1 -18 -4 -18 -13 0 -18
-30 -36 -58 -36 -11 0 -25 -7 -32 -15 -11 -13 -8 -14 21 -9 19 4 39 11 46 16
7 5 18 6 24 2 8 -4 9 -3 5 5 -5 7 5 17 28 26 45 19 56 19 56 0 0 -8 7 -15 15
-15 8 0 12 6 9 13 -5 14 35 37 65 37 9 0 26 7 37 16 18 15 17 15 -16 9 l-35
-5 24 16 c13 10 37 17 53 17 15 0 28 3 28 7 0 4 10 12 23 18 22 11 22 11 -5
11 -63 2 -104 41 -43 41 13 0 26 4 29 9 8 13 -39 20 -58 9 -9 -5 -22 -8 -28
-6 -16 6 56 49 73 45 8 -2 10 -2 6 1 -4 2 8 13 28 23 20 11 41 16 48 12 8 -5
3 -9 -13 -13 -15 -4 -24 -13 -24 -23 1 -9 -2 -14 -7 -11 -5 3 -6 -2 -3 -10 7
-17 14 -19 38 -10 12 5 14 10 6 19 -7 8 -3 16 15 25 14 8 24 19 21 26 -3 8 6
14 27 16 20 2 32 8 32 18 0 8 7 16 15 16 8 1 19 2 24 3 6 0 5 6 -1 12 -8 8
-18 6 -37 -6 -14 -9 -31 -15 -38 -13 -7 3 13 18 45 33 34 17 61 25 65 19 11
-14 41 -13 35 2 -2 7 -12 10 -21 6 -15 -5 -15 -4 -3 12 18 22 84 56 109 56 10
0 29 12 43 26 13 14 33 30 44 34 16 7 12 9 -20 11 -22 1 -47 1 -55 1 -8 -1
-35 1 -59 4 -31 4 -40 8 -30 15 14 8 19 8 68 -6 17 -5 22 -4 16 6 -6 9 -2 10
16 5 30 -9 8 -9 247 -2 138 4 201 3 197 -4 -3 -5 1 -10 9 -10 9 0 16 5 16 11
0 6 15 9 35 8 30 -3 41 3 83 44 50 49 66 58 55 30 -8 -19 9 -12 45 20 37 34
25 8 -15 -31 -21 -20 -42 -45 -48 -56 -13 -26 -32 -31 -37 -11 -3 15 -6 15
-28 -3 -14 -10 -46 -21 -72 -24 -26 -3 -54 -13 -63 -22 -9 -9 -28 -15 -43 -15
-21 1 -22 2 -7 6 28 7 39 19 22 26 -7 3 -28 -2 -44 -10 -40 -19 -112 -83 -95
-83 8 0 27 14 44 30 16 17 35 30 41 30 6 0 3 -6 -8 -13 -21 -16 -11 -42 12
-32 14 5 14 3 1 -17 -9 -13 -28 -24 -44 -26 -31 -3 -83 -37 -72 -47 13 -13
141 59 197 111 32 29 61 51 64 48 3 -3 -9 -19 -26 -36 l-32 -30 38 21 c47 26
55 26 33 3 -9 -11 -34 -24 -55 -31 -21 -6 -73 -36 -115 -67 -46 -34 -83 -54
-92 -50 -8 3 -13 2 -10 -3 3 -5 -7 -14 -23 -21 -17 -6 -28 -17 -25 -23 2 -7
-8 -25 -22 -40 -29 -31 -25 -50 5 -23 12 11 27 15 44 11 14 -4 28 -2 31 4 4 7
1 8 -8 5 -9 -3 -16 -2 -16 2 1 13 93 74 112 74 8 0 23 9 33 20 10 11 26 20 36
20 23 0 18 -32 -5 -36 -10 -1 -29 -12 -42 -25 -13 -12 -31 -23 -41 -24 -38 -3
-53 -17 -49 -41 5 -27 -18 -47 -69 -58 -29 -7 -29 -7 -10 8 11 8 25 16 32 16
6 0 14 4 17 9 3 4 -7 6 -22 4 -15 -3 -41 -6 -58 -8 -18 -1 -45 -13 -62 -25
-17 -12 -35 -19 -42 -15 -6 4 -23 -5 -38 -19 -30 -30 -119 -85 -108 -67 4 6 2
11 -3 11 -6 0 -11 -4 -11 -10 0 -5 -5 -10 -11 -10 -5 0 -7 5 -4 10 3 6 1 10
-5 10 -6 0 -14 -8 -17 -18 -8 -22 -33 -41 -53 -41 -10 -1 -7 6 10 20 24 20 24
20 3 14 -25 -7 -30 3 -10 25 6 8 2 6 -11 -5 -13 -11 -18 -21 -12 -25 19 -12
-135 -130 -171 -130 -10 0 -21 -5 -24 -10 -3 -5 2 -10 12 -10 16 0 57 22 141
73 6 5 12 5 12 0 -1 -10 -83 -63 -98 -63 -5 0 -16 -8 -23 -17 -12 -15 -12 -16
6 -9 11 5 36 12 55 17 21 5 49 23 70 47 36 40 93 76 103 65 4 -3 20 6 38 21
17 15 45 34 63 42 l31 16 -30 -27 c-16 -15 -24 -24 -17 -20 7 4 26 8 42 10 17
2 38 9 48 15 15 10 14 11 -6 6 -35 -7 -12 15 50 49 33 18 53 24 56 17 2 -8 13
-8 38 3 31 13 58 5 34 -10 -5 -3 -10 -3 -10 1 0 4 -11 -3 -24 -15 -16 -15 -37
-23 -60 -23 -33 0 -65 -17 -34 -18 7 -1 1 -8 -14 -16 -37 -20 -35 -25 7 -21
28 4 33 2 24 -9 -6 -8 -22 -11 -38 -8 -21 4 -35 -1 -57 -21 l-29 -26 33 16
c18 9 32 11 32 5 0 -5 7 -10 16 -10 22 0 91 43 77 47 -28 10 75 83 116 83 26
0 52 11 46 19 -5 9 74 45 82 37 12 -12 -69 -75 -105 -80 -20 -3 -38 -5 -39 -6
-2 0 -3 -7 -3 -16 0 -19 -28 -43 -50 -44 -8 0 -27 -10 -42 -23 -14 -12 -36
-29 -48 -37 -36 -25 -106 -90 -97 -90 5 0 20 9 34 20 35 27 120 51 158 44 22
-4 35 -1 45 10 11 14 10 16 -6 9 -34 -12 4 25 55 54 25 15 57 35 70 45 27 21
41 16 36 -12 -2 -13 2 -20 11 -20 23 0 16 -20 -12 -30 -35 -14 -35 -13 -30 15
5 25 -16 36 -29 15 -3 -5 -1 -10 4 -10 23 0 10 -21 -23 -37 -19 -10 -60 -33
-91 -52 -50 -30 -61 -32 -89 -24 -27 8 -38 7 -60 -9 -14 -11 -43 -22 -64 -23
-20 -2 -38 -9 -40 -15 -2 -5 -7 -8 -11 -5 -5 2 -17 -3 -27 -11 -10 -9 -13 -13
-7 -9 7 3 21 1 30 -5 15 -9 15 -11 2 -7 -9 3 -20 2 -25 -3 -17 -16 -79 -47
-109 -54 -27 -7 -65 -36 -65 -51 0 -3 12 3 27 12 15 10 24 13 20 6 -9 -14
-115 -73 -132 -73 -6 0 -22 -12 -36 -27 l-24 -27 29 22 c16 12 38 22 50 23 11
0 39 11 61 24 22 14 65 36 95 50 30 14 105 50 165 80 61 30 117 55 125 56 40
4 40 -4 2 -33 -23 -17 -40 -34 -38 -36 5 -4 87 47 102 64 11 13 117 64 131 64
4 -1 -3 -10 -16 -20 -13 -11 -17 -20 -10 -20 16 0 99 49 99 59 0 11 95 71 112
71 8 0 20 6 27 13 10 10 11 8 5 -7 -7 -19 -7 -19 22 1 16 11 39 23 51 27 11 4
27 13 33 21 7 8 22 15 34 15 12 0 37 14 56 31 19 18 62 44 96 59 67 30 101 62
39 36 -50 -21 -56 -20 -20 5 28 19 28 20 5 14 -18 -5 -22 -4 -14 4 6 6 24 13
40 16 58 8 87 16 115 30 42 22 48 17 14 -11 l-30 -26 32 16 c17 9 35 20 38 26
4 6 11 8 16 4 6 -4 3 -14 -7 -25 -25 -27 -1 -23 43 7 24 17 30 24 16 19 -30
-8 -29 2 2 27 14 11 25 25 25 31 0 8 -4 7 -12 -1 -7 -7 -20 -12 -29 -12 -9 0
-22 -7 -29 -15 -7 -8 -19 -15 -27 -15 -13 0 -13 3 -3 15 20 24 -4 17 -36 -10
-16 -14 -31 -25 -34 -26 -3 0 -16 -2 -30 -5 -24 -4 -24 -3 -6 11 19 14 19 15
2 15 -35 0 3 28 47 35 23 4 46 14 52 22 6 8 22 15 35 16 14 1 34 9 44 19 24
22 10 23 -38 3 -20 -8 -36 -13 -36 -10 0 9 80 58 86 52 4 -3 20 1 36 9 16 8
34 14 40 12 6 -2 -4 -12 -23 -21 -19 -9 -27 -17 -19 -17 10 0 4 -9 -15 -26
-24 -20 -26 -23 -6 -13 19 9 25 8 32 -2 5 -9 4 -15 -5 -17 -18 -4 -28 -52 -11
-52 7 0 24 9 39 21 23 18 26 27 26 84 l0 64 -46 -16 c-25 -8 -48 -12 -52 -9
-3 4 4 9 16 13 12 3 22 11 22 18 0 18 32 28 41 13 12 -19 21 12 17 56 l-3 36
-29 -15 c-15 -8 -34 -15 -41 -15 -7 0 -16 -6 -19 -12 -2 -7 -3 -2 -2 12 2 16
10 25 22 26 39 2 44 4 44 18 0 8 7 16 15 20 17 6 20 32 5 41 -5 3 -22 -1 -37
-8 -39 -20 -97 -32 -89 -18 8 12 -20 -2 -85 -44 -25 -17 -69 -41 -97 -54 -68
-32 -66 -43 2 -22 30 8 52 19 50 23 -3 4 8 10 23 14 15 3 34 7 41 10 6 2 12
-1 12 -7 0 -6 7 -9 15 -5 23 8 18 -10 -7 -26 -22 -15 -22 -15 12 -11 33 5 34
4 15 -10 -19 -14 -18 -15 10 -11 l30 5 -28 -13 c-16 -7 -28 -17 -27 -23 1 -5
-7 -12 -17 -14 -10 -1 -25 -9 -34 -17 -11 -10 -23 -12 -39 -6 -20 7 -21 10 -7
15 10 4 17 1 17 -5 0 -7 7 -5 18 4 9 8 25 18 35 21 22 8 22 27 0 25 -10 -1
-29 0 -43 1 l-25 2 25 14 c14 8 19 14 11 15 -8 0 -29 -15 -46 -34 -17 -19 -45
-38 -60 -42 -16 -4 -45 -16 -63 -27 -19 -11 -49 -21 -68 -23 -18 -1 -46 -11
-61 -21 -33 -23 -140 -83 -148 -83 -3 0 -5 4 -5 9 0 11 72 57 83 53 9 -3 67
26 67 34 0 3 -9 3 -19 -1 -37 -11 -32 14 6 33 21 10 47 23 58 30 11 6 31 13
45 16 14 3 34 12 45 21 19 16 19 16 -4 5 -16 -8 -26 -9 -34 -1 -7 7 -2 14 16
22 15 7 27 16 27 21 0 4 7 8 15 8 9 0 41 16 71 35 30 19 62 37 72 38 9 2 28 9
42 17 22 12 23 14 6 20 -15 5 -10 11 27 30 33 17 45 30 44 44 -1 10 5 21 13
24 13 5 13 3 1 -11 -20 -25 5 -23 44 3 35 23 58 27 29 5 -19 -14 -19 -14 1
-15 18 -1 17 -2 -5 -15 -14 -8 -34 -14 -46 -15 -11 0 -29 -7 -40 -15 -18 -14
-17 -15 10 -9 21 5 27 4 22 -5 -10 -16 -1 -14 45 9 38 20 40 22 37 65 -3 47
-7 52 -25 34 -15 -15 -83 -21 -83 -7 0 6 -6 6 -15 -2 -12 -10 -15 -10 -15 3 0
11 10 15 33 14 23 -1 45 8 70 28 l37 30 -1 167 c-1 98 -5 166 -10 162 -5 -3
-9 8 -9 24 0 18 -6 32 -16 36 -14 5 -16 1 -11 -27 3 -18 -1 -43 -8 -56 -13
-26 -24 -18 -19 13 3 19 -29 56 -47 56 -5 0 -15 16 -23 35 -14 32 -36 48 -36
25 0 -5 5 -10 10 -10 6 0 10 -9 10 -20 0 -24 -13 -26 -34 -5 -10 10 -13 28
-11 56 5 49 14 66 26 48 7 -11 9 -11 9 -1 0 7 4 10 10 7 5 -3 7 0 4 8 -3 8 -1
18 5 21 15 10 -9 45 -25 39 -7 -2 -16 -17 -19 -33 -7 -32 -23 -49 -51 -55 -11
-2 -28 -7 -38 -11 -16 -6 -18 -4 -13 10 4 10 7 22 7 28 0 7 4 7 13 -1 10 -8
17 -7 26 2 9 9 14 9 20 -1 6 -9 11 -1 18 25 7 30 7 42 -4 51 -7 7 -13 18 -13
25 0 8 4 6 10 -3 8 -11 9 -7 4 14 -6 24 -4 28 8 23 12 -4 14 0 11 14 -3 10
-12 19 -20 19 -8 0 -11 5 -7 12 4 7 3 8 -5 4 -6 -4 -9 -11 -6 -16 3 -4 -2 -13
-10 -20 -16 -13 -21 -35 -6 -26 5 4 7 -3 4 -14 -6 -22 -23 -38 -23 -21 0 20
-15 11 -33 -20 -16 -29 -15 -57 1 -34 4 6 14 11 22 13 10 1 8 -3 -5 -13 -11
-9 -28 -14 -37 -12 -11 3 -15 0 -11 -9 3 -8 9 -14 15 -14 5 0 6 -5 3 -10 -4
-6 -3 -16 3 -23 16 -21 21 -46 11 -52 -5 -4 -8 -1 -7 7 2 8 -5 12 -20 11 -13
-2 -32 2 -43 8 -19 10 -19 12 -4 29 9 9 15 21 13 26 -4 16 14 58 48 109 55 83
75 106 87 98 7 -4 6 0 -1 10 -12 14 -11 17 11 22 14 4 33 15 43 26 16 18 16
19 -10 19 -15 0 -29 -7 -33 -16 -5 -13 -7 -13 -14 -2 -14 21 -10 36 11 43 11
3 20 11 20 16 0 6 -4 7 -10 4 -5 -3 -10 -3 -10 0 0 3 13 12 29 18 28 12 24 13
-50 14 -47 1 -79 -2 -79 -8 0 -6 -22 -9 -52 -7 -42 2 -52 6 -50 19 3 20 -41
51 -61 44 -7 -3 -22 3 -32 15 -21 23 -41 26 -48 8 -2 -7 -14 11 -27 40 -14 34
-28 52 -40 52 -23 0 -38 36 -56 142 -9 50 -22 98 -31 106 -10 11 -48 18 -124
23 -105 8 -169 25 -159 42 3 5 -6 15 -20 22 -21 11 -30 11 -59 -1 -18 -8 -40
-14 -48 -14 -8 0 -29 -12 -46 -26 -27 -23 -38 -26 -82 -21 -63 6 -105 -1 -105
-19 0 -9 -11 -14 -29 -14 -16 0 -31 -5 -33 -11 -2 -6 -23 -14 -47 -19 -34 -6
-54 -4 -88 11 -54 23 -123 26 -123 5 0 -21 -44 -66 -64 -66 -9 0 -16 -5 -16
-12 0 -6 -9 -22 -21 -34 -17 -19 -33 -63 -56 -164 -3 -14 -28 -46 -54 -73 -40
-38 -49 -53 -49 -82 0 -19 5 -35 10 -35 6 0 10 -18 10 -40 0 -22 4 -40 9 -40
16 0 -31 -80 -61 -106 -16 -12 -28 -28 -28 -33 0 -12 -87 -101 -98 -101 -8 -1
-82 -68 -82 -75 0 -3 9 -5 20 -5 20 0 26 -11 13 -24 -8 -8 -9 -13 -12 -41 0
-8 -5 -15 -11 -15 -20 0 -110 -62 -110 -76 0 -8 -13 -23 -30 -32 -16 -9 -30
-23 -30 -29 0 -7 -12 -13 -27 -13 -25 -1 -91 -29 -70 -30 5 0 -4 -11 -20 -24
-21 -18 -36 -23 -57 -19 -26 5 -27 4 -16 -16 6 -12 18 -25 26 -28 17 -6 19
-23 1 -23 -7 0 -18 9 -25 21 -9 13 -20 19 -32 16 -10 -3 -21 1 -24 9 -3 7 -12
11 -21 8 -20 -8 -19 -21 3 -27 9 -3 -1 -5 -22 -6 -24 -1 -43 5 -50 14 -9 12
-31 20 -67 24 -4 1 -10 8 -13 17 -3 8 -2 13 2 11 4 -2 29 -14 56 -26 45 -21
51 -21 62 -7 6 9 16 16 23 16 6 0 11 7 11 15 0 8 -5 15 -11 15 -5 0 -8 4 -5 9
4 5 -17 21 -46 35 -61 30 -65 31 -65 11 0 -8 9 -15 19 -15 10 0 21 -7 24 -15
4 -8 13 -15 22 -15 12 0 13 -3 4 -12 -9 -9 -16 -7 -32 7 -16 14 -23 16 -29 7
-5 -9 -11 -5 -21 13 -7 14 -18 25 -23 25 -5 0 -4 -7 4 -16 8 -10 9 -18 2 -22
-5 -4 -9 -16 -7 -26 1 -11 -5 -25 -14 -32 -15 -11 -13 -12 11 -8 18 3 26 1 22
-6 -3 -5 -1 -11 4 -11 6 -1 16 -3 21 -4 6 -1 14 -3 19 -4 16 -2 0 -39 -20 -44
-10 -3 -17 -1 -14 4 6 9 -16 49 -27 49 -4 0 -10 -9 -13 -20 -4 -11 -15 -20
-27 -20 -14 0 -18 -5 -14 -15 7 -19 -43 -21 -64 -2 -7 6 -3 -3 9 -20 26 -38
16 -69 -25 -79 -19 -5 -22 -9 -12 -15 10 -7 10 -9 -2 -9 -8 0 -21 -4 -29 -9
-12 -8 -12 -12 2 -26 10 -9 17 -14 17 -10 0 3 9 1 19 -5 28 -15 81 -2 81 20 0
10 -7 20 -15 24 -8 3 -15 10 -15 16 0 5 7 10 15 10 8 0 15 -5 15 -11 0 -6 7
-8 16 -5 12 5 15 2 10 -9 -3 -9 0 -25 6 -35 10 -15 10 -22 0 -32 -9 -9 -12 -9
-12 0 0 7 -4 12 -10 12 -19 0 -10 -29 12 -41 16 -9 23 -9 26 0 2 6 10 11 18
11 21 0 17 14 -11 40 -30 28 -30 32 -6 47 16 10 22 9 33 -4 11 -15 11 -16 -5
-10 -13 5 -17 3 -13 -5 3 -7 9 -20 12 -30 6 -17 33 -28 72 -28 13 0 22 -6 22
-15 0 -10 -9 -14 -30 -11 -23 3 -30 -1 -30 -13 0 -25 -70 -22 -91 3 -15 18
-16 18 -36 -8 -17 -21 -27 -25 -47 -20 -17 4 -26 2 -26 -6 0 -7 7 -10 14 -7
10 4 13 1 10 -8 -7 -17 -40 -29 -54 -20 -5 3 -10 17 -10 31 0 25 -7 29 -28 15
-11 -6 -10 -10 4 -15 15 -6 16 -9 5 -15 -10 -7 -9 -10 8 -16 23 -7 28 -29 9
-41 -7 -4 -8 -3 -4 4 9 16 -7 15 -22 0 -18 -18 -15 -28 6 -21 15 6 15 5 4 -10
-8 -9 -22 -19 -33 -22 -11 -4 -16 -11 -13 -17 3 -5 -8 -24 -26 -41 -28 -28
-30 -32 -15 -43 12 -9 13 -13 3 -17 -7 -2 -22 3 -32 12 -11 9 -17 11 -13 5 4
-6 -3 -20 -16 -30 -12 -10 -16 -12 -9 -4 14 17 16 34 2 25 -5 -3 -10 -1 -10 4
0 6 -9 11 -20 11 -11 0 -20 -6 -20 -14 0 -8 -3 -21 -6 -30 -4 -10 6 -21 32
-34 37 -19 37 -19 15 -31 -12 -7 -29 -10 -37 -7 -8 3 -14 1 -14 -4 0 -5 -13
-5 -30 0 -30 9 -35 4 -31 -27 2 -16 -15 -17 -25 -1 -4 6 -2 14 4 16 7 2 12 11
12 19 0 11 7 14 25 9 28 -7 75 2 75 14 0 4 -13 13 -28 19 -25 10 -28 16 -24
44 l5 31 -27 -17 c-14 -10 -26 -13 -26 -7 0 5 -9 10 -20 10 -23 0 -28 -38 -7
-59 10 -11 5 -13 -30 -8 -47 6 -50 2 -27 -31 14 -21 14 -22 -10 -22 -14 0 -26
-5 -26 -11 0 -7 10 -9 25 -5 16 4 25 2 25 -5 0 -6 7 -8 15 -5 9 3 18 -1 22
-10 7 -18 -5 -33 -15 -17 -5 8 -18 7 -44 -4 -34 -13 -38 -19 -38 -50 0 -34
-29 -72 -56 -73 -5 0 -53 47 -105 104 -112 124 -141 141 -39 24 48 -56 67 -85
60 -92 -5 -5 -10 -17 -10 -26 1 -12 4 -11 16 5 15 19 16 19 54 -25 21 -25 36
-47 34 -49 -2 -3 -10 1 -16 7 -7 7 -20 12 -29 12 -9 0 -16 7 -15 16 1 21 -14
27 -34 13 -12 -8 -12 -12 -2 -16 10 -4 10 -8 0 -20 -11 -14 -10 -15 9 -9 16 5
25 2 33 -14 8 -15 17 -19 33 -15 20 5 21 5 3 -6 -15 -9 -16 -13 -5 -20 19 -12
59 -11 59 1 0 5 -8 14 -17 19 -10 6 -13 11 -6 11 12 0 63 -49 63 -60 0 -3 -5
-12 -10 -20 -8 -12 -10 -11 -10 8 0 12 -5 22 -11 22 -6 0 -9 -9 -6 -20 3 -11
1 -20 -4 -20 -5 0 -9 9 -9 20 0 11 -4 20 -8 20 -15 0 -30 -23 -25 -37 5 -13 1
-12 -21 2 -20 13 -26 24 -22 39 7 28 -3 42 -37 55 -15 6 -27 17 -26 23 3 26
-2 53 -11 68 -9 13 -14 11 -33 -10 -17 -19 -31 -25 -62 -24 -40 2 -65 -9 -65
-28 0 -6 10 -8 22 -5 28 8 50 -20 37 -45 -10 -18 -39 -25 -39 -9 0 10 -58 36
-66 29 -13 -14 12 -37 54 -49 l47 -13 -35 -7 c-28 -6 -37 -4 -48 12 -21 31
-45 24 -40 -11 3 -16 1 -30 -4 -30 -5 0 -7 -9 -3 -19 4 -15 -1 -23 -22 -33
-23 -11 -29 -20 -31 -56 -3 -39 -5 -42 -25 -36 -29 8 -30 10 -22 24 5 8 11 5
21 -7 12 -17 13 -17 14 0 0 9 -9 26 -20 37 -18 18 -18 20 -2 20 9 0 23 9 30
20 7 11 18 20 25 20 19 0 21 74 2 90 -17 15 -19 7 -5 -21 8 -15 7 -19 -5 -19
-8 0 -15 8 -15 18 0 26 -11 34 -27 21 -17 -15 -17 -49 1 -49 17 0 30 -30 13
-30 -19 -1 -75 -50 -57 -50 12 -1 11 -3 -2 -11 -25 -14 -22 -51 4 -74 l22 -19
-43 -14 c-31 -10 -39 -17 -30 -23 19 -12 59 -11 59 1 0 6 5 10 12 10 8 0 6 -6
-4 -16 -13 -13 -14 -21 -5 -41 9 -19 8 -26 -4 -34 -14 -9 -26 -8 -64 6 l-20 8
20 -16 c25 -20 9 -21 -25 -2 -16 9 -55 14 -106 15 -83 0 -128 13 -172 48 l-24
18 69 45 c37 25 102 69 144 97 42 29 81 52 87 52 6 0 29 22 51 49 31 37 51 51
85 60 24 6 63 27 87 47 63 51 67 56 44 49 -11 -4 10 23 46 59 37 36 62 66 57
66 -5 0 -40 -29 -76 -65 -102 -98 -202 -163 -186 -121 3 9 9 16 13 16 4 0 7 9
8 20 1 13 -2 18 -9 14 -7 -4 -8 -2 -4 4 4 6 12 9 19 7 11 -5 77 80 77 99 0 4
14 25 30 46 22 28 48 45 98 64 37 14 73 26 80 26 6 0 12 5 12 10 0 13 -1 13
-43 -5 -50 -21 -66 -19 -60 5 3 11 9 20 14 20 5 0 9 6 9 13 0 27 59 85 94 91
20 4 38 11 41 16 4 6 -5 6 -21 0 -34 -13 -41 -7 -17 18 10 10 31 36 46 56 15
20 36 36 46 36 9 0 26 7 37 16 18 14 18 15 -6 8 -14 -4 -31 -9 -37 -11 -21 -8
-16 -1 47 66 33 35 60 69 60 75 0 6 -17 -8 -38 -32 -39 -45 -52 -52 -52 -26 0
15 -22 44 -34 44 -3 0 4 -16 16 -36 l21 -35 -25 -27 c-13 -15 -33 -40 -43 -57
l-18 -30 -15 53 c-13 47 -13 54 2 71 9 9 16 21 16 26 0 5 -9 -1 -21 -13 -11
-12 -23 -20 -27 -18 -4 3 -26 -11 -47 -31 l-40 -35 38 27 c48 34 60 25 22 -15
-42 -44 -62 -40 -70 14 -10 67 -5 79 42 91 55 13 65 25 15 18 -27 -4 -42 -1
-47 8 -5 8 -5 11 0 7 9 -9 86 51 123 95 13 15 48 44 78 63 30 20 52 39 49 42
-2 3 -13 -2 -23 -11 -35 -32 -33 -17 4 28 20 25 32 45 28 45 -5 0 -31 -27 -59
-60 -27 -32 -51 -55 -53 -49 -2 5 -8 9 -14 9 -6 0 -8 -7 -4 -15 5 -15 -48 -85
-65 -85 -5 0 -9 11 -9 24 0 14 -5 28 -11 31 -7 5 -8 -4 -4 -27 5 -27 2 -37
-17 -54 -13 -12 -36 -36 -51 -53 -16 -17 -33 -29 -38 -25 -5 3 -8 -5 -6 -17 4
-41 -20 -30 -29 13 l-8 43 -4 -62 c-3 -63 -15 -81 -27 -42 -4 11 -9 18 -12 16
-2 -3 1 -15 7 -27 11 -20 6 -28 -51 -86 -35 -35 -69 -64 -77 -64 -21 0 -44
-28 -46 -55 0 -13 -3 -23 -6 -23 -20 1 -29 -4 -33 -20 -2 -9 -3 -4 -2 11 3 49
-13 39 -20 -12 -4 -27 -15 -57 -25 -66 -16 -14 -114 -55 -133 -55 -4 0 8 29
28 63 19 35 35 71 35 80 0 9 15 21 35 28 19 7 35 17 35 21 0 4 -12 3 -26 -3
-15 -5 -28 -8 -30 -6 -2 2 7 26 19 53 13 27 33 70 45 97 12 26 26 47 32 47 12
0 14 -67 1 -74 -4 -3 -6 -17 -3 -31 3 -17 -2 -33 -14 -47 -19 -21 -19 -21 2
-10 12 6 23 10 25 8 2 -2 5 20 6 50 2 31 7 64 13 74 5 10 10 77 10 149 0 129
0 131 23 131 21 0 22 -3 19 -82 -3 -65 1 -94 16 -133 17 -43 18 -55 7 -85 -6
-19 -17 -51 -23 -70 -12 -34 -12 -34 6 -15 11 11 31 59 45 106 29 93 34 134
10 79 l-16 -35 -18 40 c-18 41 -24 109 -13 164 l7 31 73 -1 74 -1 0 -31 c0
-17 -8 -36 -18 -43 -9 -7 -12 -14 -6 -14 18 0 32 22 36 55 2 25 7 30 28 29 14
-1 48 -3 75 -5 123 -8 226 112 225 260 -2 139 -91 243 -209 242 -89 -1 -696
-18 -699 -19 -2 -1 0 -7 3 -12 4 -6 1 -17 -5 -25 -9 -11 -9 -15 -1 -15 6 0 11
-5 11 -11 0 -6 -8 -9 -19 -6 -25 6 -51 -10 -51 -33 0 -21 -39 -37 -65 -26 -18
7 -20 43 -2 49 7 2 8 8 3 13 -5 5 -11 3 -14 -5 -11 -32 -82 -74 -82 -48 0 6
-7 19 -17 29 -18 20 -4 25 15 6 9 -9 12 -9 12 0 0 7 7 12 16 12 8 0 12 -4 9
-10 -3 -6 1 -7 9 -4 9 3 16 9 16 13 0 12 81 74 87 67 4 -3 -4 -18 -18 -32 -17
-18 -19 -23 -6 -18 9 3 17 10 17 15 0 5 7 9 15 9 13 0 14 -4 5 -22 -9 -20 -9
-21 2 -7 7 8 22 21 33 28 19 11 19 12 -2 6 -30 -8 -30 13 0 24 13 6 -42 8
-140 6 l-162 -4 -6 65 c-5 40 -15 74 -27 90 -19 23 -25 25 -99 23 -44 -1 -82
-6 -85 -10 -3 -5 -11 -9 -17 -9 -9 0 -9 2 0 8 10 6 6 57 -18 233 -16 123 -36
268 -43 321 -7 54 -15 101 -19 104 -8 9 -232 -27 -317 -51 -64 -18 -160 -35
-201 -35 -19 -1 -63 -8 -99 -16 -36 -8 -162 -30 -280 -49 -217 -34 -272 -43
-545 -89 -82 -14 -185 -26 -227 -26 -47 0 -87 -6 -105 -14 -15 -8 -80 -22
-143 -31 -63 -9 -149 -23 -191 -31 -42 -8 -88 -14 -103 -14 -15 0 -25 -4 -22
-8 2 -4 0 -14 -5 -22 -8 -13 -10 -13 -18 0 -5 8 -7 18 -5 22 3 4 0 8 -7 8 -25
0 4 15 49 26 l47 11 -50 -2 c-27 -1 -50 -4 -50 -5 0 -1 -33 -3 -73 -5 -41 -1
-79 -8 -85 -14 -9 -10 -6 -11 16 -6 31 8 39 9 87 7 73 -4 10 -21 -115 -32 -71
-7 -165 -15 -207 -19 -45 -4 -79 -3 -81 3 -2 5 -11 4 -22 -2 -32 -17 -321 -52
-432 -51 -56 0 -111 -2 -122 -6 -12 -4 -21 -2 -21 4 0 6 -5 11 -11 11 -5 0 -8
-4 -5 -9 7 -11 -206 -22 -524 -27 -146 -2 -267 -4 -270 -5 -8 -1 -96 -1 -254
2 -116 1 -150 -1 -156 -12 -5 -7 -12 -10 -16 -6 -8 7 16 28 51 46 19 9 322 61
356 61 9 0 22 -11 29 -25 12 -22 20 -25 70 -25 31 0 61 5 68 12 8 8 15 9 22 2
8 -8 43 -5 117 7 58 10 122 20 142 23 149 20 168 25 131 36 l-25 8 25 1 c14 1
42 6 63 12 30 8 38 15 34 29 -4 16 5 18 114 21 83 3 122 8 131 18 11 11 -5 12
-102 6 -226 -13 -210 -14 -199 7 7 14 6 18 -5 18 -8 0 -18 -9 -21 -20 -7 -21
-14 -22 -54 -11 -22 6 -27 16 -37 76 -7 39 -13 107 -13 151 -1 60 -5 85 -16
94 -10 9 -15 31 -15 72 0 33 -5 68 -10 78 -7 14 -7 25 1 38 7 11 9 27 6 36 -6
15 -9 15 -28 -3 -19 -18 -20 -22 -8 -37 11 -13 11 -18 2 -21 -9 -3 -13 -33
-13 -102 0 -54 3 -100 6 -104 10 -9 11 -87 2 -81 -4 3 -8 -8 -8 -25 0 -16 4
-32 8 -35 10 -6 9 -25 -2 -73 -7 -29 -12 -33 -54 -38 -26 -3 -63 -10 -82 -15
l-35 -8 30 -2 c17 -1 39 -5 50 -10 17 -6 13 -9 -20 -15 -22 -4 -78 -16 -125
-25 -47 -10 -92 -15 -99 -12 -18 7 -11 9 62 17 62 7 78 25 22 25 -28 0 -35 4
-35 19 0 11 -10 22 -22 26 -19 6 -20 8 -6 12 18 5 34 40 24 51 -4 3 -44 14
-89 23 -45 10 -102 25 -126 34 -24 9 -64 18 -88 22 -38 5 -48 3 -62 -14 -21
-26 -159 -143 -169 -143 -4 0 -23 14 -42 31 -19 16 -87 70 -150 118 l-116 89
-133 -30 c-74 -16 -140 -27 -147 -24 -7 3 -30 36 -50 73 -31 56 -52 80 -116
128 -43 33 -78 62 -78 65 0 3 12 6 27 7 34 2 69 43 84 98 5 22 12 48 15 58 5
16 -16 17 -335 17 l-340 0 -3 -22 c-3 -22 -8 -23 -100 -26 l-98 -3 0 25 c0 16
-6 26 -15 26 -9 0 -15 -9 -15 -25 0 -25 0 -25 -99 -25 l-98 0 5 25 4 25 -201
0 -201 0 18 -45z m572 -151 l0 -117 -61 7 c-34 3 -79 6 -99 6 l-38 0 1 103 1
102 71 6 c38 3 82 6 98 7 l27 2 0 -116z m228 4 l-3 -113 -95 0 -95 0 -3 113
-3 112 101 0 101 0 -3 -112z m4237 -590 c5 4 5 1 1 -6 -6 -11 -11 -11 -23 0
-15 12 -15 11 -2 -9 16 -27 27 -29 36 -7 4 12 9 10 24 -13 13 -19 19 -23 19
-11 0 10 14 21 37 29 36 12 36 11 79 -37 50 -57 90 -124 75 -124 -6 0 -11 4
-11 8 0 4 -14 27 -31 50 -23 31 -35 40 -43 33 -9 -8 -12 -5 -12 12 1 13 -5 22
-14 22 -9 0 -14 8 -12 18 3 18 -6 21 -26 8 -10 -6 -10 -10 3 -21 9 -7 34 -39
57 -71 22 -32 44 -56 49 -54 4 3 10 1 14 -5 3 -6 -1 -13 -9 -16 -24 -9 -19
-24 7 -25 l22 0 -24 -10 c-14 -6 -21 -15 -17 -24 3 -8 1 -17 -5 -21 -6 -4 -6
-11 2 -20 6 -7 9 -21 5 -29 -7 -20 -118 -21 -135 -1 -10 12 -8 13 8 9 12 -3
21 -1 21 6 0 6 -5 11 -11 11 -5 0 -16 15 -24 34 -11 25 -22 35 -45 40 -19 3
-29 10 -25 16 5 8 11 7 21 -1 20 -16 18 5 -2 25 -8 9 -19 14 -24 11 -5 -3 -11
1 -13 7 -4 10 -8 10 -15 -1 -15 -21 -32 -3 -32 35 0 19 -4 34 -8 34 -5 0 -14
10 -21 23 -11 20 -11 20 -6 -8 4 -20 3 -27 -3 -20 -17 17 -19 90 -2 80 6 -3
10 2 10 12 0 15 2 16 10 3 8 -13 11 -13 19 -1 5 7 13 11 19 7 6 -3 14 -2 17 4
5 8 11 8 19 1 7 -6 17 -7 21 -3z m-5527 -511 l2 -419 -147 6 c-82 3 -154 5
-160 5 -7 1 -13 8 -13 16 0 8 -4 15 -10 15 -5 0 -7 -7 -4 -15 5 -12 -4 -15
-45 -15 l-51 0 0 415 0 415 213 -2 212 -3 3 -418z m1062 283 l0 -120 -100 0
-100 0 0 120 0 120 100 0 100 0 0 -120z m220 -2 l0 -123 -95 3 -95 3 0 120 0
119 95 0 95 0 0 -122z m1270 -189 c0 -161 -2 -294 -4 -296 -22 -22 -65 80 -44
105 13 15 13 14 -33 30 -43 15 -79 16 -79 2 0 -5 -12 -10 -27 -10 -27 -1 -27
-1 -8 -16 11 -8 20 -18 20 -22 1 -4 7 -18 14 -31 9 -16 10 -26 2 -30 -6 -4
-10 -43 -10 -99 0 -51 -5 -108 -11 -127 -11 -33 -14 -35 -55 -35 -40 0 -43 2
-41 25 1 19 6 25 21 23 14 -2 20 3 21 17 1 11 2 26 3 33 1 6 10 12 20 12 11 0
23 5 26 10 3 6 -4 10 -15 10 -16 0 -20 5 -16 15 3 8 1 15 -4 15 -21 0 -9 20
13 21 16 1 18 2 5 6 -12 3 -18 14 -18 34 0 24 -4 29 -25 29 -16 0 -25 6 -25
16 0 9 5 12 12 8 7 -5 9 -2 5 8 -4 11 2 18 16 23 l22 7 -23 6 c-13 4 -23 10
-23 15 1 4 1 12 1 17 0 6 -32 10 -75 10 l-75 0 0 228 c0 126 3 232 8 236 4 5
96 6 205 3 l198 -5 -1 -293z m-1534 31 l41 0 -1 -135 -1 -135 -97 0 -98 0 0
133 c0 74 3 137 8 141 4 5 30 5 57 2 28 -3 68 -6 91 -6z m264 -131 c0 -74 -4
-128 -9 -125 -5 3 -11 -1 -15 -9 -4 -12 -24 -15 -86 -15 l-80 0 0 140 0 140
95 0 95 0 0 -131z m6884 86 c-4 -8 -9 -15 -13 -15 -10 0 -78 -64 -83 -79 -5
-16 -49 -24 -95 -16 -37 7 -44 24 -13 32 35 9 21 23 -22 22 -24 -1 -35 -3 -26
-6 20 -5 20 -54 0 -61 -6 -2 -12 1 -12 7 0 6 -13 11 -29 11 -17 0 -33 5 -36
10 -4 6 8 10 29 10 33 0 35 2 33 33 -2 32 -1 32 44 33 25 0 52 5 59 9 8 5 11
4 6 -3 -3 -6 -2 -13 4 -17 5 -3 10 -2 10 2 0 5 10 14 21 22 20 12 21 11 15 -4
-5 -14 -3 -15 6 -7 13 10 71 29 95 31 7 1 10 -6 7 -14z m-7114 -385 l0 -120
-95 0 -95 0 0 120 0 120 95 0 95 0 0 -120z m150 0 l0 -120 -55 0 -55 0 0 120
0 120 55 0 55 0 0 -120z m6665 -97 c4 -16 10 -35 15 -44 4 -9 3 -23 -2 -34 -7
-12 -7 -16 0 -11 11 7 22 -15 22 -46 0 -14 -5 -18 -16 -14 -12 4 -15 2 -10 -9
3 -8 2 -15 -3 -15 -4 0 -22 -22 -40 -50 -29 -45 -41 -54 -62 -52 -4 1 -10 -13
-14 -31 l-8 -32 -6 35 c-4 19 -5 53 -4 75 5 62 3 117 -6 155 l-9 35 -2 -35
c-1 -19 -2 -41 -1 -49 3 -20 -23 -8 -33 16 -5 11 -18 26 -29 32 -14 9 -10 0
12 -33 20 -29 29 -51 24 -62 -4 -11 -3 -15 4 -11 6 4 14 0 17 -9 3 -8 2 -12
-4 -9 -6 3 -10 2 -10 -4 0 -5 4 -12 9 -15 5 -3 8 -37 7 -76 -2 -38 1 -70 6
-70 17 0 7 -16 -42 -68 -48 -52 -61 -70 -40 -57 12 7 14 -18 3 -29 -5 -4 -8
-11 -8 -14 -1 -4 -15 -36 -32 -72 -17 -36 -37 -84 -45 -107 -7 -24 -16 -43
-20 -43 -5 0 -8 -8 -9 -17 0 -14 -3 -12 -9 5 -13 32 -17 122 -6 152 8 22 7 24
-8 11 -14 -12 -16 -12 -10 3 3 9 10 16 14 16 8 0 22 38 34 91 3 14 22 48 43
75 21 27 45 62 54 79 8 16 25 47 38 67 20 33 20 36 4 31 -10 -2 -29 -29 -43
-59 -31 -68 -80 -144 -80 -124 0 8 11 71 24 140 14 69 27 150 29 180 3 36 13
68 28 92 l24 37 97 1 98 0 5 -27z m283 -37 c3 -63 -6 -67 -32 -12 -15 31 -18
33 -40 23 -13 -6 -21 -17 -19 -24 4 -10 9 -9 18 4 8 10 15 16 17 13 47 -67 68
-103 82 -139 15 -39 15 -45 1 -61 -8 -9 -15 -20 -15 -25 0 -5 -6 -16 -14 -24
-17 -21 -76 -165 -76 -188 0 -22 -17 -50 -25 -42 -3 4 -9 26 -14 50 -5 24 -9
36 -10 25 -1 -15 -4 -16 -15 -7 -10 8 -8 0 5 -26 25 -49 24 -72 -6 -124 -14
-26 -25 -60 -25 -82 0 -50 -16 -39 -34 23 -10 35 -12 59 -6 82 6 17 8 34 5 36
-3 3 -8 -9 -11 -26 -7 -34 -23 -44 -25 -14 0 11 -2 12 -6 4 -3 -7 0 -19 6 -26
6 -7 18 -38 27 -67 9 -30 21 -60 26 -66 10 -12 5 -83 -9 -128 -6 -18 -7 -18
-14 5 -4 14 -5 1 -2 -30 3 -38 0 -61 -9 -74 -13 -17 -16 -14 -36 39 -17 44
-22 80 -23 163 -2 102 -2 104 -9 42 -4 -36 -6 -76 -3 -90 3 -19 1 -22 -7 -14
-7 7 -16 36 -21 65 l-8 54 4 -58 c2 -32 8 -64 14 -70 15 -19 71 -178 71 -203
0 -14 -16 -36 -41 -58 l-41 -35 -37 23 c-73 46 -161 86 -190 86 -16 0 -33 5
-37 11 -5 9 2 10 22 5 l29 -6 -27 15 c-33 19 -33 19 -9 53 55 79 104 215 103
292 0 26 27 80 40 80 4 0 8 6 8 14 0 7 18 34 40 59 22 25 40 49 40 54 0 20 51
76 87 95 43 23 75 49 69 56 -3 2 -20 -8 -39 -22 -56 -43 -55 -30 3 29 41 42
49 54 33 52 -13 0 -19 -6 -16 -14 3 -7 -2 -13 -10 -13 -9 0 -25 -16 -37 -35
-20 -32 -59 -52 -45 -22 3 6 0 3 -7 -7 -23 -34 -48 -56 -63 -56 -24 0 -18 14
23 55 20 21 31 35 25 31 -7 -4 -13 -2 -13 3 0 6 5 11 11 11 6 0 9 6 6 14 -3 8
2 20 11 28 15 12 16 11 3 -4 -9 -13 -10 -18 -2 -18 7 0 9 -5 5 -11 -5 -8 -1
-8 14 0 11 6 25 25 32 43 7 18 14 28 17 21 2 -7 -1 -21 -7 -32 -6 -12 -8 -21
-5 -21 2 0 13 17 22 37 19 38 49 60 36 26 -10 -28 41 37 60 76 l17 34 -22 -19
c-13 -10 -38 -34 -56 -51 -18 -18 -39 -33 -47 -33 -20 0 -19 6 7 29 12 11 22
31 23 43 1 13 7 23 13 23 6 0 18 9 26 21 8 11 42 34 75 50 34 15 61 32 61 37
0 5 6 7 13 5 7 -3 13 -27 15 -62z m346 -301 c17 -25 21 -55 9 -55 -5 -1 -28
-19 -53 -42 -28 -26 -36 -36 -20 -28 14 7 37 24 53 38 l27 26 0 -26 c0 -15 -9
-32 -22 -42 -22 -16 -23 -16 -2 -11 18 5 22 1 26 -23 3 -24 -4 -38 -34 -71
-21 -22 -50 -48 -63 -57 -24 -16 -25 -15 -25 7 -1 22 -2 21 -14 -7 -11 -25
-33 -44 -51 -44 -7 0 17 75 29 90 13 17 -46 -23 -92 -62 -34 -29 -104 -68
-122 -68 -5 0 8 32 29 72 35 65 44 74 83 86 24 8 63 24 88 35 25 11 52 20 60
19 10 -1 11 0 2 4 -6 3 -10 10 -6 15 9 15 -3 10 -40 -15 -29 -19 -82 -36 -131
-41 -5 0 -17 -4 -25 -9 -8 -5 -1 6 16 25 54 60 59 70 45 78 -9 6 -8 11 4 21
13 11 14 10 9 -5 -4 -10 21 9 55 43 44 43 71 62 94 65 17 2 37 5 43 5 7 1 19
-9 28 -23z m3411 -74 c3 -5 0 -13 -6 -17 -8 -4 -9 -3 -5 4 4 7 3 12 -1 12 -5
0 -14 -9 -21 -21 -7 -11 -29 -27 -48 -35 -18 -8 -34 -20 -35 -27 0 -6 -4 -3
-9 8 -7 18 -9 17 -20 -13 -8 -20 -21 -34 -36 -38 -13 -3 -29 -13 -36 -22 -14
-17 -15 -17 35 3 29 12 19 -11 -19 -43 -30 -25 -40 -29 -60 -22 -28 11 -84 2
-84 -13 0 -6 -3 -8 -6 -4 -3 3 -18 1 -33 -5 -14 -6 -35 -12 -46 -13 -11 -2
-29 -7 -40 -11 -11 -4 0 10 25 30 25 21 47 43 49 49 4 11 -14 2 -39 -19 -8 -7
-26 -12 -40 -12 -33 -1 -76 -8 -89 -17 -6 -3 -11 -2 -11 4 0 6 12 13 28 17 30
6 40 10 62 22 59 33 101 52 96 44 -3 -5 1 -13 10 -16 20 -7 41 3 25 13 -5 4
16 18 49 33 43 19 57 22 53 11 -3 -8 6 -3 20 11 24 24 42 31 73 27 6 -1 19 8
29 19 10 11 26 20 35 20 9 0 20 4 26 9 8 8 29 15 56 20 4 0 9 -3 13 -8z m-85
-156 c-6 -8 -9 -19 -5 -24 3 -6 0 -9 -7 -6 -7 2 -26 -7 -43 -20 -25 -21 -27
-25 -11 -25 19 0 19 0 0 -21 -25 -28 -81 -56 -129 -64 -22 -4 -51 -14 -64 -23
-14 -8 -34 -16 -45 -17 -12 -1 -24 -3 -28 -4 -5 0 -8 -8 -8 -17 0 -10 -5 -14
-16 -10 -8 3 -13 2 -9 -3 3 -5 -9 -20 -27 -32 -18 -13 -39 -30 -45 -39 -11
-13 -14 -13 -22 -1 -13 20 99 106 162 126 55 16 108 51 104 68 -1 6 16 17 38
25 22 7 67 33 100 57 66 48 73 52 55 30z m-3680 -21 c0 -4 -18 -26 -40 -50
-22 -24 -40 -49 -40 -56 0 -7 9 2 21 21 11 18 22 31 25 29 11 -12 -46 -108
-63 -108 -7 0 -13 -7 -13 -16 0 -8 -12 -32 -26 -52 l-26 -37 7 60 c4 33 8 79
10 103 2 51 9 59 78 88 57 25 67 27 67 18z m160 -232 c0 -15 -82 -103 -107
-116 -18 -8 -63 -37 -100 -64 -38 -27 -90 -62 -118 -78 l-50 -28 42 49 c24 28
61 70 83 95 22 26 40 55 40 69 0 24 0 24 -16 5 -15 -19 -15 -18 -5 2 16 34 41
48 100 59 54 10 131 14 131 7z m369 -160 c-10 -17 -10 -23 0 -36 15 -17 36
-22 26 -6 -9 14 8 13 23 -2 7 -7 8 -17 2 -28 -8 -15 -5 -17 21 -14 17 2 35 6
40 9 16 11 9 -7 -8 -21 -17 -13 -17 -14 2 -8 19 5 19 5 2 -6 -14 -9 -21 -9
-32 0 -8 6 -19 9 -24 6 -5 -4 -12 -2 -16 4 -6 9 -45 15 -45 6 0 -17 15 -36 29
-37 11 0 9 -4 -7 -12 -18 -8 -25 -8 -32 3 -5 7 -28 15 -52 16 -24 2 -46 3 -50
3 -5 1 -8 9 -7 19 0 10 3 12 6 5 2 -7 16 -13 30 -13 20 0 24 4 18 18 -13 31
-11 47 7 44 22 -3 33 15 19 32 -7 8 -22 11 -39 8 -15 -2 -25 -2 -22 1 3 3 28
9 55 12 28 4 52 11 54 17 1 5 5 7 8 5 2 -3 -1 -14 -8 -25z m2911 -240 c0 -13
-40 -52 -54 -52 -20 0 -60 -51 -47 -60 13 -7 -29 -30 -57 -30 -10 0 -27 -7
-39 -15 -12 -8 -28 -12 -36 -9 -14 5 -64 -33 -55 -41 2 -1 25 0 51 5 32 5 53
14 63 28 8 12 24 22 34 22 10 0 21 4 24 9 3 5 15 11 26 14 11 3 17 1 14 -4 -6
-10 -64 -43 -76 -44 -4 0 -16 -10 -28 -22 -11 -13 -26 -23 -32 -23 -5 0 -8 -9
-5 -19 3 -11 -1 -22 -8 -25 -9 -3 -12 2 -10 14 4 22 -14 18 -57 -12 -14 -10
-32 -18 -38 -18 -10 0 -10 -3 -1 -14 9 -11 8 -18 -5 -31 -13 -13 -19 -14 -25
-4 -4 8 -3 19 3 26 8 10 4 13 -16 13 -16 0 -25 4 -21 10 11 18 -9 10 -40 -15
-16 -13 -26 -27 -22 -31 3 -4 13 -1 22 6 9 7 19 10 23 6 10 -11 -30 -37 -47
-31 -8 3 -31 -6 -52 -20 -47 -31 -58 -32 -33 -4 l19 22 -43 -7 c-50 -7 -53 5
-9 37 22 17 29 18 42 7 12 -10 21 -10 47 0 18 7 40 20 48 29 8 9 34 28 58 41
29 16 38 26 30 32 -13 8 -11 9 31 13 14 1 29 9 35 16 16 20 68 55 94 63 12 4
22 12 22 17 0 5 19 18 43 28 23 11 58 33 77 50 36 31 50 37 50 23z m-8812 -32
l-23 -19 22 -1 c16 0 21 -5 18 -20 -3 -13 2 -20 12 -20 9 0 14 3 10 6 -9 9 19
34 37 34 8 0 17 -4 20 -9 4 -5 -4 -7 -16 -4 -18 5 -20 3 -11 -7 9 -10 25 -10
82 0 39 7 68 17 65 21 -2 4 10 6 28 4 18 -3 65 -8 103 -11 39 -4 62 -9 52 -12
-26 -5 -14 -28 13 -24 19 2 21 0 11 -12 -18 -21 -95 -45 -113 -35 -17 9 -58 1
-58 -12 0 -5 -9 -9 -19 -9 -20 0 -34 -14 -38 -39 -1 -8 -5 -17 -10 -20 -4 -3
-9 -12 -10 -18 -2 -9 13 -12 60 -8 44 3 54 2 32 -4 -16 -5 -24 -9 -17 -10 6 0
12 -4 12 -8 0 -5 -33 -7 -72 -6 -40 1 -67 0 -60 -3 17 -8 15 -24 -2 -24 -8 0
-21 -6 -28 -13 -22 -23 -55 -37 -84 -37 -15 0 -25 -2 -22 -5 6 -6 43 -12 141
-21 37 -4 70 -10 73 -15 2 -4 -17 -11 -43 -15 -32 -5 -48 -3 -51 5 -4 13 -48
15 -56 2 -10 -15 -56 -10 -56 6 0 11 -7 14 -25 9 -14 -3 -37 -9 -51 -12 -17
-5 -29 -2 -35 7 -7 11 -14 11 -44 0 -29 -10 -39 -10 -51 0 -13 10 -17 10 -25
-2 -6 -10 -9 -10 -9 -1 0 6 -9 12 -20 12 -11 0 -20 5 -20 10 0 6 5 10 11 10 5
0 8 4 4 9 -9 16 12 22 27 8 33 -33 68 -28 43 6 -15 21 -65 33 -65 16 0 -14
-71 -8 -87 8 -7 6 -13 18 -13 26 0 19 -25 29 -55 21 -17 -4 -24 -12 -22 -27 1
-13 -5 -23 -15 -25 -12 -2 -18 3 -19 15 -1 15 -2 15 -6 2 -6 -25 -81 -34 -104
-13 -10 9 -24 14 -31 11 -8 -3 -5 -6 6 -6 24 -1 12 -14 -15 -16 -13 -1 -18 3
-15 12 3 7 1 13 -4 13 -6 0 -10 -6 -10 -12 -1 -14 -24 21 -25 37 -1 10 15 25
27 25 4 0 5 -7 2 -15 -7 -18 0 -19 27 -5 13 7 19 7 19 1 0 -6 13 -17 30 -26
26 -13 29 -14 24 0 -4 8 -10 15 -16 15 -5 0 -6 5 -2 11 4 8 9 7 15 -2 7 -12
12 -12 31 0 12 7 50 16 85 19 43 3 63 9 63 18 0 7 8 18 18 23 16 10 16 10 0
11 -10 0 -18 5 -18 10 0 6 7 10 15 10 8 0 15 5 15 10 0 6 8 10 19 10 10 0 24
7 31 15 7 8 20 15 29 16 10 0 12 2 3 6 -6 2 -9 9 -6 15 3 5 -1 15 -10 21 -15
11 -13 14 14 30 24 14 31 15 35 5 3 -8 24 -13 57 -13 46 0 53 3 58 23 5 23 5
23 20 2 8 -11 21 -20 30 -19 10 0 11 2 3 6 -25 10 4 38 41 40 l37 2 -23 -19z
m8270 -37 c-9 -10 -14 -22 -12 -28 2 -5 -26 -30 -63 -55 -36 -24 -61 -46 -55
-48 6 -2 29 9 51 24 23 15 49 27 59 28 30 3 106 27 120 38 8 7 12 7 12 -1 0
-6 -4 -11 -8 -11 -5 0 -27 -16 -50 -36 -23 -19 -51 -37 -63 -39 -42 -8 -33
-18 11 -12 l44 6 -29 -19 c-17 -10 -43 -22 -59 -26 -27 -6 -28 -6 -16 16 6 12
8 26 3 31 -10 10 -75 -20 -67 -32 3 -5 -2 -6 -11 -3 -11 5 -18 0 -22 -15 -3
-12 -16 -24 -32 -28 -14 -3 -39 -12 -56 -21 l-30 -15 23 25 23 25 -25 -4 c-15
-3 -26 -1 -26 4 0 18 108 107 180 148 13 8 13 7 1 -8 -10 -12 -10 -17 -1 -17
16 0 61 36 54 43 -11 11 18 47 38 47 19 0 20 -2 6 -17z m942 -78 c11 -13 8
-15 -14 -15 -26 0 -36 -22 -16 -35 18 -11 11 -21 -22 -30 -40 -13 -47 -32 -14
-41 14 -3 26 -10 26 -14 0 -5 14 -11 30 -15 48 -10 24 -28 -27 -20 -32 5 -43
3 -38 -4 3 -6 10 -9 14 -6 5 2 25 -5 47 -15 21 -11 44 -20 51 -20 7 0 13 -7
13 -15 0 -10 -11 -15 -35 -15 -19 0 -34 -3 -34 -7 4 -22 -3 -24 -20 -9 -11 10
-25 16 -32 14 -8 -3 -4 -12 11 -26 13 -12 19 -22 13 -22 -6 0 -21 11 -34 24
-26 26 -112 46 -123 28 -3 -6 -15 -8 -25 -5 -19 5 -19 5 1 25 23 23 76 27 89
7 4 -8 36 -15 76 -17 49 -3 65 -1 57 7 -5 6 -35 13 -65 15 -68 5 -70 6 -39 16
23 8 23 8 -8 9 -26 1 -33 5 -30 19 3 13 12 16 37 14 24 -3 32 0 29 10 -3 7
-19 14 -36 16 -19 2 -36 11 -42 22 -12 22 0 33 33 29 24 -4 47 7 47 22 0 6 -8
5 -21 -1 -29 -16 -62 -5 -76 25 -10 22 -9 26 10 30 86 18 152 18 167 0z m-183
-92 l24 -32 -29 -30 c-35 -37 -41 -38 -78 -6 -33 28 -42 30 -79 13 -36 -16
-31 -25 15 -24 21 1 39 -3 39 -9 0 -5 -8 -9 -18 -7 -11 2 -20 -5 -24 -17 -4
-15 -10 -18 -28 -14 -21 6 -22 5 -11 -10 12 -14 8 -19 -30 -36 -23 -12 -61
-23 -82 -26 l-39 -4 33 29 c25 22 39 28 60 23 27 -5 49 10 31 22 -6 3 -8 12
-4 20 5 14 -14 21 -41 16 -6 -1 -24 -5 -40 -7 l-31 -5 24 20 c13 12 33 21 45
21 11 1 39 8 61 16 22 9 48 16 57 16 11 -1 15 5 11 14 -3 9 9 20 38 33 56 25
66 23 96 -16z m-9945 -52 c-10 -6 -8 -10 10 -14 32 -9 108 -9 108 1 0 8 49 13
69 6 10 -3 11 -7 1 -19 -6 -8 -9 -19 -5 -25 3 -5 2 -10 -4 -10 -18 0 -23 21
-9 37 12 15 11 15 -9 5 -12 -7 -31 -12 -43 -12 -12 0 -28 -6 -35 -14 -12 -12
-11 -15 11 -20 14 -4 32 -2 40 4 10 9 19 8 36 -5 22 -15 20 -16 -52 -10 -41 3
-87 7 -103 9 -15 2 -30 -1 -33 -5 -3 -5 10 -10 28 -10 18 -1 38 -2 43 -3 6 -1
44 -6 85 -11 61 -7 70 -10 50 -17 -24 -9 -114 -4 -460 26 -80 7 -147 10 -150
6 -3 -3 -33 -5 -67 -4 -35 0 -63 -3 -63 -8 0 -4 10 -8 22 -8 28 0 12 -15 -25
-24 -25 -6 -28 -5 -22 14 8 24 -1 26 -23 3 -16 -16 -17 -16 -20 0 -4 18 -22
24 -22 7 0 -6 -6 -10 -12 -8 -7 1 -35 -3 -63 -10 -27 -7 -63 -16 -80 -21 -35
-8 -87 -7 -132 3 -30 7 -31 9 -17 23 12 12 20 13 37 5 24 -11 66 -11 84 1 6 4
15 3 18 -3 4 -7 11 -7 18 -2 26 21 88 31 212 37 90 4 191 18 325 45 193 37
279 48 252 31z m8153 -85 c97 -5 115 -8 275 -35 73 -12 107 -14 112 -7 5 7 8
7 8 -1 0 -7 11 -13 25 -13 14 0 25 6 25 13 0 8 4 7 10 -3 5 -8 10 -10 10 -4 0
7 13 10 30 8 17 -2 30 1 30 7 0 6 4 8 9 5 5 -4 11 -1 13 5 4 12 62 19 101 12
l27 -5 -34 -19 c-32 -17 -202 -53 -215 -45 -10 6 -191 35 -286 46 -49 5 -152
10 -227 11 -115 2 -141 -1 -163 -15 -15 -10 -29 -15 -33 -12 -3 3 1 6 9 6 11
0 11 2 1 9 -8 5 15 13 65 21 43 7 82 16 87 21 5 4 14 6 20 4 6 -3 52 -7 101
-9z m1703 -73 c-29 -7 -21 -25 10 -22 15 2 42 -3 60 -10 33 -14 68 -8 57 9 -3
5 -15 10 -26 10 -10 0 -19 5 -19 10 0 12 2 12 36 0 20 -8 29 -8 35 2 6 9 19 6
56 -12 50 -25 105 -69 71 -57 -10 3 -42 1 -73 -6 -44 -9 -60 -9 -76 1 -23 15
-41 8 -33 -13 5 -12 0 -14 -24 -9 -17 4 -32 1 -36 -5 -4 -6 -18 -11 -32 -11
-29 0 -33 -26 -4 -35 11 -3 20 -11 20 -16 0 -12 -37 -12 -45 1 -4 6 -11 8 -16
5 -24 -15 -5 36 21 56 32 25 40 59 15 59 -8 0 -15 5 -15 10 0 6 -7 10 -15 10
-8 0 -15 4 -15 9 0 10 24 19 50 19 10 0 9 -2 -2 -5z m-9574 -28 c-16 -25 -12
-46 9 -41 7 1 9 1 5 -1 -20 -12 -4 -23 32 -23 39 0 40 -1 42 -37 1 -38 1 -38
7 7 5 37 10 46 29 48 23 3 32 -21 12 -33 -12 -8 -13 -45 -1 -45 5 0 14 14 20
30 9 26 14 30 36 24 15 -4 31 -1 40 6 10 9 15 9 15 1 0 -6 5 -11 10 -11 6 0
10 7 10 15 0 8 12 17 28 20 15 4 46 10 69 16 51 11 53 11 53 0 0 -5 -18 -11
-39 -15 -53 -8 -101 -37 -101 -60 0 -14 4 -16 18 -10 9 4 40 9 67 10 28 1 67
5 88 9 37 8 55 -9 20 -18 -15 -4 -15 -5 -2 -6 9 0 22 6 29 14 13 16 40 20 40
7 0 -5 -11 -15 -25 -22 -14 -7 -23 -15 -21 -17 10 -10 71 36 71 53 0 19 37 44
68 44 30 0 9 -19 -28 -26 -19 -3 -35 -10 -35 -14 0 -11 38 -20 42 -10 3 9 29
13 73 11 26 -1 27 -3 12 -12 -9 -5 -22 -7 -28 -4 -5 4 -21 0 -34 -9 -14 -9
-48 -22 -77 -30 -29 -8 -66 -19 -83 -24 -16 -6 -64 -20 -105 -33 -88 -27 -138
-67 -175 -143 l-26 -51 5 40 c2 22 2 32 0 23 -4 -13 -16 -18 -44 -18 -21 0
-40 3 -43 8 -2 4 -3 3 -2 -3 2 -6 -22 -10 -56 -10 -33 0 -59 4 -59 9 0 5 -7 3
-15 -4 -12 -10 -15 -10 -15 2 0 18 -49 13 -63 -6 -6 -7 -7 -4 -3 7 3 11 0 17
-9 17 -8 0 -15 -4 -15 -10 0 -5 -7 -10 -16 -10 -8 0 -12 5 -9 10 3 6 -1 10
-10 10 -8 0 -19 8 -22 18 -7 18 -22 32 -36 32 -5 0 -5 -4 -2 -10 5 -8 -37 -15
-66 -12 -4 1 -5 -8 -2 -18 4 -16 0 -20 -21 -20 -18 0 -24 -4 -20 -15 7 -17 3
-18 -20 -9 -22 8 -20 30 4 54 15 15 16 20 6 20 -8 0 -21 3 -30 6 -9 3 -16 1
-16 -5 0 -6 7 -11 15 -11 13 0 13 -3 3 -20 -9 -13 -15 -16 -20 -7 -5 8 -9 6
-14 -6 -3 -9 -10 -17 -16 -17 -5 0 -6 5 -3 10 10 16 -5 33 -18 22 -8 -6 -38
-6 -81 0 -40 6 -63 14 -56 18 9 5 11 19 7 39 -6 26 -3 33 15 40 19 7 19 8 4
14 -22 9 -36 1 -36 -19 0 -21 -30 -77 -37 -70 -13 12 22 88 49 107 15 11 47
22 71 24 23 2 53 6 67 10 14 4 34 8 45 9 11 1 47 6 79 11 52 7 57 9 42 21 -10
7 -33 11 -54 8 -41 -5 9 11 228 75 74 22 136 40 138 40 1 1 -5 -10 -14 -24z
m1847 -28 c4 -5 13 -6 20 -1 21 12 61 11 66 -3 4 -9 9 -9 24 0 15 9 21 8 34
-8 9 -11 14 -14 10 -7 -8 15 11 16 20 1 4 -6 13 -8 21 -5 7 3 15 2 18 -2 2 -4
37 -9 76 -10 39 -1 80 -7 92 -13 14 -7 72 -9 179 -5 156 6 194 2 183 -15 -7
-12 3 -11 24 0 10 5 152 11 317 14 245 4 276 3 170 -5 -71 -5 -150 -9 -174
-10 -24 0 -38 -4 -31 -8 8 -5 4 -9 -12 -13 -42 -12 -54 -8 -32 9 19 15 19 15
-1 10 -11 -3 -32 -8 -47 -12 -16 -3 -28 -10 -28 -15 0 -5 -8 -9 -17 -9 -9 0
-14 -3 -10 -6 3 -4 20 -2 36 4 21 7 31 8 31 1 0 -6 8 -8 18 -5 10 3 38 0 62
-8 25 -8 37 -14 28 -15 -9 -1 -28 3 -41 8 -29 11 -42 4 -26 -15 7 -8 7 -14 -1
-19 -7 -4 -13 1 -16 11 -4 17 -17 19 -112 21 -101 1 -151 4 -282 18 -30 3 -89
7 -130 9 -110 7 -372 26 -393 29 -10 2 -22 10 -27 17 -7 11 -11 11 -24 1 -13
-11 -50 -10 -208 3 -216 19 -263 25 -254 33 6 6 62 15 86 14 8 0 35 -1 59 -1
24 0 70 -4 102 -10 37 -7 72 -7 99 -1 53 12 58 18 34 36 -17 13 -16 14 16 3
19 -6 38 -16 41 -21z m7654 -105 c-4 -16 0 -19 26 -20 35 -1 44 -6 34 -21 -3
-6 -22 -11 -42 -11 -27 0 -34 -3 -29 -15 3 -9 0 -15 -9 -15 -24 0 -17 -29 12
-56 29 -27 24 -41 -19 -46 -15 -2 -30 -7 -34 -11 -4 -4 -21 -7 -38 -7 -29 1
-30 2 -12 15 10 8 24 16 30 18 17 6 3 16 -33 23 -31 6 -32 6 -25 -20 3 -14 1
-32 -4 -39 -7 -8 -7 -18 -2 -27 16 -25 11 -38 -15 -44 -14 -4 -25 -11 -25 -16
0 -6 -7 -10 -15 -10 -8 0 -15 -5 -15 -12 0 -6 -3 -8 -6 -5 -14 13 -114 -71
-114 -96 0 -7 -7 -3 -16 8 -8 11 -22 29 -31 40 -9 10 -16 32 -16 48 0 22 -4
27 -17 24 -25 -6 -50 11 -50 33 0 13 7 20 20 20 11 0 20 -5 20 -11 0 -5 5 -7
11 -3 8 4 7 9 -2 15 -10 6 -11 9 -1 9 6 0 12 5 12 10 0 6 -7 10 -15 10 -8 0
-15 -4 -15 -9 0 -23 -47 -19 -88 8 -40 26 -42 28 -24 44 25 23 92 50 92 37 0
-5 10 -10 22 -10 20 0 21 -1 3 -20 -18 -20 -17 -20 26 -20 24 0 57 -7 73 -15
33 -17 39 -19 32 -6 -4 5 0 12 6 14 8 3 6 6 -4 6 -31 2 -19 20 17 27 39 7 58
-2 35 -16 -12 -8 -10 -10 8 -10 13 0 20 4 17 10 -3 5 1 20 9 32 21 29 21 52 1
44 -9 -3 -18 1 -21 9 -4 8 -10 13 -14 10 -5 -3 -21 0 -37 6 -50 20 -90 27
-106 18 -9 -6 -18 -5 -22 0 -3 6 10 13 29 17 26 4 47 0 81 -16 36 -18 48 -20
60 -10 8 7 12 17 8 23 -3 5 -1 7 5 3 5 -3 12 -1 14 5 3 9 14 8 41 -1 38 -14
43 -33 19 -63 -15 -18 -2 -30 22 -21 9 3 16 1 16 -5 0 -14 37 -15 45 -1 3 6 1
10 -5 10 -6 0 -8 5 -4 11 3 6 0 16 -7 21 -11 7 -9 8 5 4 11 -4 26 0 37 10 18
16 18 18 1 30 -16 12 -15 13 6 14 21 0 22 1 8 16 -22 21 -20 24 10 24 20 0 24
-4 19 -18z m-7095 -67 c0 -9 -10 -20 -22 -24 -21 -8 -21 -10 -5 -16 23 -9 64
24 45 36 -7 4 -9 11 -5 15 4 4 12 3 19 -4 6 -6 24 -8 39 -5 37 7 36 1 -3 -37
-31 -29 -32 -30 -9 -28 29 4 36 -25 14 -58 -9 -15 -11 -24 -4 -24 16 0 46 50
34 58 -13 9 -9 37 11 66 14 22 81 45 94 32 3 -3 -2 -6 -11 -6 -9 0 -19 -4 -22
-10 -4 -6 1 -7 12 -4 11 4 6 -4 -12 -20 -16 -14 -39 -26 -50 -26 -11 -1 -15
-4 -8 -6 7 -3 9 -12 6 -21 -7 -19 3 -14 57 27 19 15 44 30 55 33 l20 7 -20
-14 c-112 -79 -163 -128 -117 -112 15 5 14 4 -2 -9 -10 -8 -23 -12 -27 -9 -5
3 -9 0 -9 -5 0 -19 -33 -49 -47 -44 -9 4 -11 0 -7 -10 3 -10 -5 -27 -20 -44
-14 -15 -26 -31 -26 -35 0 -4 -12 -19 -27 -33 -23 -21 -25 -27 -13 -35 8 -5
11 -12 7 -17 -5 -4 -12 -2 -16 5 -4 7 -12 12 -17 11 -24 -4 -42 2 -48 17 -5
13 -2 15 14 11 15 -4 20 0 20 13 0 11 5 22 10 25 12 7 14 45 3 44 -16 -1 -47
-18 -35 -18 18 -1 15 -28 -7 -48 -22 -21 -29 -52 -17 -71 9 -15 -18 -51 -30
-40 -11 11 -11 43 0 50 6 5 1 8 -13 8 -14 0 -21 -5 -18 -12 3 -8 -5 -14 -19
-14 -30 -2 -30 3 -1 26 12 10 19 22 15 26 -4 4 -16 1 -25 -7 -16 -13 -17 -12
-4 4 12 15 11 17 -3 17 -9 0 -16 5 -16 10 0 12 10 13 30 0 18 -11 41 6 33 26
-3 8 0 14 6 14 6 0 16 11 21 25 6 15 17 25 29 25 10 0 24 7 31 15 7 8 19 14
28 13 8 -2 17 3 19 10 3 7 -4 12 -16 12 -27 0 -26 6 5 42 14 17 23 37 20 44
-3 8 -2 14 3 14 9 0 8 31 -3 48 -10 16 13 39 52 51 1 1 2 -6 2 -14z m7278
-262 c-2 -13 3 -17 19 -16 15 2 30 -7 45 -27 12 -17 28 -30 36 -30 19 0 9 -24
-12 -28 -9 -2 -25 -1 -34 3 -16 6 -16 7 1 16 30 17 9 29 -48 28 -36 -1 -56 -6
-59 -16 -3 -8 2 -16 12 -19 53 -17 54 -19 22 -31 -25 -9 -30 -9 -30 3 0 12 -8
13 -37 7 -58 -12 -113 -9 -124 8 -14 23 -10 30 15 23 27 -6 106 12 106 26 0 5
9 12 20 15 13 4 20 15 20 31 0 19 5 24 25 24 19 0 25 -5 23 -17z m-3665 -57
c15 -4 25 -11 22 -16 -3 -6 2 -10 12 -11 10 0 41 -3 68 -7 28 -3 87 -5 133 -6
45 0 76 -3 70 -8 -10 -5 -9 -11 4 -25 10 -9 21 -13 25 -9 4 4 1 11 -7 16 -12
8 -11 10 6 10 11 0 29 -10 40 -21 10 -12 51 -46 91 -75 72 -54 105 -86 66 -66
-11 6 -26 18 -33 27 -8 9 -21 13 -34 10 -15 -5 -17 -4 -7 3 11 8 10 12 -7 21
-11 6 -29 8 -39 5 -15 -5 -15 -4 -3 5 13 9 12 12 -5 26 -36 28 -55 37 -55 25
0 -17 -16 -11 -44 17 -23 23 -30 25 -46 15 -11 -6 -26 -9 -35 -6 -18 7 -20 -7
-3 -24 16 -16 2 -15 -25 2 -22 14 -192 56 -226 56 -23 0 -71 23 -71 34 0 4 13
6 29 4 23 -3 28 -1 23 11 -5 13 -3 14 9 5 8 -6 27 -14 42 -18z m1397 -203 c0
-18 5 -33 10 -33 6 0 10 -7 10 -16 0 -8 5 -25 12 -37 12 -22 17 -36 22 -72 11
-62 29 -103 45 -98 13 4 13 3 2 -5 -12 -8 -11 -20 2 -78 39 -168 41 -185 26
-195 -9 -5 -10 -9 -2 -9 12 0 12 -37 0 -57 -4 -6 -1 -13 5 -16 14 -5 -34 -27
-58 -27 -12 0 -13 4 -3 22 9 17 9 20 -3 15 -11 -4 -15 1 -14 16 1 15 8 22 20
22 11 0 21 6 24 14 3 9 -2 11 -17 6 -15 -4 -19 -3 -16 7 3 7 1 34 -4 60 -9 53
-4 66 15 40 9 -13 9 -19 1 -25 -9 -6 -9 -10 -1 -13 7 -3 10 -14 7 -24 -3 -12
0 -20 7 -20 15 0 6 117 -14 178 -9 26 -26 21 -19 -7 3 -10 0 -21 -5 -25 -6 -3
-9 10 -9 33 1 28 4 37 14 34 7 -3 13 2 13 11 0 10 -6 13 -15 10 -10 -4 -15 0
-15 11 0 9 4 14 8 11 4 -2 7 5 7 17 -2 26 -22 77 -30 77 -4 0 -3 -4 0 -10 3
-5 1 -10 -4 -10 -14 0 -14 13 -1 26 6 6 5 15 -1 24 -8 11 -12 12 -15 3 -7 -17
-34 -4 -34 16 0 13 2 14 9 2 8 -12 11 -12 23 0 12 11 12 20 3 43 -7 16 -14 24
-16 18 -2 -7 -5 14 -6 45 -2 31 -5 66 -8 78 -5 16 -3 15 9 -5 9 -14 15 -40 16
-57z m2263 -1242 c-4 -15 2 -14 39 5 29 15 30 15 24 -1 -5 -14 -2 -16 11 -10
10 4 29 10 43 12 23 4 23 3 6 -8 -13 -8 -15 -14 -7 -18 6 -4 9 -15 5 -24 -6
-18 -24 -24 -24 -9 0 5 -21 6 -46 2 -41 -6 -45 -5 -41 11 4 16 2 17 -14 8 -10
-5 -19 -16 -19 -23 0 -24 -50 -34 -120 -25 -35 5 -69 14 -74 19 -6 6 -20 10
-32 10 -39 0 -35 17 7 34 53 22 135 33 125 18 -9 -15 12 -26 28 -13 7 6 16 8
19 4 4 -3 7 -1 7 5 0 6 -10 12 -22 15 -13 2 2 3 32 2 35 -2 54 -7 53 -14z
m-10627 -963 c5 -8 0 -9 -14 -6 -12 4 -25 2 -28 -3 -3 -5 16 -9 41 -9 70 0 45
-16 -37 -24 -40 -4 -84 -15 -97 -23 -18 -11 -26 -13 -29 -5 -5 16 -67 15 -128
-2 -27 -7 -62 -14 -77 -15 -16 0 -36 -5 -45 -10 -10 -6 17 -8 77 -5 61 3 90 1
86 -6 -3 -5 -21 -10 -38 -10 -18 0 -68 -7 -112 -15 -88 -16 -190 -19 -145 -5
14 4 52 9 85 11 l60 2 -60 7 c-33 4 -52 7 -42 8 9 1 17 8 17 15 0 9 3 8 9 -2
7 -10 13 -11 27 -2 18 10 18 10 -1 12 -11 0 8 7 43 16 34 8 60 19 57 24 -4 5
-2 9 3 9 5 0 24 3 42 7 25 4 31 3 26 -6 -6 -9 12 -11 75 -6 46 3 86 9 89 13 5
7 44 27 70 35 26 9 39 7 46 -5z m1120 -185 c19 -7 18 -23 -1 -23 -9 0 -28 -9
-43 -19 -15 -10 -51 -22 -81 -25 -30 -3 -59 -10 -65 -16 -5 -5 -22 -10 -37
-10 -14 0 -46 -7 -69 -15 -51 -18 -92 -19 -108 -3 -10 10 -19 8 -41 -5 -16 -9
-51 -19 -78 -22 -35 -4 -42 -3 -28 4 17 8 15 10 -15 10 -19 0 -55 -4 -80 -9
-25 -4 -47 -6 -49 -4 -12 12 80 34 184 44 66 6 130 13 142 16 28 7 30 24 3 24
-11 0 -20 -4 -20 -10 0 -18 -49 -11 -70 10 -20 20 -20 20 6 26 27 7 66 3 155
-17 32 -7 64 -9 75 -4 16 7 13 9 -16 15 -64 11 -70 24 -15 31 66 7 233 9 251
2z m299 -33 c-3 -5 -16 -10 -28 -10 -14 0 -18 -3 -11 -10 8 -8 19 -8 38 0 15
5 35 10 44 9 14 0 14 -2 2 -6 -8 -3 -24 -16 -36 -29 -17 -20 -40 -28 -127 -44
-128 -23 -331 -35 -322 -19 4 6 19 8 34 5 19 -5 22 -4 11 4 -19 12 -15 13 98
15 56 1 97 6 104 13 7 7 27 12 44 12 22 0 38 7 51 23 10 13 27 28 38 35 25 14
68 16 60 2z m341 -1 c3 -6 1 -15 -6 -19 -17 -11 7 -25 40 -23 15 1 18 0 7 -3
-30 -9 -8 -24 35 -24 33 0 38 -3 29 -14 -18 -22 -101 -6 -101 20 0 8 -10 14
-25 14 -14 0 -25 -4 -25 -10 0 -5 7 -10 15 -10 8 0 15 -4 15 -9 0 -5 10 -12
23 -16 14 -4 18 -8 9 -12 -8 -3 -19 0 -25 6 -6 6 -22 11 -36 11 l-24 0 22 -19
c16 -14 18 -21 9 -24 -7 -3 -2 -6 11 -6 24 -1 24 -1 5 -22 -43 -48 -176 -84
-189 -51 -4 10 -14 13 -36 8 -34 -6 -143 3 -134 12 3 3 18 7 33 9 74 7 164 22
169 27 4 3 -11 6 -33 7 -38 1 -38 1 24 21 34 12 62 25 62 29 0 14 -20 11 -78
-11 -58 -22 -102 -26 -102 -9 0 6 9 13 20 16 24 6 27 23 4 23 -8 0 -13 4 -10
9 3 4 43 11 88 15 99 8 130 15 122 27 -3 5 2 9 11 9 8 0 18 7 21 15 7 17 40
20 50 4z m-2536 -49 c-14 -4 -48 -8 -77 -9 -28 -1 -54 -5 -57 -10 -3 -5 -29
-12 -58 -15 -54 -7 -87 -20 -77 -31 4 -3 18 -1 33 5 15 5 45 10 66 10 21 0 41
4 44 9 3 5 45 8 93 8 49 0 99 3 113 8 18 5 22 4 15 -4 -6 -6 -67 -18 -135 -27
-69 -8 -133 -19 -142 -24 -10 -6 -24 -7 -33 -4 -8 3 -15 2 -15 -3 0 -5 -15 -9
-32 -9 -53 0 -199 -14 -243 -24 -22 -4 -87 -11 -145 -15 -58 -4 -129 -13 -158
-22 -29 -8 -58 -13 -65 -10 -6 2 7 7 30 11 59 10 69 30 12 22 -34 -5 -40 -4
-26 4 9 6 81 15 160 20 78 4 158 13 177 19 19 6 50 8 69 5 23 -5 32 -3 27 4
-7 12 75 28 99 19 8 -4 17 -2 20 3 6 10 115 47 176 59 58 12 164 12 129 1z
m1595 -67 c-11 -3 -24 -10 -30 -15 -7 -8 -6 -9 3 -4 7 4 25 5 41 1 22 -5 28
-10 24 -26 -3 -10 -10 -19 -15 -19 -5 0 -7 -4 -3 -9 7 -12 -57 -25 -84 -18
-11 3 -22 -1 -24 -8 -3 -7 -33 -14 -74 -18 -37 -3 -89 -9 -116 -13 -41 -6 -47
-5 -41 10 8 22 -30 22 -82 0 -22 -9 -67 -18 -102 -19 -54 -2 -60 -1 -45 11 16
11 13 12 -22 7 -22 -3 -50 -10 -62 -14 -25 -9 -31 -29 -10 -30 6 0 3 -4 -8 -9
-24 -11 -41 -12 -32 -3 4 3 -1 12 -11 19 -16 12 -15 13 6 14 13 0 20 4 17 10
-3 6 3 10 15 10 12 0 19 3 17 8 -3 4 43 8 101 10 84 2 121 7 172 27 36 13 56
25 45 26 -11 1 3 5 30 10 28 5 56 7 62 4 7 -2 12 1 10 8 -1 8 21 12 74 13 42
1 84 6 95 12 10 6 30 11 44 11 20 -1 21 -2 5 -6z m1835 -14 c0 -8 5 -7 15 1
17 14 31 8 20 -9 -3 -6 -21 -11 -38 -11 -24 0 -28 -3 -17 -10 29 -19 83 -11
111 16 24 23 31 25 56 16 28 -10 28 -10 -11 -11 -56 -1 -41 -8 34 -15 36 -4
79 -10 95 -14 l30 -9 -30 -16 c-25 -13 -26 -16 -9 -17 11 0 25 5 31 11 16 16
44 4 37 -15 -9 -24 5 -39 23 -25 12 10 16 10 23 -1 6 -9 22 -11 62 -7 58 7
101 0 92 -15 -4 -5 -51 -8 -110 -7 -57 1 -107 0 -111 -4 -3 -4 -17 -7 -30 -7
-16 0 -23 -6 -23 -20 0 -23 -21 -26 -49 -8 -18 11 -18 13 -3 25 15 11 14 14
-12 38 l-29 25 26 0 c27 0 32 7 22 32 -7 19 -75 11 -75 -8 0 -8 -8 -14 -17
-14 -10 -1 -2 -8 17 -16 33 -15 34 -16 16 -30 -23 -16 -35 -17 -56 -4 -12 8
-10 10 10 10 22 1 23 2 7 11 -12 7 -28 7 -52 -1 -41 -14 -92 -5 -92 15 0 16
24 28 38 19 5 -3 14 -2 20 1 6 4 -1 13 -17 21 -19 10 -31 11 -38 4 -5 -5 -7
-10 -3 -10 4 0 -2 -9 -13 -20 -11 -11 -17 -26 -13 -35 4 -11 -1 -18 -16 -22
-13 -3 -20 -11 -17 -19 3 -8 -6 -15 -25 -19 -38 -8 -51 2 -15 11 14 3 26 10
26 15 0 22 -69 0 -108 -35 l-24 -21 -19 24 c-24 30 -19 38 33 46 48 8 112 34
86 35 -10 0 -17 6 -15 13 1 7 -11 13 -32 15 l-33 3 36 20 c20 10 47 19 60 19
13 0 29 6 36 14 18 22 90 34 90 15z m-602 -39 c-7 -11 -23 -20 -36 -20 -13 0
-20 4 -17 10 3 6 -1 10 -10 10 -9 0 -13 -4 -10 -10 4 -6 -13 -11 -42 -12 -36
-1 -40 -2 -15 -5 17 -2 32 -8 32 -12 0 -11 -81 -22 -108 -14 -12 3 -22 1 -22
-5 0 -6 -8 -8 -17 -6 -10 3 -39 -2 -64 -9 -39 -12 -51 -12 -75 -1 -16 8 -20
12 -8 9 12 -3 31 3 47 15 14 11 36 20 49 19 22 0 22 -1 3 -9 l-20 -9 20 0 c11
0 34 6 50 14 l30 15 -32 -6 c-18 -3 -34 0 -38 6 -10 16 -4 19 51 27 45 6 48 5
35 -10 -11 -15 -11 -17 1 -17 8 0 18 4 24 9 12 12 89 29 142 30 40 1 41 0 30
-19z m8505 -27 c11 -10 -53 -52 -70 -46 -11 4 -12 8 -3 13 20 12 -24 22 -65
14 -19 -3 -35 -12 -35 -19 0 -7 -25 -20 -55 -30 -43 -13 -53 -20 -45 -30 14
-17 -21 -39 -88 -54 -97 -20 -107 -6 -23 33 26 12 46 26 44 32 -2 6 21 16 52
23 51 12 82 30 53 32 -7 0 5 9 27 20 29 13 63 19 121 19 44 0 84 -3 87 -7z
m-11541 -42 c-26 -22 -28 -31 -7 -31 8 0 15 -6 15 -13 0 -8 -25 -17 -67 -24
-37 -7 -69 -16 -71 -22 -2 -5 -10 -7 -18 -4 -13 5 -13 7 -2 15 8 6 1 7 -22 3
-57 -10 -175 -23 -178 -20 -13 12 64 39 184 67 76 18 141 36 142 40 2 4 13 8
24 8 21 0 21 0 0 -19z m10137 -1 c22 -5 18 -9 -40 -39 -35 -18 -54 -30 -41
-27 18 3 22 1 18 -11 -3 -8 -6 -18 -6 -22 0 -4 -12 -14 -27 -23 -29 -16 -113
-22 -113 -7 0 4 -9 11 -21 14 -36 12 -2 36 45 33 33 -2 41 1 44 15 3 15 0 18
-17 12 -12 -4 -21 -2 -21 4 0 6 8 11 18 11 10 0 22 4 28 9 5 5 18 11 29 14 16
4 15 5 -6 6 -39 2 -128 -28 -149 -49 -11 -11 -32 -22 -47 -26 -52 -11 -59 -14
-45 -23 8 -5 -2 -12 -29 -20 -24 -7 -53 -20 -66 -28 -13 -9 -26 -13 -29 -10
-3 3 -27 -1 -52 -9 -56 -17 -55 -16 -47 -4 4 6 -7 8 -27 4 -30 -5 -31 -4 -15
9 25 20 1 28 -33 10 -30 -15 -104 -18 -80 -3 8 5 26 10 41 10 14 0 30 5 35 10
8 8 112 40 130 40 14 0 -12 -23 -38 -34 -24 -11 -27 -15 -15 -24 11 -10 19 -7
38 11 13 13 62 39 109 56 47 18 94 38 105 46 11 7 39 16 62 20 23 3 64 15 90
25 47 18 106 18 172 0z m744 0 c-13 -5 -23 -12 -23 -14 0 -5 59 -1 138 9 42 5
41 -10 -2 -25 -19 -6 -40 -18 -46 -26 -7 -7 -27 -15 -44 -15 l-31 -1 30 -7
c35 -7 26 -16 -27 -25 -43 -8 -91 2 -82 16 5 7 -14 9 -54 6 -49 -3 -59 -2 -51
8 6 7 25 18 42 24 18 5 54 21 81 35 27 14 59 25 70 24 20 0 20 -1 -1 -9z
m-7579 -44 c-3 -9 3 -17 15 -21 14 -4 20 -14 19 -30 -2 -24 -33 -41 -44 -24
-3 5 -16 9 -30 9 -13 0 -24 5 -24 10 0 6 -8 10 -18 10 -10 0 -19 -7 -19 -15 0
-11 11 -15 41 -15 48 0 40 -12 -24 -35 -69 -25 -134 -37 -138 -25 -2 5 -14 10
-27 10 -26 0 -29 25 -4 41 12 7 11 9 -3 9 -9 0 -23 -7 -32 -15 -8 -8 -22 -15
-31 -15 -9 0 -13 -4 -10 -10 3 -5 15 -10 25 -10 12 0 17 -5 14 -14 -6 -16 21
-30 53 -27 11 1 24 -3 28 -8 4 -7 -4 -11 -20 -11 -14 0 -24 -4 -20 -10 3 -5
12 -7 19 -4 8 3 17 1 20 -5 7 -10 -8 -16 -67 -27 -20 -3 -54 -15 -74 -25 -21
-11 -45 -19 -54 -19 -9 0 -22 -7 -29 -15 -7 -8 -20 -15 -29 -15 -22 1 25 38
59 47 23 6 23 7 5 15 -15 6 -14 7 8 3 19 -4 27 -1 27 9 0 15 -71 33 -89 22 -5
-3 -24 0 -42 8 l-32 14 44 4 c24 3 55 1 69 -5 34 -12 120 -17 120 -6 0 5 -9 9
-21 9 -11 0 -17 4 -14 10 4 6 -8 10 -29 10 -20 0 -36 4 -36 9 0 12 61 61 77
61 7 0 13 6 13 13 0 7 15 18 33 25 39 14 70 16 63 3 -3 -5 13 -3 36 4 23 6 44
17 46 23 5 15 37 15 63 2 16 -9 21 -7 29 15 5 14 16 25 24 25 9 0 13 -6 10
-14z m-1214 -26 c0 -4 -10 -12 -22 -18 l-23 -11 25 -1 c48 -4 95 2 107 12 8 7
22 7 40 0 16 -5 54 -7 86 -4 38 3 57 1 57 -7 0 -7 8 -8 26 -1 14 6 35 10 47 9
42 -1 -68 -29 -116 -29 -44 0 -198 -42 -223 -61 -5 -5 -19 -6 -31 -3 -11 3
-24 1 -27 -4 -3 -6 -15 -8 -27 -5 -12 3 -24 1 -28 -5 -5 -8 -17 -9 -37 -4 -16
5 -40 6 -54 2 -13 -3 -58 -2 -99 2 -41 5 -80 6 -86 4 -5 -2 3 -5 18 -5 16 -1
35 -8 43 -16 14 -13 12 -15 -18 -15 -18 1 -54 -2 -79 -5 -33 -4 -50 -1 -58 9
-9 11 -8 15 4 20 11 4 14 2 9 -6 -5 -8 -2 -9 10 -5 10 4 25 7 34 8 11 0 8 4
-8 10 -24 10 -24 11 -6 25 11 8 31 14 45 14 14 0 34 7 44 15 18 13 17 14 -5
18 -13 3 3 2 35 -1 50 -4 57 -3 51 12 -4 12 0 16 15 16 12 0 34 6 49 14 15 7
56 14 91 14 35 1 66 3 69 6 3 4 -8 6 -24 6 -20 0 -25 3 -15 9 14 9 81 -7 81
-19z m1590 5 c-10 -12 -10 -15 1 -15 21 0 36 -13 43 -38 7 -21 5 -22 -31 -19
-21 3 -29 2 -18 0 37 -9 34 -18 -7 -20 -22 -2 -48 1 -57 6 -10 6 -23 6 -31 1
-10 -6 -6 -10 16 -15 46 -11 51 -13 24 -14 -19 -1 -22 -3 -10 -11 8 -5 12 -11
9 -14 -15 -16 -199 -2 -199 15 0 5 -12 9 -27 9 l-28 1 25 15 25 15 -34 -5
c-18 -3 -45 -6 -58 -6 -18 0 -24 -4 -20 -14 6 -15 -20 -29 -43 -24 -18 4 -23
-19 -6 -25 8 -3 26 3 39 14 29 22 45 23 70 5 15 -12 16 -14 2 -20 -8 -3 -21
-4 -27 -2 -7 1 -10 1 -5 -1 15 -9 6 -25 -10 -18 -24 10 -96 6 -107 -6 -6 -5 0
-9 16 -9 15 0 30 -4 33 -10 3 -6 1 -10 -4 -10 -6 0 -11 -7 -11 -15 0 -8 9 -15
20 -15 11 0 20 4 20 9 0 5 25 12 55 16 57 7 76 25 28 25 -20 0 -24 3 -14 9 19
12 79 -8 77 -27 -1 -11 16 -20 58 -30 l59 -15 -24 -18 c-20 -16 -42 -19 -132
-18 -86 1 -109 4 -114 16 -4 11 -15 13 -39 9 -37 -8 -56 10 -31 29 15 11 15
14 -3 33 -16 17 -17 22 -5 32 12 10 12 14 -1 27 -8 9 -12 19 -7 23 13 12 110
40 138 40 15 0 24 4 20 10 -4 6 8 10 29 10 27 0 34 3 30 15 -4 8 -1 15 6 15 6
0 18 6 26 14 10 11 23 12 46 6 81 -20 96 -20 101 0 5 20 27 28 27 10 0 -15 26
-12 40 5 7 8 17 15 22 15 6 0 5 -7 -2 -15z m7338 -90 l84 -8 -37 -33 c-58 -51
-93 -64 -141 -54 -32 7 -57 5 -110 -10 -81 -24 -85 -24 -81 -7 1 8 -13 13 -42
14 -24 1 -45 4 -48 6 -6 6 128 37 160 37 13 0 32 7 43 15 18 15 16 15 -26 13
-58 -3 -170 11 -170 23 0 4 43 8 96 8 53 0 98 1 99 3 5 5 82 1 173 -7z m-1124
-9 c-7 -18 30 -27 79 -19 41 6 50 -8 15 -25 -22 -10 -22 -11 -3 -12 13 -1 5
-7 -20 -15 l-40 -13 50 -1 c28 0 68 6 90 14 48 18 52 18 39 5 -22 -22 -165
-49 -257 -48 -51 1 -81 3 -67 5 35 5 142 45 136 50 -2 3 -30 -3 -61 -12 -32
-9 -59 -14 -62 -12 -2 3 6 8 19 12 13 4 30 13 38 20 8 7 26 15 40 18 20 3 18
5 -10 6 -55 2 -71 18 -29 29 47 14 49 14 43 -2z"/>
<path d="M6993 7129 c-41 -20 -62 -49 -25 -34 35 15 52 17 52 7 0 -19 -28 -32
-61 -30 -30 3 -33 0 -40 -32 -4 -19 -9 -70 -11 -113 l-3 -79 -53 -4 c-60 -5
-88 12 -79 47 3 12 2 32 -4 46 -8 20 -14 23 -41 18 -18 -3 -49 -7 -68 -9 -95
-11 -304 -48 -319 -55 -21 -12 -55 -50 -50 -56 3 -2 17 7 32 21 15 14 32 22
39 18 6 -4 8 -3 5 3 -4 6 4 8 21 5 24 -5 24 -6 7 -13 -17 -6 -17 -8 -2 -8 34
-2 16 -19 -25 -26 -62 -10 -108 -27 -108 -41 0 -9 25 -11 93 -9 116 5 52 -9
-95 -21 -54 -4 -98 -11 -98 -15 0 -16 129 -14 325 7 189 19 263 32 296 51 24
14 32 14 61 3 18 -8 36 -19 40 -24 14 -20 245 -7 413 24 28 5 66 12 85 15 19
3 37 11 41 17 4 7 8 5 12 -3 3 -11 7 -11 17 -2 10 9 10 15 -2 27 -9 8 -19 41
-23 72 -8 64 -21 105 -37 115 -14 9 -91 -2 -99 -14 -7 -10 -2 -66 11 -129 7
-35 7 -36 -23 -35 -29 2 -31 5 -57 93 -35 117 -55 150 -102 169 -51 20 -75 19
-125 -6z"/>
<path d="M5240 6868 c-19 -5 -51 -25 -70 -44 -20 -19 -45 -34 -56 -34 -24 0
-54 -29 -54 -53 0 -12 9 -17 30 -17 20 0 30 -5 30 -15 0 -14 -13 -18 -55 -16
-12 0 -8 -4 12 -12 18 -6 38 -19 45 -27 11 -13 11 -13 -1 -2 -20 16 -76 14
-256 -8 -82 -11 -175 -22 -205 -26 -30 -3 -57 -8 -59 -10 -11 -10 14 -18 50
-17 47 2 50 -19 3 -24 -55 -6 -74 -13 -74 -28 0 -19 21 -30 30 -16 11 19 71
25 81 9 5 -7 9 -16 9 -20 0 -13 -28 -9 -33 5 -4 9 -8 9 -15 -2 -8 -11 -11 -10
-15 5 -4 16 -5 17 -6 2 -1 -19 -3 -19 -58 -22 -18 -1 -36 -6 -40 -10 -5 -4 34
-6 85 -5 85 4 93 2 99 -16 4 -11 7 -24 8 -29 0 -12 34 -17 40 -5 3 5 1 18 -5
30 -7 11 -10 22 -8 24 2 2 83 13 181 25 99 12 185 24 193 27 8 3 14 1 14 -5 0
-5 -28 -13 -62 -16 -91 -11 -120 -18 -111 -27 4 -4 40 -4 78 1 86 11 119 5
112 -21 -7 -25 7 -24 25 2 11 17 27 23 73 26 85 6 384 51 420 63 22 7 4 8 -70
4 -54 -3 -104 -8 -110 -10 -5 -3 -1 2 9 10 11 9 29 14 40 10 17 -4 18 -3 6 5
-8 6 -10 11 -4 11 5 0 14 -4 20 -8 5 -5 20 -3 34 4 24 13 23 14 -19 14 -40 0
-43 2 -27 13 17 13 16 16 -20 46 -28 22 -46 30 -61 26 -16 -4 -23 -1 -23 9 0
8 15 16 38 20 56 10 73 17 68 25 -3 4 -18 6 -35 3 -24 -3 -31 1 -42 24 -8 16
-27 35 -44 43 -31 14 -40 19 -86 45 -36 21 -68 25 -109 14z m-212 -252 c-39
-14 -163 -35 -236 -40 -23 -2 -46 -7 -50 -11 -4 -5 -2 -5 5 -1 6 3 14 2 17 -3
3 -5 25 -4 52 2 35 8 47 8 53 -2 5 -7 10 -12 12 -10 2 1 15 -2 29 -6 23 -8 22
-9 -15 -16 -22 -4 -41 -3 -43 1 -2 5 -16 4 -33 0 -16 -5 -29 -6 -29 -2 0 3 -5
1 -12 -6 -21 -21 -37 -13 -46 21 -15 54 -4 60 153 76 44 5 103 9 130 9 l50 1
-37 -13z"/>
<path d="M11740 5213 c-8 -3 -22 -12 -31 -20 -9 -8 -27 -14 -40 -15 -37 -1
-82 -20 -68 -28 7 -5 -2 -12 -23 -19 -41 -13 -90 -61 -70 -68 6 -3 9 -9 6 -15
-4 -6 3 -8 17 -6 13 2 23 9 22 16 -3 11 1 14 30 16 6 1 20 11 30 24 11 12 30
22 44 22 33 0 103 21 103 31 0 4 -5 11 -12 15 -7 5 3 13 27 21 49 17 55 10 19
-21 -16 -14 -24 -26 -18 -26 6 0 17 7 25 16 18 22 63 43 85 40 10 -2 13 -1 6
1 -7 3 -10 9 -7 14 9 13 -19 11 -33 -3 -10 -10 -17 -10 -32 0 -20 12 -54 15
-80 5z"/>
<path d="M10985 4951 c-3 -5 -19 -12 -35 -16 -17 -4 -46 -21 -64 -39 -19 -17
-47 -38 -63 -45 -90 -43 -167 -90 -159 -98 3 -4 14 1 24 10 21 19 37 23 26 6
-4 -8 -1 -8 12 -1 34 18 159 104 164 112 3 5 19 13 35 19 l30 11 -23 -18 c-12
-9 -39 -32 -60 -49 -20 -18 -42 -33 -49 -33 -15 0 -23 -13 -29 -46 -4 -23 -3
-24 18 -13 21 11 21 13 4 19 -14 5 -8 12 34 33 62 32 74 34 40 5 l-25 -21 25
8 c27 8 42 24 36 40 -5 13 14 30 36 31 15 1 16 -2 7 -20 -11 -20 -11 -20 7 -3
18 18 18 19 1 32 -18 13 -18 14 5 29 12 8 35 18 51 21 15 4 29 11 32 15 3 4
-10 4 -28 0 -90 -23 -85 -23 -54 -5 15 8 27 18 27 20 0 9 -19 5 -25 -4z"/>
<path d="M12562 4913 c-6 -2 -10 -9 -7 -14 4 -5 0 -6 -8 -4 -7 3 -22 -3 -32
-15 -10 -11 -27 -20 -37 -20 -51 0 -162 -75 -210 -143 l-20 -28 38 7 c22 3 53
12 69 19 29 13 29 13 -18 9 -30 -2 -46 0 -42 6 3 6 15 10 26 10 10 0 19 4 19
10 0 5 12 17 28 25 15 9 19 14 10 11 -12 -3 -15 -1 -11 10 7 18 51 30 64 17 7
-7 5 -15 -5 -25 -15 -15 -12 -28 6 -28 5 0 19 11 31 24 23 24 92 53 162 67 61
11 119 35 123 50 2 9 0 10 -5 4 -4 -6 -19 -10 -33 -9 -14 1 -29 -2 -35 -6 -5
-4 -17 -7 -25 -7 -8 -1 -24 -4 -35 -8 -17 -6 -16 -4 4 13 21 17 21 20 6 25
-19 8 -44 8 -63 0z"/>
<path d="M11385 4840 c-3 -5 -12 -7 -19 -4 -8 3 -29 -2 -46 -11 -18 -9 -48
-18 -68 -20 -35 -3 -87 -46 -74 -61 4 -4 0 -5 -9 -2 -8 3 -26 -3 -40 -13 -20
-16 -22 -20 -9 -28 11 -8 9 -12 -13 -20 -35 -14 -40 -14 -32 -1 9 15 -46 -11
-78 -37 -16 -13 -33 -21 -38 -17 -5 3 -9 0 -9 -5 0 -6 -7 -11 -15 -11 -8 0
-15 -5 -15 -10 0 -6 16 -3 38 6 20 9 46 17 57 18 11 1 26 5 34 10 10 6 16 6
19 -2 2 -6 11 -8 20 -6 10 4 7 -2 -8 -15 -21 -18 -23 -22 -10 -31 21 -14 21
-14 65 28 22 20 60 54 85 73 67 54 112 100 106 107 -3 3 -18 -5 -33 -19 -14
-13 -23 -18 -19 -11 12 21 -6 13 -35 -14 -15 -14 -33 -24 -41 -22 -8 3 1 12
22 23 23 12 30 20 20 23 -8 3 6 10 30 17 25 7 54 16 64 20 15 7 17 5 11 -6 -5
-8 5 -3 21 11 16 14 33 28 39 32 5 5 4 8 -2 8 -7 0 -14 -4 -18 -10z"/>
<path d="M12290 4660 c-101 -53 -174 -82 -178 -71 -2 6 -27 -6 -55 -27 -29
-21 -80 -46 -114 -57 -41 -12 -68 -26 -78 -42 -17 -25 -13 -28 14 -13 10 5 30
11 46 14 15 3 30 8 34 11 3 3 -7 4 -23 1 -16 -3 -25 -1 -20 3 12 11 134 54
139 49 3 -2 -14 -19 -37 -36 -23 -18 -38 -32 -33 -32 5 0 19 9 31 21 22 21
119 56 109 39 -9 -15 12 -12 46 6 17 8 29 20 26 27 -4 14 26 39 71 57 23 9 29
15 21 21 -9 5 -1 14 24 29 20 12 37 24 37 26 0 6 -1 6 -60 -26z"/>
<path d="M548 725 c-2 -2 -35 -9 -73 -14 -39 -6 -106 -17 -150 -25 -44 -8
-127 -17 -184 -20 -57 -3 -107 -8 -110 -11 -10 -11 24 -25 49 -20 14 3 70 10
125 15 55 5 120 13 145 16 l45 6 -30 -17 c-18 -10 -64 -18 -120 -22 -49 -3
-92 -7 -94 -9 -11 -10 149 0 197 12 32 8 69 12 90 8 23 -5 33 -3 29 4 -4 5 10
17 31 26 l37 17 -55 -4 c-59 -5 -37 4 50 20 25 5 40 12 34 15 -6 4 -13 6 -16
3z"/>
<path d="M687 155 c-47 -16 -57 -25 -31 -26 15 -1 13 -3 -6 -9 -14 -4 -34 -8
-45 -8 l-20 -1 20 8 c19 8 19 8 -2 15 -14 4 -31 1 -46 -9 -14 -9 -40 -15 -58
-14 -19 2 -43 -3 -54 -10 -18 -11 -17 -11 10 -6 54 9 61 -11 8 -23 -26 -6 -59
-13 -73 -16 -22 -5 -21 -4 4 8 47 22 8 25 -51 4 -29 -10 -64 -18 -78 -18 -15
0 -24 -4 -20 -9 6 -10 -26 -18 -125 -32 -43 -6 -36 -7 35 -4 112 5 175 14 175
26 0 5 6 9 13 9 6 -1 1 -10 -13 -21 l-25 -21 185 6 c102 3 217 8 255 10 51 4
63 3 45 -4 -19 -7 -11 -9 34 -5 32 2 61 6 64 10 16 15 -27 30 -127 42 -60 7
-119 17 -132 21 l-23 9 21 12 c18 9 30 8 62 -5 33 -13 43 -13 63 -2 22 12 21
13 -22 18 -64 7 -15 18 70 15 91 -3 150 26 77 38 -38 6 -87 -2 -87 -13 0 -7
-21 -7 -60 -1 -3 1 2 6 10 11 23 15 -6 12 -53 -5z"/>
<path d="M2565 70 c-64 -9 -87 -19 -81 -36 4 -10 -2 -14 -19 -14 -13 0 -26 -4
-30 -9 -3 -6 66 -9 177 -9 101 1 170 3 155 5 -27 4 -28 6 -12 23 15 17 15 19
-7 34 -25 18 -48 21 -48 6 0 -5 -9 -10 -19 -10 -11 0 -23 5 -26 10 -7 11 -14
11 -90 0z"/>
</g>
</svg>
