<?xml version="1.0" standalone="no"?>
<!DOCTYPE svg PUBLIC "-//W3C//DTD SVG 20010904//EN"
 "http://www.w3.org/TR/2001/REC-SVG-20010904/DTD/svg10.dtd">
<svg version="1.0" xmlns="http://www.w3.org/2000/svg"
 width="704.000000pt" height="547.000000pt" viewBox="0 0 704.000000 547.000000"
 preserveAspectRatio="xMidYMid meet">

<g transform="translate(0.000000,547.000000) scale(0.100000,-0.100000)"
fill="#000000" stroke="none">
<path d="M3842 5237 c-6 -7 -19 -44 -30 -82 l-19 -70 -41 -3 c-32 -2 -41 1
-46 16 -10 30 -50 42 -145 42 -68 0 -104 -6 -162 -25 -48 -17 -124 -31 -219
-41 -170 -18 -190 -27 -190 -84 0 -48 9 -50 39 -9 l23 31 151 -3 c153 -3 177
0 177 27 0 8 6 14 13 14 7 0 23 11 35 25 20 23 29 25 102 25 74 0 82 -2 113
-30 32 -28 40 -30 116 -30 l81 0 0 45 c0 48 22 114 43 127 21 13 64 9 78 -8 7
-9 16 -43 20 -77 9 -77 25 -91 121 -107 128 -20 234 -57 216 -75 -2 -2 -71 3
-153 11 -159 16 -203 15 -620 -13 -219 -15 -295 -15 -620 -5 -355 11 -1054 47
-1123 58 -50 8 -30 20 45 28 86 9 262 44 282 57 17 10 -252 2 -339 -10 -36 -5
-45 -10 -50 -31 -6 -24 -8 -25 -112 -28 l-106 -3 -11 -63 c-7 -39 -11 -228
-11 -507 1 -467 11 -733 30 -768 7 -14 20 -21 40 -21 17 0 30 -4 30 -8 0 -5
-191 -12 -426 -15 -275 -5 -432 -11 -445 -18 -20 -10 -20 -17 -14 -113 l7
-102 -58 4 c-72 5 -479 -61 -541 -89 -62 -26 -57 -39 21 -51 15 -2 11 -8 -20
-28 -54 -35 -60 -64 -44 -221 13 -124 12 -133 -6 -166 l-19 -36 34 -91 c50
-138 81 -245 81 -282 0 -18 -7 -54 -16 -80 -17 -49 -12 -79 10 -71 22 9 38
-17 119 -183 42 -85 89 -173 104 -195 19 -27 70 -66 153 -118 69 -43 148 -96
176 -118 87 -66 194 -179 211 -220 21 -53 150 -173 365 -340 118 -91 233 -194
363 -322 104 -104 217 -210 249 -235 32 -26 95 -79 140 -117 170 -148 202
-169 296 -192 30 -8 72 -19 93 -24 100 -25 703 55 1029 136 174 44 389 108
452 134 37 17 46 25 46 45 0 29 31 48 114 73 28 8 59 24 69 34 22 24 11 24
-65 3 -32 -9 -61 -14 -65 -10 -3 3 2 33 12 66 l18 60 122 0 c149 0 239 15 725
119 347 75 365 78 374 60 5 -11 17 -19 28 -19 10 0 18 -4 18 -9 0 -5 -61 -24
-135 -42 -74 -18 -132 -35 -130 -37 6 -6 149 27 253 59 51 15 161 38 244 49
234 33 446 78 633 136 124 38 366 125 407 145 21 11 53 21 73 24 81 10 214
115 260 206 65 127 72 359 16 571 -17 64 -31 132 -31 151 0 25 -11 48 -40 84
l-40 51 32 24 32 25 -109 42 c-61 24 -321 114 -580 201 -683 230 -820 283
-919 359 -106 81 -208 119 -457 171 -209 44 -381 89 -406 106 -18 11 -23 24
-24 62 0 26 -6 85 -13 132 -7 47 -12 88 -10 91 2 4 42 12 89 19 79 11 87 14
120 51 19 22 56 82 82 134 26 52 52 96 58 98 5 3 100 -10 210 -28 289 -48 796
-104 765 -85 -20 11 -458 97 -747 146 -192 32 -223 40 -223 55 0 10 -4 21 -10
24 -6 3 -7 -1 -4 -9 7 -17 -3 -19 -90 -16 -67 2 -96 15 -96 41 0 17 4 20 23
16 12 -4 42 -9 67 -12 l45 -5 -55 20 c-82 30 -86 37 -72 113 7 36 12 86 12
113 l-1 49 -15 -28 c-8 -15 -24 -60 -35 -100 l-19 -72 5 70 c10 124 16 156 31
162 22 8 360 -31 654 -76 140 -22 300 -45 355 -51 134 -15 134 -15 103 -48
-38 -40 -57 -85 -77 -175 -12 -56 -22 -82 -32 -82 -26 0 -15 101 20 184 17 41
29 76 26 79 -10 11 -54 -41 -75 -89 -11 -27 -24 -75 -28 -107 -6 -42 -11 -56
-22 -55 -71 10 -508 91 -636 118 -173 37 -213 42 -149 19 137 -51 616 -152
805 -169 41 -4 82 -13 90 -20 12 -11 18 -11 33 0 15 11 16 13 2 19 -10 3 -15
18 -15 43 1 75 83 263 115 263 20 0 19 -2 -10 -61 -37 -72 -49 -147 -35 -215
16 -77 50 -112 117 -123 160 -25 243 48 251 219 l4 85 -41 39 c-47 46 -64 42
-28 -6 33 -43 51 -108 43 -151 -13 -70 -146 -162 -224 -155 -33 3 -40 8 -60
48 -43 84 -18 246 44 287 13 8 50 17 83 20 l60 6 -36 28 c-28 23 -46 29 -83
29 -26 0 -90 9 -141 19 -139 29 -404 69 -605 91 -232 27 -220 23 -228 73 -6
33 -18 53 -60 93 -57 56 -128 88 -215 100 l-51 7 -1 101 c-1 55 -4 141 -8 190
l-6 89 -80 43 c-76 40 -184 77 -267 89 -36 6 -38 8 -54 66 -23 82 -56 109
-134 109 -35 0 -62 -5 -68 -13z m-2244 -301 c22 -8 91 -19 154 -25 144 -14
605 -31 854 -31 105 0 279 -3 388 -7 l197 -6 -7 -30 c-21 -96 -39 -132 -76
-152 -21 -11 -38 -24 -38 -28 0 -5 24 -7 53 -5 l54 3 11 -52 c6 -29 20 -65 32
-81 21 -28 21 -32 10 -188 -11 -158 -45 -504 -57 -577 -4 -28 -10 -37 -22 -35
-34 7 -39 49 -49 458 -6 223 -15 416 -20 430 -10 24 -10 24 -18 5 -17 -39 6
-858 25 -908 7 -17 18 -27 30 -27 41 0 51 -11 51 -56 0 -53 23 -80 74 -89 42
-8 53 -20 58 -60 5 -45 52 -65 155 -65 91 0 86 3 96 -75 4 -28 4 -28 6 5 2 46
11 58 49 66 24 5 33 3 38 -10 6 -16 8 -16 25 0 13 11 26 14 50 9 l31 -7 -5
-132 c-7 -145 7 -124 18 31 8 101 9 103 88 103 37 0 37 0 38 -42 l1 -43 10 48
c19 89 46 51 55 -77 3 -53 10 -96 16 -96 6 0 8 35 4 97 -6 97 2 133 27 133 9
0 17 -24 23 -72 l10 -73 2 65 c0 37 6 71 13 78 10 10 96 18 99 10 0 -2 7 -46
14 -98 l13 -95 1 98 c0 53 5 97 10 97 14 0 19 -22 31 -117 6 -48 13 -89 16
-92 2 -2 4 44 4 102 0 88 3 107 15 107 18 0 19 12 3 28 -10 10 -10 15 2 22 23
14 30 -1 41 -95 5 -49 12 -91 14 -94 3 -2 6 40 6 95 1 80 3 91 10 59 4 -22 11
-90 15 -152 l7 -111 -43 -12 c-120 -32 -612 -112 -832 -135 -81 -8 -216 -15
-300 -15 l-153 0 0 862 c0 475 -4 885 -8 913 -13 71 -23 42 -39 -105 -15 -145
-19 -1516 -4 -1612 l8 -58 -42 0 c-121 0 -411 60 -605 125 -116 40 -319 126
-396 169 -68 39 -82 58 -91 133 -14 117 -63 176 -214 254 l-84 44 0 550 c0
303 -3 574 -6 603 -8 58 -6 59 54 38z m2427 -36 c222 -13 252 -22 273 -84 17
-53 46 -235 39 -242 -4 -4 -93 -10 -199 -15 -106 -4 -196 -8 -200 -9 -12 0
-76 -216 -98 -326 -38 -198 -36 -535 4 -613 9 -17 42 -48 73 -69 l57 -37 145
3 c80 1 142 0 139 -3 -13 -13 -156 -36 -281 -45 -192 -13 -514 11 -533 41 -2
4 8 15 23 24 27 16 27 16 3 10 -55 -12 -110 -17 -110 -10 0 5 27 37 60 71 96
100 169 271 186 434 7 69 -19 437 -37 530 -27 137 -77 210 -196 287 l-58 38
80 3 c113 4 117 3 142 -70 11 -35 40 -112 63 -173 23 -60 54 -159 68 -220 23
-97 26 -131 26 -295 1 -241 -30 -392 -100 -495 -37 -56 -23 -52 20 5 46 60 91
172 105 261 14 83 14 273 0 397 -18 166 -58 304 -151 515 -16 38 -27 72 -23
75 20 21 226 25 480 12z m361 -4 c17 -13 19 -29 21 -153 l2 -138 -18 95 c-10
52 -24 113 -30 135 -20 72 -13 89 25 61z m-1000 -126 c111 -48 161 -290 136
-658 -26 -388 -86 -501 -266 -502 l-59 0 6 88 c3 48 19 166 36 262 44 259 43
256 31 463 -9 157 -15 201 -32 239 -16 36 -19 56 -14 92 l7 46 57 -6 c31 -4
76 -14 98 -24z m1100 -279 c43 -11 109 -22 146 -26 93 -9 102 -17 93 -89 l-8
-59 -81 7 c-44 3 -98 11 -118 16 -29 8 -44 8 -66 -4 -66 -34 -162 -172 -162
-235 0 -48 24 -102 59 -133 37 -33 54 -24 27 14 -23 32 -20 41 8 23 13 -9 43
-19 67 -23 49 -8 68 -39 30 -49 -12 -3 -21 -8 -21 -12 0 -4 41 -22 90 -40 50
-18 92 -37 95 -40 2 -4 -14 -60 -37 -124 l-40 -116 -62 -5 c-33 -3 -141 -13
-238 -23 -170 -16 -180 -16 -238 2 -45 14 -62 24 -65 39 -3 12 -12 55 -19 96
-8 41 -19 86 -25 100 -17 42 -14 -76 4 -143 17 -67 18 -77 6 -77 -12 0 -28 44
-41 115 -6 33 -21 94 -32 135 -15 54 -19 89 -14 127 7 63 76 332 112 444 l27
79 131 1 c72 1 156 4 186 9 88 12 102 11 186 -9z m-16 -209 c0 -22 -21 -230
-25 -249 -7 -29 -31 -30 -46 -2 -17 33 -8 199 14 232 16 25 57 38 57 19z
m-2740 -772 c52 -147 108 -225 205 -280 104 -59 447 -157 700 -199 233 -39
333 -46 660 -45 393 0 551 19 899 105 149 38 183 52 197 82 l11 24 108 -48
c138 -62 236 -90 468 -135 103 -20 189 -37 191 -40 2 -2 -8 -8 -23 -13 -32
-13 -33 -25 -3 -38 14 -7 28 -26 35 -50 7 -22 23 -57 37 -77 39 -57 60 -104
84 -185 12 -40 38 -104 57 -141 42 -83 43 -98 3 -112 l-30 -10 28 -30 c41 -44
142 -116 278 -201 126 -78 264 -151 271 -144 7 7 -85 86 -128 111 -21 11 -38
25 -38 30 0 5 -16 26 -35 47 l-35 39 0 100 c0 55 1 100 3 100 15 0 298 -124
379 -166 l37 -19 -65 -100 c-36 -55 -69 -107 -74 -116 -8 -13 6 -34 60 -95 39
-43 81 -95 95 -114 l24 -35 -38 -135 c-63 -217 -72 -234 -86 -147 -11 74 -44
162 -74 198 -16 19 -32 31 -36 27 -4 -3 10 -54 30 -113 35 -102 37 -112 33
-214 -4 -126 -17 -155 -77 -171 -21 -5 -41 -16 -44 -24 -3 -8 -19 -17 -35 -21
-16 -3 -40 -18 -52 -32 -22 -26 -23 -26 -39 -7 -10 10 -26 24 -36 30 -12 6
-22 26 -25 45 l-5 34 -23 -29 c-12 -16 -27 -46 -33 -67 -8 -24 -19 -39 -33
-43 -43 -10 -546 -106 -686 -131 -80 -14 -185 -28 -235 -32 -49 -3 -107 -12
-129 -20 -60 -20 -93 -17 -112 12 -17 26 -38 32 -49 15 -4 -6 -1 -17 5 -25 10
-12 6 -18 -23 -30 -20 -8 -43 -15 -52 -15 -9 0 -58 -16 -109 -35 -52 -19 -96
-35 -98 -35 -3 0 -3 97 0 215 5 234 -3 315 -44 448 -16 50 -30 77 -39 77 -11
0 -15 12 -15 43 0 23 -3 59 -7 80 -6 36 -4 39 18 35 19 -2 25 -11 32 -45 8
-45 32 -72 47 -57 5 5 14 34 20 64 15 79 -2 143 -47 178 -18 15 -42 46 -53 69
-24 54 -90 102 -205 149 -112 45 -241 113 -320 168 -90 62 -91 63 -74 38 21
-29 128 -123 185 -163 62 -42 134 -69 187 -69 28 0 63 -10 98 -27 55 -28 76
-57 110 -151 6 -18 25 -40 40 -49 62 -37 30 -53 -103 -53 -111 0 -263 -26
-547 -95 -126 -30 -238 -55 -248 -55 -10 1 -35 22 -56 48 -91 114 -131 158
-151 166 -11 5 -65 36 -118 68 -97 57 -406 218 -421 218 -4 0 0 -11 9 -24 23
-37 97 -81 257 -153 78 -36 170 -85 204 -109 60 -43 134 -125 201 -225 l31
-47 68 13 c37 8 120 25 183 39 116 25 425 80 512 90 30 3 50 1 54 -6 6 -9 11
-75 13 -169 1 -17 9 -29 26 -37 61 -28 88 -153 89 -412 0 -184 -2 -202 -31
-329 -26 -107 -38 -140 -60 -164 -36 -38 -141 -87 -269 -125 -296 -88 -953
-190 -1068 -165 -45 10 -61 33 -23 33 13 0 39 11 58 25 103 75 139 90 322 140
50 14 60 21 72 49 17 41 32 53 70 58 23 2 34 12 49 42 16 33 21 80 31 280 13
238 12 242 -9 296 -29 73 -74 140 -203 299 l-108 133 -210 117 c-115 65 -306
168 -423 229 -236 123 -261 140 -262 164 0 9 -15 29 -32 44 -41 34 -251 135
-428 205 -126 50 -139 58 -216 128 -64 59 -111 91 -214 145 -72 39 -162 90
-198 115 -37 24 -100 64 -140 88 -40 24 -121 80 -180 125 -99 75 -228 147
-295 163 -15 4 -27 10 -27 14 0 12 93 55 116 53 40 -3 138 -58 389 -217 479
-304 1090 -663 1320 -775 155 -76 295 -136 280 -121 -5 5 -172 100 -370 211
-444 249 -531 301 -770 460 -364 242 -532 339 -788 456 l-157 72 47 6 c27 3
121 20 210 38 90 17 165 29 168 26 3 -2 -2 -20 -11 -38 -14 -27 -15 -46 -8
-108 l9 -75 125 -77 c69 -42 160 -97 204 -123 l78 -47 207 0 c113 0 277 5 365
10 l159 10 33 -25 c42 -32 86 -50 142 -59 l42 -6 0 104 c0 106 8 129 35 106
11 -9 15 -37 15 -109 l0 -96 -189 -95 c-104 -52 -200 -102 -213 -112 l-23 -18
30 0 c107 0 412 44 531 76 l91 25 184 -95 c249 -129 236 -116 158 -159 -35
-19 -126 -63 -201 -98 -114 -51 -138 -66 -138 -83 0 -46 13 -51 117 -49 160 2
620 76 647 103 14 14 -11 13 -119 -5 -243 -40 -576 -78 -600 -69 -27 11 -16
31 28 49 23 9 98 37 167 60 301 104 480 188 480 226 0 11 -50 1 -134 -28 -38
-12 -71 -23 -72 -23 -1 0 -5 28 -9 63 -12 104 -24 111 -24 15 -1 -59 -5 -88
-12 -88 -7 0 -18 -8 -25 -17 -12 -16 -13 -16 -14 8 0 15 -7 30 -16 33 -14 6
-16 18 -11 81 3 45 2 73 -4 70 -5 -4 -9 -23 -10 -43 -1 -20 -4 -47 -7 -59 l-7
-23 -52 30 c-56 32 -58 38 -65 160 -3 40 -1 45 17 42 11 -2 124 -37 252 -78
157 -51 250 -87 291 -112 112 -70 103 -53 100 -188 -3 -103 -5 -116 -16 -97
-7 13 -16 64 -21 113 -5 50 -11 93 -14 96 -10 10 -19 -97 -12 -148 9 -67 19
-84 58 -108 39 -24 65 -27 47 -5 -7 8 -14 57 -16 117 -4 100 -4 102 12 69 8
-19 18 -65 21 -103 3 -38 12 -73 19 -79 18 -15 44 -4 44 18 0 36 -78 274 -96
294 -47 52 -236 136 -559 249 -256 89 -451 169 -672 275 l-191 93 -174 -9
c-312 -16 -529 -47 -584 -84 -14 -9 -26 -33 -34 -64 -7 -28 -14 -51 -16 -51
-13 0 -301 157 -316 172 -19 19 -24 68 -8 97 20 38 194 91 430 131 69 12 129
25 133 30 12 11 -73 67 -152 101 l-66 28 135 2 c74 1 182 5 240 9 58 4 152 7
209 6 l104 -1 27 -75z m-815 56 c28 -7 68 -21 90 -30 50 -21 168 -87 163 -91
-3 -3 -212 -27 -350 -40 l-68 -7 0 91 0 91 58 0 c31 0 80 -6 107 -14z m843
-488 l-3 -93 -55 -7 c-30 -3 -122 -12 -205 -18 -82 -6 -212 -19 -287 -28
l-137 -18 -5 25 c-5 27 -9 83 -7 113 1 10 14 24 30 33 35 18 498 80 629 84
l43 1 -3 -92z m62 8 c0 -33 -5 -68 -10 -76 -7 -11 -10 -1 -10 35 0 28 -3 68
-7 90 -6 37 -5 39 10 26 13 -10 17 -30 17 -75z m50 -35 c0 -38 -3 -83 -7 -102
-5 -28 -7 -30 -14 -14 -9 24 -11 179 -3 188 16 16 24 -9 24 -72z m-1555 -6
c187 -93 185 -91 197 -206 5 -51 12 -105 14 -118 9 -46 17 -10 18 82 1 105 7
111 71 61 36 -29 36 -30 28 -79 -4 -27 -7 -93 -7 -147 l2 -96 -52 5 c-67 7
-108 -13 -138 -67 -26 -47 -52 -57 -102 -40 -44 14 -77 53 -124 144 -34 67
-36 77 -37 166 0 103 15 178 46 229 16 26 22 30 38 21 11 -5 29 -26 41 -46
l23 -36 -42 -42 -41 -42 1 -109 c1 -111 13 -199 20 -145 1 14 3 76 4 138 2 95
5 117 22 140 10 14 24 27 29 29 11 4 36 -66 52 -142 5 -22 14 -39 20 -37 8 1
12 -13 12 -40 1 -36 2 -40 12 -24 6 12 9 55 6 117 -4 79 -10 108 -32 152 -44
90 -133 156 -175 130 -38 -23 -55 -83 -59 -213 -2 -69 -6 -132 -9 -140 -18
-46 -39 215 -28 345 l7 87 26 -6 c15 -4 85 -36 157 -71z m1606 -12 c1 -43 4
-89 8 -103 6 -21 8 -18 14 24 4 27 7 66 7 87 0 41 10 49 30 24 13 -16 11 -188
-3 -201 -4 -4 -25 1 -47 11 l-40 18 0 86 c0 47 3 96 6 109 13 45 24 20 25 -55z
m185 -113 c6 -23 7 -24 14 -5 4 11 5 32 3 48 -7 35 12 35 91 -1 l60 -28 -55
-23 c-30 -12 -75 -31 -102 -42 l-48 -19 7 68 c7 82 17 110 21 62 2 -19 6 -46
9 -60z m304 -43 l105 -43 3 -93 c3 -105 9 -100 -84 -60 -49 20 -52 25 -63 81
l-9 43 -1 -43 c-1 -50 -19 -62 -56 -38 -23 15 -38 13 -257 -29 -128 -25 -237
-44 -243 -42 -14 5 154 89 289 144 131 53 173 77 181 103 4 11 12 20 18 20 7
-1 59 -20 117 -43z m2962 -34 c112 -72 287 -143 614 -247 344 -109 678 -222
714 -241 l25 -13 -25 -6 c-14 -3 -119 -15 -233 -26 -140 -13 -227 -27 -265
-41 -31 -11 -64 -22 -73 -25 -9 -3 -36 11 -64 35 -65 54 -130 87 -315 161 -85
35 -204 86 -265 115 l-110 52 -47 114 c-58 140 -66 169 -44 169 8 0 48 -21 88
-47z m-4668 -55 c18 -26 15 -32 -13 -23 -12 3 -21 15 -21 26 0 25 15 24 34 -3z
m104 -67 c31 -21 76 -48 100 -60 l42 -21 0 -126 c0 -120 -1 -124 -19 -114 -11
5 -23 15 -26 20 -3 6 -12 10 -19 10 -21 0 -102 -88 -132 -144 -25 -45 -29 -65
-34 -166 -4 -101 -7 -115 -23 -118 -14 -3 -18 1 -14 15 3 10 8 34 11 53 5 29
3 25 -15 -17 -19 -49 -23 -53 -53 -53 -50 0 -111 52 -146 125 -24 50 -26 151
-5 223 19 62 71 133 108 146 35 13 63 -13 107 -96 18 -32 34 -57 37 -55 2 3
-9 37 -26 75 -17 39 -31 82 -31 97 l0 26 23 -27 c43 -50 53 -30 51 97 0 63 -4
122 -9 132 -11 27 10 21 73 -22z m-92 -42 c6 -37 -9 -89 -26 -89 -11 0 -14
122 -3 134 11 11 23 -8 29 -45z m554 -331 c0 -117 12 -184 30 -173 4 2 5 51 2
108 -5 115 2 130 45 102 23 -16 25 -21 19 -64 -19 -130 -19 -137 2 -185 23
-50 44 -65 67 -46 13 10 15 9 15 -11 0 -34 11 -69 21 -69 13 0 11 243 -2 277
-7 19 -12 24 -18 14 -5 -7 -12 -13 -17 -14 -12 -3 -9 -36 7 -74 15 -37 3 -88
-21 -88 -12 0 -16 22 -18 118 -1 64 1 117 5 117 21 0 282 -93 311 -110 l33
-20 -7 -129 c-6 -116 -5 -135 16 -202 12 -41 27 -80 32 -86 17 -21 57 -15 83
12 23 22 25 31 25 125 0 99 6 114 30 85 10 -12 10 -38 1 -122 -13 -130 -14
-223 -2 -223 9 0 23 65 45 223 8 54 17 101 21 105 3 3 45 -7 93 -23 l87 -30 0
-170 c0 -200 2 -218 15 -210 6 4 24 4 40 0 29 -6 30 -8 30 -66 0 -32 -3 -59
-7 -59 -3 0 -15 8 -25 17 -14 13 -12 2 11 -48 63 -133 86 -297 61 -416 -6 -26
-25 -77 -43 -113 -25 -50 -38 -66 -57 -68 -31 -5 -89 12 -168 50 -54 25 -61
32 -51 45 16 19 -5 35 -39 30 -28 -5 -73 39 -103 102 -17 35 -22 65 -22 126
-1 179 84 316 211 341 26 5 32 3 32 -10 0 -9 7 -19 15 -23 39 -14 67 -115 80
-283 9 -126 15 -153 30 -140 21 18 38 135 31 214 -8 85 -32 138 -93 206 -62
69 -123 83 -216 48 -38 -15 -80 -79 -108 -163 -12 -39 -27 -86 -33 -105 -16
-48 -47 -62 -128 -57 -81 5 -120 28 -167 97 -43 63 -81 173 -81 238 0 86 48
177 121 227 46 32 61 29 88 -22 11 -21 20 -32 21 -25 0 22 -30 86 -52 109 -72
77 -183 -48 -205 -229 l-8 -63 -43 -3 c-23 -2 -68 4 -99 13 -46 14 -67 28
-116 78 -52 54 -57 58 -42 27 47 -94 138 -180 192 -180 11 0 40 10 65 23 l45
23 16 -68 c22 -95 58 -168 109 -224 61 -66 113 -88 214 -86 l81 1 21 -68 c26
-80 102 -194 165 -245 75 -61 119 -76 234 -76 56 0 108 -3 117 -6 11 -4 16
-19 16 -43 0 -60 20 -163 40 -208 22 -50 59 -75 134 -92 30 -7 62 -21 72 -32
18 -20 18 -21 -1 -35 -10 -8 -31 -14 -45 -14 -15 0 -62 -9 -106 -20 l-79 -20
-114 77 c-62 43 -144 105 -180 139 -36 33 -95 78 -131 99 -89 54 -212 175
-273 268 -41 62 -66 89 -127 131 -136 96 -202 154 -420 370 -219 217 -328 310
-529 449 -68 48 -116 89 -124 105 -6 15 -28 43 -47 62 -31 29 -47 63 -97 205
-86 242 -81 219 -41 209 18 -5 61 -9 95 -9 l63 1 -6 -52 c-12 -102 32 -266 89
-331 43 -49 82 -63 176 -63 l80 0 52 -94 c59 -108 83 -126 143 -106 19 6 40
17 46 25 22 27 1 35 -69 29 l-67 -7 -38 73 c-38 72 -39 74 -32 154 3 45 9 92
12 106 4 20 2 19 -14 -9 -27 -48 -35 -25 -23 65 17 116 38 139 88 92 29 -27
30 -42 2 -27 -17 9 -23 8 -30 -2 -18 -28 -9 -49 30 -68 38 -20 70 -73 72 -119
0 -14 2 -14 8 3 9 21 5 65 -11 128 -11 46 -82 127 -110 127 -26 0 -18 21 15
40 24 13 28 13 51 -9 14 -14 44 -53 67 -88 23 -35 43 -62 44 -61 2 2 -1 27 -6
56 -6 29 -9 72 -7 95 l4 42 14 -47 c11 -39 16 -45 28 -35 11 9 17 7 28 -8 8
-10 14 -28 14 -39 0 -12 4 -27 9 -35 6 -8 11 5 15 41 4 30 14 67 21 82 20 39
19 75 -5 114 -32 51 -50 42 -50 -25 0 -73 -16 -60 -31 26 -6 34 -18 68 -25 76
-8 7 -14 25 -14 38 0 25 2 24 140 -41 l140 -67 0 -127z m4178 184 c40 -37 42
-42 42 -96 0 -72 -20 -84 -62 -38 -22 26 -28 42 -28 80 0 26 -3 57 -6 70 -9
32 7 27 54 -16z m100 -135 c3 -65 -9 -90 -22 -44 -11 42 -7 119 7 115 7 -3 13
-29 15 -71z m82 7 c16 -40 13 -154 -3 -154 -20 0 -37 45 -44 117 -6 60 -5 63
16 63 14 0 25 -9 31 -26z m-195 -80 c13 -8 31 -27 41 -41 15 -25 14 -24 -30 7
-25 18 -46 37 -46 42 0 12 8 10 35 -8z m1357 -81 c41 -40 44 -50 26 -99 -10
-29 -9 -35 15 -64 29 -34 49 -93 78 -233 23 -111 24 -145 4 -183 -8 -16 -17
-65 -21 -109 l-6 -80 -87 -64 c-47 -35 -110 -74 -139 -88 -30 -13 -70 -37 -90
-53 -112 -89 -668 -240 -1083 -295 -70 -9 -137 -15 -150 -13 -31 5 98 36 206
49 151 19 182 28 237 70 29 21 56 39 61 39 5 0 22 11 39 25 57 48 76 27 31
-34 -25 -34 -24 -34 22 9 50 48 149 189 139 199 -3 3 -11 -1 -17 -10 -7 -9
-27 -38 -45 -64 -18 -26 -35 -45 -38 -42 -8 8 16 60 62 128 51 77 106 193 124
259 20 76 71 200 82 200 19 0 0 -75 -57 -224 -30 -79 -62 -173 -71 -209 -9
-36 -38 -103 -64 -149 -27 -45 -47 -84 -46 -86 6 -5 127 69 162 100 44 39 51
52 81 157 33 119 45 430 19 531 -19 76 -66 181 -102 227 -13 17 -24 36 -24 41
0 17 -13 14 400 81 63 10 137 19 165 20 44 1 53 -3 87 -36z m-4942 -92 c14
-27 8 -283 -7 -288 -6 -2 -16 5 -22 15 -15 29 -41 197 -41 270 l0 63 30 -21
c17 -12 34 -29 40 -39z m4277 -63 c-3 -8 -6 -5 -6 6 -1 11 2 17 5 13 3 -3 4
-12 1 -19z m38 -105 c-10 -65 -34 -143 -45 -143 -13 0 -13 49 0 86 5 16 14 48
20 72 14 56 34 45 25 -15z m-65 -22 c-6 -23 -15 -41 -20 -41 -15 0 -12 24 7
72 21 51 30 29 13 -31z m120 -63 c0 -32 -37 -135 -52 -144 -14 -9 -5 124 12
181 l12 39 14 -24 c7 -14 13 -37 14 -52z m-3783 -92 c45 -25 126 -68 180 -95
115 -58 171 -112 216 -210 16 -36 32 -91 34 -121 5 -51 3 -58 -31 -102 -34
-45 -36 -50 -26 -85 5 -21 22 -58 36 -83 22 -38 27 -61 32 -142 2 -54 8 -98
12 -98 4 0 11 46 16 102 8 95 11 103 34 115 l25 12 6 -207 c3 -114 7 -209 8
-212 13 -24 19 92 20 350 l2 305 29 -35 c16 -19 42 -58 57 -87 l27 -52 -18
-38 c-20 -40 -20 -40 -32 22 -6 39 -7 39 -14 13 -5 -15 -11 -92 -14 -170 -4
-79 -8 -172 -11 -208 l-4 -65 15 45 c8 25 19 99 25 165 6 66 12 122 15 124 24
24 31 -168 10 -304 -12 -82 -19 -103 -36 -115 -12 -8 -43 -34 -69 -57 -44 -40
-55 -44 -157 -63 -73 -14 -132 -33 -177 -56 -38 -19 -76 -34 -86 -34 -9 0 -37
13 -62 28 -103 66 -134 143 -127 316 6 128 22 179 87 275 34 50 40 65 30 72
-21 13 -51 1 -81 -31 -26 -29 -32 -44 -59 -164 -18 -77 -45 -92 -36 -20 4 27
11 90 18 139 14 110 7 216 -20 315 -22 83 -36 219 -24 236 13 17 52 36 63 29
6 -3 10 -41 10 -83 0 -42 4 -83 9 -90 11 -18 19 114 13 214 -5 78 -6 79 -49
118 -29 26 -47 36 -54 29 -5 -5 -13 -50 -16 -99 -5 -71 -8 -83 -15 -59 -4 16
-5 55 -1 85 l6 55 -22 -19 -21 -19 0 92 0 93 73 -40 c39 -22 109 -60 154 -86z
m-121 -152 c-5 -19 -10 -24 -18 -16 -6 6 -8 22 -4 38 5 19 10 24 18 16 6 -6 8
-22 4 -38z m3895 -145 l-9 -34 -1 30 c0 17 2 41 6 55 7 23 8 24 11 4 2 -12 -1
-37 -7 -55z m-3275 -126 l34 -37 0 -103 c0 -85 -3 -105 -16 -110 -28 -11 -41
20 -52 122 -6 55 -14 115 -18 133 -9 43 9 42 52 -5z m3222 -120 c-13 -14 -35
-34 -51 -45 l-27 -19 10 25 c5 14 26 57 47 95 l38 70 3 -51 c3 -41 -1 -55 -20
-75z"/>
<path d="M1916 4663 c-4 -76 -14 -255 -22 -398 -7 -143 -13 -287 -13 -320 l1
-60 8 47 c15 89 29 323 36 596 7 287 1 367 -10 135z"/>
<path d="M1676 4633 c-27 -318 -48 -849 -32 -832 8 9 56 722 56 847 0 87 -16
77 -24 -15z"/>
<path d="M1748 4570 c-4 -74 -10 -241 -13 -370 -4 -129 -8 -246 -11 -260 -4
-17 -2 -22 5 -15 5 6 14 157 21 355 12 354 11 531 -2 290z"/>
<path d="M1832 4660 c-3 -18 -32 -707 -31 -735 1 -14 4 -10 10 10 12 40 31
491 27 630 -2 61 -5 103 -6 95z"/>
<path d="M1593 4295 c0 -211 3 -349 7 -320 10 62 10 443 0 585 -4 68 -7 -24
-7 -265z"/>
<path d="M2913 3925 c0 -360 3 -557 8 -480 9 166 9 768 0 950 -5 83 -8 -108
-8 -470z"/>
<path d="M2272 4318 c-18 -18 -15 -65 6 -73 9 -4 85 -10 169 -13 153 -4 267 3
259 17 -3 4 -74 11 -158 14 -169 8 -223 18 -238 47 -12 23 -21 25 -38 8z"/>
<path d="M2874 4140 c0 -74 1 -105 3 -67 2 37 2 97 0 135 -2 37 -3 6 -3 -68z"/>
<path d="M1712 3770 c0 -14 2 -19 5 -12 2 6 2 18 0 25 -3 6 -5 1 -5 -13z"/>
<path d="M2292 3707 c-12 -13 -22 -35 -22 -50 0 -22 6 -28 38 -36 58 -16 420
-26 406 -12 -6 6 -64 16 -130 22 -152 13 -187 22 -233 64 l-38 35 -21 -23z"/>
<path d="M4113 3305 c0 -38 2 -53 4 -32 2 20 2 52 0 70 -2 17 -4 1 -4 -38z"/>
<path d="M4272 3300 c0 -19 2 -27 5 -17 2 9 2 25 0 35 -3 9 -5 1 -5 -18z"/>
<path d="M3843 3235 c0 -33 2 -45 4 -27 2 18 2 45 0 60 -2 15 -4 0 -4 -33z"/>
<path d="M3642 3195 c0 -16 2 -22 5 -12 2 9 2 23 0 30 -3 6 -5 -1 -5 -18z"/>
<path d="M3912 3200 c0 -14 2 -19 5 -12 2 6 2 18 0 25 -3 6 -5 1 -5 -13z"/>
<path d="M4244 4354 c-8 -20 -33 -95 -55 -167 -22 -73 -59 -172 -81 -220 -26
-58 -40 -103 -40 -128 1 -69 23 -193 41 -224 l16 -30 3 85 c2 56 -2 106 -13
146 l-17 61 55 109 c64 127 106 253 114 341 7 71 -1 80 -23 27z"/>
<path d="M3960 3814 c1 -45 38 -204 39 -167 1 34 -25 183 -34 191 -3 3 -5 -8
-5 -24z"/>
<path d="M4031 3790 c-1 -43 21 -145 34 -158 8 -9 -5 89 -20 153 l-13 50 -1
-45z"/>
<path d="M3883 2963 c-47 -7 -97 -20 -111 -29 -22 -15 -24 -21 -20 -74 l4 -57
-110 -22 c-160 -31 -237 -54 -208 -61 17 -3 29 -21 45 -60 13 -30 46 -93 75
-140 50 -81 52 -83 52 -49 0 50 -38 157 -73 206 -17 24 -28 45 -26 47 7 7 177
24 494 51 430 37 735 77 902 121 125 33 102 32 -411 -11 -230 -19 -425 -35
-432 -35 -23 0 -16 18 9 22 31 4 35 44 7 73 -28 29 -82 34 -197 18z m146 -42
c8 -5 -10 -10 -50 -13 -35 -3 -64 -9 -66 -14 -2 -5 -12 -24 -23 -41 -17 -28
-25 -33 -60 -33 -39 0 -40 1 -40 34 0 18 6 39 14 45 29 24 195 41 225 22z"/>
<path d="M4800 2801 c-128 -39 -147 -110 -74 -273 33 -73 35 -81 20 -97 -18
-20 -12 -31 16 -31 30 0 31 25 4 105 -29 83 -32 119 -14 177 14 47 68 98 106
98 40 0 60 16 30 23 -29 8 -56 7 -88 -2z"/>
<path d="M2603 2715 c0 -22 2 -30 4 -17 2 12 2 30 0 40 -3 9 -5 -1 -4 -23z"/>
<path d="M4878 2674 c-30 -16 -78 -99 -78 -135 0 -43 25 -102 56 -135 26 -28
39 -34 72 -34 22 0 52 4 66 10 14 5 56 12 93 15 124 11 139 20 80 48 -49 23
-115 36 -154 30 -34 -6 -34 -7 -28 -44 l7 -39 -41 0 c-51 0 -65 23 -65 105 1
43 8 76 27 118 15 31 31 57 36 57 5 0 21 -17 36 -37 52 -71 75 -80 75 -29 0
71 -106 112 -182 70z"/>
<path d="M2812 2620 c0 -14 2 -19 5 -12 2 6 2 18 0 25 -3 6 -5 1 -5 -13z"/>
<path d="M3047 2574 c-11 -11 -8 -104 4 -147 17 -64 32 -34 25 51 -7 77 -17
108 -29 96z"/>
<path d="M4174 2474 c8 -103 36 -178 63 -171 10 3 45 13 78 23 l60 18 -57 6
c-31 3 -59 8 -63 12 -3 3 -15 40 -25 82 -22 85 -35 116 -52 116 -8 0 -9 -26
-4 -86z"/>
<path d="M3865 2466 c-46 -49 -53 -53 -85 -49 -31 5 -33 4 -17 -9 10 -7 23
-29 30 -49 14 -42 110 -134 150 -144 17 -5 36 -1 56 11 48 29 45 41 -12 47
-63 8 -83 28 -92 96 -8 60 -1 87 33 124 23 24 24 27 7 27 -11 0 -42 -24 -70
-54z"/>
<path d="M4397 2480 c-95 -24 -117 -35 -117 -60 0 -30 14 -31 56 -2 29 20 55
27 102 30 37 3 62 0 62 -6 0 -5 -19 -26 -41 -47 l-41 -37 33 7 c19 4 49 13 67
21 32 13 33 15 30 61 -3 47 -4 48 -38 50 -19 1 -70 -7 -113 -17z"/>
<path d="M3940 2458 c-21 -34 -27 -93 -11 -102 5 -4 12 13 16 36 4 24 14 55
21 71 20 39 -2 34 -26 -5z"/>
<path d="M3669 2394 c-19 -20 -24 -38 -27 -93 -4 -64 -3 -69 23 -89 21 -16 42
-22 81 -22 50 0 54 2 60 26 10 38 -7 78 -34 82 -29 4 -28 -5 3 -30 20 -16 23
-23 14 -34 -16 -20 -39 -17 -66 8 -21 19 -22 27 -16 93 7 82 -3 97 -38 59z"/>
<path d="M5682 2305 c4 -54 32 -144 42 -134 2 2 -3 42 -11 89 -19 104 -37 131
-31 45z"/>
<path d="M4540 2270 c-52 -10 -175 -30 -273 -45 -109 -17 -173 -31 -165 -36
19 -13 299 -11 360 2 58 13 129 45 168 78 29 24 33 24 -90 1z"/>
<path d="M5772 2230 c0 -19 2 -27 5 -17 2 9 2 25 0 35 -3 9 -5 1 -5 -18z"/>
<path d="M5873 2190 c0 -30 2 -43 4 -27 2 15 2 39 0 55 -2 15 -4 2 -4 -28z"/>
<path d="M3531 1915 c-184 -21 -381 -59 -381 -73 0 -10 236 8 375 28 154 23
242 43 258 59 15 15 -9 13 -252 -14z"/>
<path d="M5565 1930 c-19 -8 -19 -9 2 -9 12 -1 25 4 28 9 7 12 -2 12 -30 0z"/>
<path d="M4775 1730 c-77 -15 -166 -30 -197 -34 -32 -4 -61 -12 -64 -18 -15
-24 263 19 391 61 85 27 34 24 -130 -9z"/>
<path d="M5797 1722 c-50 -55 -62 -163 -28 -250 12 -29 21 -64 21 -77 0 -22
-2 -24 -26 -15 -36 14 -96 12 -135 -4 -36 -15 -89 -66 -108 -103 -28 -55 -1
-106 44 -85 22 10 25 17 23 54 -3 39 -1 43 27 52 41 14 41 14 19 31 -18 13
-16 14 19 15 22 0 51 -7 66 -16 25 -15 30 -15 59 0 17 9 45 16 62 16 22 0 30
5 30 18 0 37 -22 93 -46 119 -24 26 -26 33 -22 116 3 82 5 91 30 112 22 19 24
24 12 29 -24 9 -30 8 -47 -12z"/>
<path d="M4160 1642 c0 -20 40 -58 131 -128 55 -42 103 -82 105 -89 3 -7 -2
-34 -10 -60 -15 -43 -15 -48 4 -90 11 -24 20 -63 20 -86 0 -38 -5 -47 -65
-104 -57 -55 -65 -66 -59 -89 7 -30 22 -34 31 -8 7 22 91 100 116 108 15 5 18
12 13 37 -15 85 -18 177 -6 227 l12 52 -73 75 c-111 112 -219 189 -219 155z"/>
<path d="M3362 1499 c-11 -17 -16 -18 -28 -8 -23 19 -28 3 -17 -57 l10 -56
-31 -19 -31 -19 33 0 c18 0 42 -5 53 -10 13 -7 19 -7 19 0 0 5 13 10 30 10 16
0 60 5 97 10 38 6 89 13 115 16 85 10 152 94 76 94 -25 0 -29 3 -18 10 8 5 25
10 38 10 12 0 22 6 22 14 0 28 -97 34 -239 15 -61 -8 -86 -8 -94 0 -15 15 -20
14 -35 -10z m168 -57 c0 -26 -25 -5 -28 24 -2 28 -2 28 13 10 8 -11 15 -26 15
-34z m78 36 c16 -16 15 -38 -2 -38 -18 0 -39 27 -31 40 8 13 18 13 33 -2z
m-138 -13 c14 -17 4 -55 -15 -55 -18 0 -38 37 -31 56 7 18 30 18 46 -1z"/>
<path d="M4460 1431 c0 -21 15 -35 48 -45 33 -11 42 22 13 46 -30 24 -61 24
-61 -1z"/>
<path d="M4550 1310 c0 -6 19 -37 42 -68 53 -71 115 -190 124 -236 9 -51 24
-34 24 27 0 69 -42 157 -105 220 -53 53 -85 74 -85 57z"/>
<path d="M4474 1286 c-5 -14 87 -179 107 -191 26 -16 18 10 -24 85 -25 44 -49
89 -52 100 -7 23 -23 26 -31 6z"/>
<path d="M3795 1271 c-11 -4 -85 -19 -165 -32 l-145 -24 75 -3 c116 -3 120 -5
120 -53 0 -36 -2 -40 -22 -37 -12 2 -33 18 -45 37 l-23 34 0 -32 c0 -38 -16
-71 -33 -71 -7 0 -30 23 -51 51 -44 59 -55 54 -56 -26 l-1 -50 -24 47 c-31 58
-40 64 -59 36 -22 -31 -20 -69 7 -108 33 -49 55 -60 73 -36 14 19 15 19 48
-13 41 -39 56 -34 56 20 0 47 19 59 55 35 31 -21 32 -21 39 9 8 30 49 34 78 8
17 -15 18 -15 18 12 l0 28 61 -7 62 -6 -6 75 c-7 73 -20 116 -35 114 -4 0 -16
-4 -27 -8z m-37 -90 c5 -34 -16 -51 -34 -27 -8 11 -14 28 -14 39 0 29 44 19
48 -12z"/>
<path d="M4111 1224 c0 -11 3 -14 6 -6 3 7 2 16 -1 19 -3 4 -6 -2 -5 -13z"/>
<path d="M3897 1210 c6 -22 23 -38 23 -21 0 17 -12 41 -20 41 -5 0 -6 -9 -3
-20z"/>
<path d="M4180 1116 c0 -23 -3 -72 -6 -107 -4 -36 -3 -60 2 -56 11 10 22 207
12 207 -5 0 -8 -20 -8 -44z"/>
<path d="M4123 1050 c0 -25 2 -35 4 -22 2 12 2 32 0 45 -2 12 -4 2 -4 -23z"/>
<path d="M4496 1044 c-14 -36 -4 -114 14 -114 15 0 32 69 25 100 -7 32 -29 40
-39 14z"/>
<path d="M3605 849 c-55 -11 -138 -25 -185 -32 l-85 -12 2 -81 c3 -123 29
-171 53 -99 9 26 9 48 1 86 -15 69 -15 71 17 67 27 -3 27 -4 32 -93 4 -66 11
-98 25 -119 l19 -29 18 42 c21 50 42 60 81 37 31 -17 46 -10 47 22 0 20 48 14
60 -8 15 -29 38 -25 42 7 2 19 16 36 45 56 30 20 45 38 52 65 6 20 20 44 32
53 l22 16 -22 22 c-17 17 -32 21 -88 20 -38 -1 -113 -10 -168 -20z m165 -49
c16 -31 9 -84 -13 -88 -12 -3 -23 9 -37 40 -27 58 -25 68 10 68 19 0 33 -7 40
-20z m-95 0 c3 -5 3 -32 -1 -61 -11 -83 -49 -76 -76 14 -10 32 -9 40 3 48 19
12 66 11 74 -1z m-126 -14 c7 -9 11 -38 9 -73 -2 -47 -6 -58 -22 -61 -27 -6
-35 8 -46 73 -7 45 -7 61 3 67 19 12 43 9 56 -6z"/>
<path d="M210 2876 c-11 -53 -5 -115 10 -99 5 4 11 38 15 74 9 84 -9 102 -25
25z"/>
<path d="M583 2743 c1 -71 6 -106 16 -115 11 -11 12 1 6 75 -11 136 -25 161
-22 40z"/>
<path d="M310 2599 c0 -24 4 -38 10 -34 6 3 10 22 10 41 0 19 -4 34 -10 34 -5
0 -10 -18 -10 -41z"/>
<path d="M2451 2794 c0 -11 3 -14 6 -6 3 7 2 16 -1 19 -3 4 -6 -2 -5 -13z"/>
<path d="M807 2663 c-10 -9 -7 -114 3 -138 6 -13 9 7 9 63 1 82 0 88 -12 75z"/>
<path d="M873 2545 c0 -27 2 -38 4 -22 2 15 2 37 0 50 -2 12 -4 0 -4 -28z"/>
<path d="M590 2440 c-8 -5 -12 -12 -9 -15 4 -3 12 1 19 10 14 17 11 19 -10 5z"/>
<path d="M530 2404 c0 -5 7 -19 15 -30 8 -10 15 -14 15 -8 0 5 -7 19 -15 30
-8 10 -15 14 -15 8z"/>
<path d="M611 2250 c0 -110 1 -123 14 -106 19 25 29 96 21 150 -4 24 -13 52
-21 62 -13 17 -14 4 -14 -106z"/>
<path d="M494 2315 c-3 -19 -2 -61 2 -93 8 -47 12 -57 29 -57 16 0 20 6 19 35
-2 52 -24 150 -34 150 -5 0 -12 -16 -16 -35z"/>
<path d="M1160 2326 l0 -124 -42 -25 c-54 -31 -83 -63 -101 -107 -15 -37 -32
-130 -23 -130 3 0 17 20 31 44 29 50 107 126 129 126 17 0 100 -91 127 -139
l20 -36 -5 38 c-7 55 -48 137 -84 172 l-32 30 0 137 c0 85 -4 138 -10 138 -6
0 -10 -48 -10 -124z"/>
<path d="M1536 2226 c-9 -41 -2 -264 10 -303 9 -32 27 -17 18 16 -3 14 -10 94
-13 176 -5 118 -9 142 -15 111z"/>
<path d="M1607 2158 c-10 -98 1 -164 64 -391 64 -232 58 -216 68 -197 15 28
21 129 10 179 -6 28 -27 74 -49 105 -61 86 -62 91 -74 241 l-12 140 -7 -77z"/>
<path d="M1135 2063 c41 -93 65 -230 65 -365 0 -53 3 -68 15 -68 8 0 19 9 25
19 12 24 13 114 1 126 -5 6 -14 49 -20 97 -11 92 -49 191 -77 202 -13 5 -14 2
-9 -11z"/>
<path d="M820 1966 c0 -63 36 -126 55 -95 14 21 -24 129 -45 129 -6 0 -10 -15
-10 -34z"/>
<path d="M1100 1981 c-15 -28 -13 -34 19 -70 l30 -33 6 25 c9 33 -12 97 -30
97 -8 0 -19 -9 -25 -19z"/>
<path d="M912 1938 c-10 -37 -6 -50 8 -28 10 15 14 60 5 60 -2 0 -8 -15 -13
-32z"/>
<path d="M2056 1898 c-8 -59 1 -173 15 -198 10 -18 10 194 0 230 -6 20 -9 15
-15 -32z"/>
<path d="M1080 1851 c0 -17 4 -32 9 -36 12 -7 23 28 15 49 -10 26 -24 18 -24
-13z"/>
<path d="M1095 1770 c-11 -18 4 -80 21 -87 24 -9 48 21 36 43 -17 32 -49 57
-57 44z"/>
<path d="M1316 1754 c-3 -9 -6 -39 -5 -67 l1 -52 13 30 c16 34 20 105 6 105
-5 0 -12 -7 -15 -16z"/>
<path d="M1503 1723 c3 -5 13 -26 22 -48 l17 -40 9 29 c10 36 -4 66 -32 66
-11 0 -18 -3 -16 -7z"/>
<path d="M1455 1699 c-4 -11 -4 -23 -2 -26 9 -8 27 7 27 22 0 23 -18 27 -25 4z"/>
<path d="M1594 1635 c14 -147 16 -235 8 -277 -10 -52 -8 -59 8 -28 33 61 30
246 -4 321 l-16 34 4 -50z"/>
<path d="M2010 1454 c0 -9 -9 -27 -20 -41 -42 -54 -15 -203 37 -203 22 0 23
-4 23 -69 0 -68 0 -69 -30 -75 -19 -3 -34 -15 -42 -31 -13 -29 -5 -43 16 -26
12 10 15 8 18 -11 10 -73 71 35 83 147 10 93 -43 325 -74 325 -6 0 -11 -7 -11
-16z"/>
<path d="M1551 1431 c-1 -24 2 -32 9 -25 7 7 7 19 1 35 -9 23 -10 22 -10 -10z"/>
<path d="M1898 1320 c-25 -25 -28 -36 -28 -94 0 -75 14 -86 30 -23 6 23 18 62
25 86 24 72 18 78 -27 31z"/>
<path d="M1500 1326 c0 -19 26 -27 39 -12 13 15 4 26 -21 26 -10 0 -18 -6 -18
-14z"/>
<path d="M6495 2063 c-22 -3 -44 -9 -49 -14 -6 -5 30 -9 96 -9 59 0 109 -4
113 -10 9 -15 -36 -38 -116 -60 l-74 -20 80 3 c120 5 157 29 141 93 -6 23 -10
24 -79 22 -39 -1 -90 -3 -112 -5z"/>
<path d="M6565 1834 c-49 -8 -94 -16 -100 -18 -5 -3 56 -5 136 -5 115 -1 149
-4 159 -16 26 -32 -8 -48 -165 -76 -60 -11 -112 -23 -115 -26 -12 -13 190 11
237 29 44 16 55 26 73 63 12 25 19 49 15 55 -8 14 -131 11 -240 -6z"/>
<path d="M6705 1564 c-118 -25 -206 -47 -201 -51 2 -3 53 1 111 7 67 8 109 10
116 3 20 -20 -19 -45 -118 -73 -55 -15 -109 -33 -119 -39 -44 -25 45 -11 188
30 72 21 98 48 98 104 0 21 -4 25 -27 24 -16 -1 -37 -3 -48 -5z"/>
<path d="M2491 1607 c-21 -53 -8 -149 27 -197 16 -21 21 -51 28 -156 7 -111 9
-122 15 -79 4 28 8 86 8 130 1 69 6 91 36 155 l34 75 -26 27 c-15 16 -30 28
-35 28 -4 0 -8 -24 -8 -53 0 -55 -19 -95 -38 -83 -7 4 -12 34 -13 69 -1 34 -4
73 -9 87 l-7 25 -12 -28z"/>
<path d="M2448 1545 c-5 -38 -7 -97 -7 -130 l2 -60 8 75 c5 41 8 100 7 130
l-3 55 -7 -70z"/>
<path d="M2694 1480 c-22 -9 -64 -56 -64 -71 0 -5 7 -9 15 -9 14 0 15 -17 9
-132 -7 -131 -13 -158 -40 -158 -25 0 -15 -15 22 -35 43 -23 114 -101 114
-124 -1 -12 -8 -8 -26 13 -14 15 -27 26 -30 23 -8 -7 41 -118 52 -118 5 0 12
10 15 23 6 24 6 23 27 -122 l8 -55 12 40 c15 49 15 167 2 217 -12 40 -90 128
-115 128 -12 0 -15 13 -15 60 0 94 20 252 36 284 23 47 19 53 -22 36z"/>
<path d="M2798 1384 c-5 -4 -8 -35 -7 -68 l1 -61 9 45 c10 50 8 96 -3 84z"/>
<path d="M2583 1013 c-7 -2 -13 -9 -13 -14 0 -14 26 -10 40 6 10 12 10 15 -1
14 -8 0 -20 -3 -26 -6z"/>
<path d="M2590 956 c0 -8 7 -17 16 -20 30 -11 37 -6 19 14 -21 23 -35 26 -35
6z"/>
<path d="M2452 937 c-32 -38 -42 -217 -17 -296 8 -25 18 -59 22 -76 6 -22 9
-4 14 70 3 55 14 125 23 155 15 50 15 90 0 143 -6 20 -27 22 -42 4z"/>
<path d="M2677 826 c-10 -26 -8 -74 3 -81 6 -3 15 6 20 20 13 34 13 38 -3 59
-13 18 -14 18 -20 2z"/>
<path d="M2536 752 c-7 -12 3 -42 14 -42 16 0 19 17 6 35 -8 11 -15 14 -20 7z"/>
<path d="M2758 626 c-11 -70 -10 -92 3 -79 5 5 9 37 7 69 l-3 59 -7 -49z"/>
<path d="M2612 529 c-33 -51 -29 -68 7 -23 20 25 36 63 29 68 -1 2 -18 -19
-36 -45z"/>
<path d="M2770 5211 c-5 -11 -10 -50 -10 -86 l0 -67 -32 5 c-62 11 -503 31
-530 24 -16 -4 -28 -11 -28 -16 0 -16 62 -21 264 -22 245 -2 257 -4 270 -47 9
-31 26 -44 26 -20 0 7 12 24 26 39 21 22 28 42 33 94 4 38 14 72 23 81 14 14
18 14 46 0 35 -18 42 -33 42 -91 0 -41 -2 -44 -35 -55 -48 -16 -33 -34 22 -27
62 7 69 16 53 74 -17 63 -34 90 -73 113 -41 26 -83 26 -97 1z"/>
<path d="M3448 5003 c18 -2 45 -2 60 0 15 2 0 4 -33 4 -33 0 -45 -2 -27 -4z"/>
<path d="M5771 4026 c-12 -13 -26 -40 -32 -61 -9 -32 -7 -44 13 -84 13 -25 37
-53 52 -61 26 -14 28 -14 50 11 13 15 33 32 44 38 43 23 37 127 -9 151 -31 17
-37 11 -42 -42 -3 -29 -10 -69 -16 -88 -10 -33 -10 -31 -6 20 3 30 6 62 7 70
2 8 -1 17 -7 20 -6 3 -11 -13 -13 -37 -4 -57 -22 -55 -22 2 0 39 4 47 25 57
13 6 22 15 19 19 -10 16 -40 9 -63 -15z"/>
<path d="M5412 3980 c0 -14 2 -19 5 -12 2 6 2 18 0 25 -3 6 -5 1 -5 -13z"/>
<path d="M5061 3856 c5 -5 279 -56 300 -56 39 0 -16 14 -142 35 -151 26 -165
28 -158 21z"/>
<path d="M5860 791 c-444 -110 -841 -213 -836 -218 6 -6 287 61 721 172 429
110 477 123 450 123 -11 1 -162 -34 -335 -77z"/>
<path d="M6395 809 c-549 -114 -2155 -485 -2052 -474 157 16 2195 475 2246
505 24 14 11 12 -194 -31z"/>
<path d="M4920 810 l-25 -8 25 0 c14 0 36 4 50 8 l25 8 -25 0 c-14 0 -36 -4
-50 -8z"/>
<path d="M4815 788 c-105 -19 -500 -109 -505 -115 -7 -8 43 1 310 59 129 27
242 54 250 59 18 10 11 10 -55 -3z"/>
<path d="M5198 693 c7 -3 16 -2 19 1 4 3 -2 6 -13 5 -11 0 -14 -3 -6 -6z"/>
<path d="M5118 683 c6 -2 18 -2 25 0 6 3 1 5 -13 5 -14 0 -19 -2 -12 -5z"/>
<path d="M4268 663 c6 -2 18 -2 25 0 6 3 1 5 -13 5 -14 0 -19 -2 -12 -5z"/>
<path d="M4998 653 c7 -3 16 -2 19 1 4 3 -2 6 -13 5 -11 0 -14 -3 -6 -6z"/>
<path d="M4188 643 c6 -2 18 -2 25 0 6 3 1 5 -13 5 -14 0 -19 -2 -12 -5z"/>
<path d="M4516 555 c-419 -94 -481 -110 -396 -99 50 6 727 156 805 178 131 37
-28 6 -409 -79z"/>
<path d="M4895 540 c-7 -12 2 -12 30 0 19 8 19 9 -2 9 -12 1 -25 -3 -28 -9z"/>
<path d="M3860 410 l-25 -8 25 0 c14 0 36 4 50 8 l25 8 -25 0 c-14 0 -36 -4
-50 -8z"/>
<path d="M3698 373 c7 -3 16 -2 19 1 4 3 -2 6 -13 5 -11 0 -14 -3 -6 -6z"/>
<path d="M4391 209 c-30 -5 -57 -12 -60 -14 -9 -10 66 -3 104 10 47 15 32 16
-44 4z"/>
</g>
</svg>
