<?xml version="1.0" encoding="utf-8"?>
<svg xmlns="http://www.w3.org/2000/svg" xmlns:xlink="http://www.w3.org/1999/xlink" xml:space="preserve" width="984" height="984" viewBox="0 0 984 984"><g fill="#ffffff">
<g transform="translate(240,48) scale(4.12)"><path d="M0.8,0L0.8,0C2.2,0,6,4.6,6,6l0,0H0V0.8C0,0.4,0.4,0,0.8,0z"/></g>
<g transform="translate(312,48) scale(4.12)"><path d="M5.4,2.8C4.5,1.1,2.6-0.1,1.2,0c-1.3,0.1-1.6,1.6-0.7,3.2c1,1.7,2.8,2.9,4.2,2.8C6.1,5.9,6.4,4.4,5.4,2.8z"/></g>
<g transform="translate(360,48) scale(4.12)"><path d="M0.8,0L0.8,0C2.2,0,6,4.6,6,6l0,0H0V0.8C0,0.4,0.4,0,0.8,0z"/></g>
<g transform="translate(408,48) scale(4.12)"><path d="M0,5.2L0,5.2C0,3.8,4.6,0,6,0l0,0v6H0.8C0.4,6,0,5.6,0,5.2z"/></g>
<g transform="translate(432,48) scale(4.12)"><path d="M6,0.8L6,0.8C6,2.2,1.4,6,0,6l0,0V0h5.2C5.6,0,6,0.4,6,0.8z"/></g>
<g transform="translate(600,48) scale(4.12)"><path d="M0,5.2L0,5.2C0,3.8,4.6,0,6,0l0,0v6H0.8C0.4,6,0,5.6,0,5.2z"/></g>
<g transform="translate(624,48) scale(4.12)"><rect width="6" height="6"/></g>
<g transform="translate(648,48) scale(4.12)"><path d="M6,0.8L6,0.8C6,2.2,1.4,6,0,6l0,0V0h5.2C5.6,0,6,0.4,6,0.8z"/></g>
<g transform="translate(720,48) scale(4.12)"><path d="M5.4,2.8C4.5,1.1,2.6-0.1,1.2,0c-1.3,0.1-1.6,1.6-0.7,3.2c1,1.7,2.8,2.9,4.2,2.8C6.1,5.9,6.4,4.4,5.4,2.8z"/></g>
<g transform="translate(240,72) scale(4.12)"><rect width="6" height="6"/></g>
<g transform="translate(336,72) scale(4.12)"><path d="M6,6H0V2c0-1.1,0.9-2,2-2h4V6z"/></g>
<g transform="translate(360,72) scale(4.12)"><rect width="6" height="6"/></g>
<g transform="translate(384,72) scale(4.12)"><path d="M6,0.8L6,0.8C6,2.2,1.4,6,0,6l0,0V0h5.2C5.6,0,6,0.4,6,0.8z"/></g>
<g transform="translate(456,72) scale(4.12)"><path d="M0.8,0L0.8,0C2.2,0,6,4.6,6,6l0,0H0V0.8C0,0.4,0.4,0,0.8,0z"/></g>
<g transform="translate(528,72) scale(4.12)"><path d="M5.4,2.8C4.5,1.1,2.6-0.1,1.2,0c-1.3,0.1-1.6,1.6-0.7,3.2c1,1.7,2.8,2.9,4.2,2.8C6.1,5.9,6.4,4.4,5.4,2.8z"/></g>
<g transform="translate(624,72) scale(4.12)"><path d="M5.2,6L5.2,6C3.8,6,0,1.4,0,0l0,0h6v5.2C6,5.6,5.6,6,5.2,6z"/></g>
<g transform="translate(672,72) scale(4.12)"><path d="M0,5.2L0,5.2C0,3.8,4.6,0,6,0l0,0v6H0.8C0.4,6,0,5.6,0,5.2z"/></g>
<g transform="translate(696,72) scale(4.12)"><path d="M6,0.8L6,0.8C6,2.2,1.4,6,0,6l0,0V0h5.2C5.6,0,6,0.4,6,0.8z"/></g>
<g transform="translate(240,96) scale(4.12)"><path d="M6,0v6H2C0.9,6,0,5.1,0,4V0H6z"/></g>
<g transform="translate(264,96) scale(4.12)"><path d="M0,6V0h4c1.1,0,2,0.9,2,2v4H0z"/></g>
<g transform="translate(336,96) scale(4.12)"><rect width="6" height="6"/></g>
<g transform="translate(360,96) scale(4.12)"><path d="M0,0h6v4c0,1.1-0.9,2-2,2H0V0z"/></g>
<g transform="translate(408,96) scale(4.12)"><path d="M0.8,0L0.8,0C2.2,0,6,4.6,6,6l0,0H0V0.8C0,0.4,0.4,0,0.8,0z"/></g>
<g transform="translate(456,96) scale(4.12)"><rect width="6" height="6"/></g>
<g transform="translate(504,96) scale(4.12)"><path d="M5.4,2.8C4.5,1.1,2.6-0.1,1.2,0c-1.3,0.1-1.6,1.6-0.7,3.2c1,1.7,2.8,2.9,4.2,2.8C6.1,5.9,6.4,4.4,5.4,2.8z"/></g>
<g transform="translate(600,96) scale(4.12)"><path d="M5.4,2.8C4.5,1.1,2.6-0.1,1.2,0c-1.3,0.1-1.6,1.6-0.7,3.2c1,1.7,2.8,2.9,4.2,2.8C6.1,5.9,6.4,4.4,5.4,2.8z"/></g>
<g transform="translate(648,96) scale(4.12)"><path d="M0.8,0L0.8,0C2.2,0,6,4.6,6,6l0,0H0V0.8C0,0.4,0.4,0,0.8,0z"/></g>
<g transform="translate(720,96) scale(4.12)"><path d="M5.4,2.8C4.5,1.1,2.6-0.1,1.2,0c-1.3,0.1-1.6,1.6-0.7,3.2c1,1.7,2.8,2.9,4.2,2.8C6.1,5.9,6.4,4.4,5.4,2.8z"/></g>
<g transform="translate(264,120) scale(4.12)"><path d="M6,0v6H2C0.9,6,0,5.1,0,4V0H6z"/></g>
<g transform="translate(288,120) scale(4.12)"><rect width="6" height="6"/></g>
<g transform="translate(312,120) scale(4.12)"><rect width="6" height="6"/></g>
<g transform="translate(336,120) scale(4.12)"><path d="M0,0h6v4c0,1.1-0.9,2-2,2H0V0z"/></g>
<g transform="translate(408,120) scale(4.12)"><rect width="6" height="6"/></g>
<g transform="translate(432,120) scale(4.12)"><rect width="6" height="6"/></g>
<g transform="translate(456,120) scale(4.12)"><rect width="6" height="6"/></g>
<g transform="translate(480,120) scale(4.12)"><path d="M0,6V0h4c1.1,0,2,0.9,2,2v4H0z"/></g>
<g transform="translate(552,120) scale(4.12)"><path d="M0.8,0L0.8,0C2.2,0,6,4.6,6,6l0,0H0V0.8C0,0.4,0.4,0,0.8,0z"/></g>
<g transform="translate(624,120) scale(4.12)"><path d="M0,5.2L0,5.2C0,3.8,4.6,0,6,0l0,0v6H0.8C0.4,6,0,5.6,0,5.2z"/></g>
<g transform="translate(648,120) scale(4.12)"><path d="M0,0h6v4c0,1.1-0.9,2-2,2H0V0z"/></g>
<g transform="translate(696,120) scale(4.12)"><path d="M5.4,2.8C4.5,1.1,2.6-0.1,1.2,0c-1.3,0.1-1.6,1.6-0.7,3.2c1,1.7,2.8,2.9,4.2,2.8C6.1,5.9,6.4,4.4,5.4,2.8z"/></g>
<g transform="translate(384,144) scale(4.12)"><path d="M6,6H0V2c0-1.1,0.9-2,2-2h4V6z"/></g>
<g transform="translate(408,144) scale(4.12)"><rect width="6" height="6"/></g>
<g transform="translate(456,144) scale(4.12)"><path d="M6,0v6H2C0.9,6,0,5.1,0,4V0H6z"/></g>
<g transform="translate(480,144) scale(4.12)"><rect width="6" height="6"/></g>
<g transform="translate(504,144) scale(4.12)"><rect width="6" height="6"/></g>
<g transform="translate(528,144) scale(4.12)"><rect width="6" height="6"/></g>
<g transform="translate(552,144) scale(4.12)"><rect width="6" height="6"/></g>
<g transform="translate(576,144) scale(4.12)"><rect width="6" height="6"/></g>
<g transform="translate(600,144) scale(4.12)"><path d="M6,0.8L6,0.8C6,2.2,1.4,6,0,6l0,0V0h5.2C5.6,0,6,0.4,6,0.8z"/></g>
<g transform="translate(240,168) scale(4.12)"><path d="M6,6H0V2c0-1.1,0.9-2,2-2h4V6z"/></g>
<g transform="translate(264,168) scale(4.12)"><rect width="6" height="6"/></g>
<g transform="translate(288,168) scale(4.12)"><rect width="6" height="6"/></g>
<g transform="translate(312,168) scale(4.12)"><path d="M6,0.8L6,0.8C6,2.2,1.4,6,0,6l0,0V0h5.2C5.6,0,6,0.4,6,0.8z"/></g>
<g transform="translate(360,168) scale(4.12)"><path d="M0,5.2L0,5.2C0,3.8,4.6,0,6,0l0,0v6H0.8C0.4,6,0,5.6,0,5.2z"/></g>
<g transform="translate(384,168) scale(4.12)"><rect width="6" height="6"/></g>
<g transform="translate(408,168) scale(4.12)"><rect width="6" height="6"/></g>
<g transform="translate(432,168) scale(4.12)"><path d="M0,6V0h4c1.1,0,2,0.9,2,2v4H0z"/></g>
<g transform="translate(528,168) scale(4.12)"><rect width="6" height="6"/></g>
<g transform="translate(576,168) scale(4.12)"><rect width="6" height="6"/></g>
<g transform="translate(624,168) scale(4.12)"><path d="M0.8,0L0.8,0C2.2,0,6,4.6,6,6l0,0H0V0.8C0,0.4,0.4,0,0.8,0z"/></g>
<g transform="translate(696,168) scale(4.12)"><path d="M0,5.2L0,5.2C0,3.8,4.6,0,6,0l0,0v6H0.8C0.4,6,0,5.6,0,5.2z"/></g>
<g transform="translate(720,168) scale(4.12)"><path d="M0,6V0h4c1.1,0,2,0.9,2,2v4H0z"/></g>
<g transform="translate(240,192) scale(4.12)"><rect width="6" height="6"/></g>
<g transform="translate(288,192) scale(4.12)"><rect width="6" height="6"/></g>
<g transform="translate(336,192) scale(4.12)"><path d="M5.4,2.8C4.5,1.1,2.6-0.1,1.2,0c-1.3,0.1-1.6,1.6-0.7,3.2c1,1.7,2.8,2.9,4.2,2.8C6.1,5.9,6.4,4.4,5.4,2.8z"/></g>
<g transform="translate(384,192) scale(4.12)"><rect width="6" height="6"/></g>
<g transform="translate(432,192) scale(4.12)"><path d="M5.2,6L5.2,6C3.8,6,0,1.4,0,0l0,0h6v5.2C6,5.6,5.6,6,5.2,6z"/></g>
<g transform="translate(480,192) scale(4.12)"><path d="M5.4,2.8C4.5,1.1,2.6-0.1,1.2,0c-1.3,0.1-1.6,1.6-0.7,3.2c1,1.7,2.8,2.9,4.2,2.8C6.1,5.9,6.4,4.4,5.4,2.8z"/></g>
<g transform="translate(528,192) scale(4.12)"><rect width="6" height="6"/></g>
<g transform="translate(576,192) scale(4.12)"><path d="M5.2,6L5.2,6C3.8,6,0,1.4,0,0l0,0h6v5.2C6,5.6,5.6,6,5.2,6z"/></g>
<g transform="translate(624,192) scale(4.12)"><path d="M5.2,6L5.2,6C3.8,6,0,1.4,0,0l0,0h6v5.2C6,5.6,5.6,6,5.2,6z"/></g>
<g transform="translate(672,192) scale(4.12)"><path d="M0.8,0L0.8,0C2.2,0,6,4.6,6,6l0,0H0V0.8C0,0.4,0.4,0,0.8,0z"/></g>
<g transform="translate(720,192) scale(4.12)"><rect width="6" height="6"/></g>
<g transform="translate(240,216) scale(4.12)"><rect width="6" height="6"/></g>
<g transform="translate(288,216) scale(4.12)"><rect width="6" height="6"/></g>
<g transform="translate(312,216) scale(4.12)"><path d="M0,6V0h4c1.1,0,2,0.9,2,2v4H0z"/></g>
<g transform="translate(384,216) scale(4.12)"><path d="M5.2,6L5.2,6C3.8,6,0,1.4,0,0l0,0h6v5.2C6,5.6,5.6,6,5.2,6z"/></g>
<g transform="translate(456,216) scale(4.12)"><path d="M0.8,0L0.8,0C2.2,0,6,4.6,6,6l0,0H0V0.8C0,0.4,0.4,0,0.8,0z"/></g>
<g transform="translate(528,216) scale(4.12)"><rect width="6" height="6"/></g>
<g transform="translate(600,216) scale(4.12)"><path d="M5.4,2.8C4.5,1.1,2.6-0.1,1.2,0c-1.3,0.1-1.6,1.6-0.7,3.2c1,1.7,2.8,2.9,4.2,2.8C6.1,5.9,6.4,4.4,5.4,2.8z"/></g>
<g transform="translate(672,216) scale(4.12)"><path d="M5.2,6L5.2,6C3.8,6,0,1.4,0,0l0,0h6v5.2C6,5.6,5.6,6,5.2,6z"/></g>
<g transform="translate(720,216) scale(4.12)"><path d="M5.2,6L5.2,6C3.8,6,0,1.4,0,0l0,0h6v5.2C6,5.6,5.6,6,5.2,6z"/></g>
<g transform="translate(96,240) scale(4.12)"><path d="M6,6H0V2c0-1.1,0.9-2,2-2h4V6z"/></g>
<g transform="translate(120,240) scale(4.12)"><rect width="6" height="6"/></g>
<g transform="translate(144,240) scale(4.12)"><path d="M6,0.8L6,0.8C6,2.2,1.4,6,0,6l0,0V0h5.2C5.6,0,6,0.4,6,0.8z"/></g>
<g transform="translate(192,240) scale(4.12)"><path d="M5.4,2.8C4.5,1.1,2.6-0.1,1.2,0c-1.3,0.1-1.6,1.6-0.7,3.2c1,1.7,2.8,2.9,4.2,2.8C6.1,5.9,6.4,4.4,5.4,2.8z"/></g>
<g transform="translate(240,240) scale(4.12)"><path d="M5.2,6L5.2,6C3.8,6,0,1.4,0,0l0,0h6v5.2C6,5.6,5.6,6,5.2,6z"/></g>
<g transform="translate(288,240) scale(4.12)"><path d="M6,0v6H2C0.9,6,0,5.1,0,4V0H6z"/></g>
<g transform="translate(312,240) scale(4.12)"><rect width="6" height="6"/></g>
<g transform="translate(336,240) scale(4.12)"><rect width="6" height="6"/></g>
<g transform="translate(360,240) scale(4.12)"><path d="M6,0.8L6,0.8C6,2.2,1.4,6,0,6l0,0V0h5.2C5.6,0,6,0.4,6,0.8z"/></g>
<g transform="translate(456,240) scale(4.12)"><path d="M5.2,6L5.2,6C3.8,6,0,1.4,0,0l0,0h6v5.2C6,5.6,5.6,6,5.2,6z"/></g>
<g transform="translate(504,240) scale(4.12)"><path d="M0,5.2L0,5.2C0,3.8,4.6,0,6,0l0,0v6H0.8C0.4,6,0,5.6,0,5.2z"/></g>
<g transform="translate(528,240) scale(4.12)"><rect width="6" height="6"/></g>
<g transform="translate(576,240) scale(4.12)"><path d="M5.4,2.8C4.5,1.1,2.6-0.1,1.2,0c-1.3,0.1-1.6,1.6-0.7,3.2c1,1.7,2.8,2.9,4.2,2.8C6.1,5.9,6.4,4.4,5.4,2.8z"/></g>
<g transform="translate(744,240) scale(4.12)"><path d="M6,6H0V2c0-1.1,0.9-2,2-2h4V6z"/></g>
<g transform="translate(768,240) scale(4.12)"><rect width="6" height="6"/></g>
<g transform="translate(792,240) scale(4.12)"><path d="M0,6V0h4c1.1,0,2,0.9,2,2v4H0z"/></g>
<g transform="translate(864,240) scale(4.12)"><path d="M0,5.2L0,5.2C0,3.8,4.6,0,6,0l0,0v6H0.8C0.4,6,0,5.6,0,5.2z"/></g>
<g transform="translate(888,240) scale(4.12)"><rect width="6" height="6"/></g>
<g transform="translate(912,240) scale(4.12)"><path d="M6,0.8L6,0.8C6,2.2,1.4,6,0,6l0,0V0h5.2C5.6,0,6,0.4,6,0.8z"/></g>
<g transform="translate(48,264) scale(4.12)"><path d="M0,5.2L0,5.2C0,3.8,4.6,0,6,0l0,0v6H0.8C0.4,6,0,5.6,0,5.2z"/></g>
<g transform="translate(72,264) scale(4.12)"><rect width="6" height="6"/></g>
<g transform="translate(96,264) scale(4.12)"><path d="M0,0h6v4c0,1.1-0.9,2-2,2H0V0z"/></g>
<g transform="translate(168,264) scale(4.12)"><path d="M5.4,2.8C4.5,1.1,2.6-0.1,1.2,0c-1.3,0.1-1.6,1.6-0.7,3.2c1,1.7,2.8,2.9,4.2,2.8C6.1,5.9,6.4,4.4,5.4,2.8z"/></g>
<g transform="translate(264,264) scale(4.12)"><path d="M0.8,0L0.8,0C2.2,0,6,4.6,6,6l0,0H0V0.8C0,0.4,0.4,0,0.8,0z"/></g>
<g transform="translate(312,264) scale(4.12)"><rect width="6" height="6"/></g>
<g transform="translate(384,264) scale(4.12)"><path d="M6,6H0V2c0-1.1,0.9-2,2-2h4V6z"/></g>
<g transform="translate(408,264) scale(4.12)"><rect width="6" height="6"/></g>
<g transform="translate(432,264) scale(4.12)"><path d="M0,6V0h4c1.1,0,2,0.9,2,2v4H0z"/></g>
<g transform="translate(480,264) scale(4.12)"><path d="M0.8,0L0.8,0C2.2,0,6,4.6,6,6l0,0H0V0.8C0,0.4,0.4,0,0.8,0z"/></g>
<g transform="translate(528,264) scale(4.12)"><rect width="6" height="6"/></g>
<g transform="translate(552,264) scale(4.12)"><path d="M0,6V0h4c1.1,0,2,0.9,2,2v4H0z"/></g>
<g transform="translate(648,264) scale(4.12)"><path d="M6,6H0V2c0-1.1,0.9-2,2-2h4V6z"/></g>
<g transform="translate(672,264) scale(4.12)"><rect width="6" height="6"/></g>
<g transform="translate(696,264) scale(4.12)"><rect width="6" height="6"/></g>
<g transform="translate(720,264) scale(4.12)"><rect width="6" height="6"/></g>
<g transform="translate(744,264) scale(4.12)"><rect width="6" height="6"/></g>
<g transform="translate(768,264) scale(4.12)"><rect width="6" height="6"/></g>
<g transform="translate(792,264) scale(4.12)"><rect width="6" height="6"/></g>
<g transform="translate(816,264) scale(4.12)"><rect width="6" height="6"/></g>
<g transform="translate(840,264) scale(4.12)"><path d="M6,0.8L6,0.8C6,2.2,1.4,6,0,6l0,0V0h5.2C5.6,0,6,0.4,6,0.8z"/></g>
<g transform="translate(144,288) scale(4.12)"><path d="M0.8,0L0.8,0C2.2,0,6,4.6,6,6l0,0H0V0.8C0,0.4,0.4,0,0.8,0z"/></g>
<g transform="translate(192,288) scale(4.12)"><path d="M5.4,2.8C4.5,1.1,2.6-0.1,1.2,0c-1.3,0.1-1.6,1.6-0.7,3.2c1,1.7,2.8,2.9,4.2,2.8C6.1,5.9,6.4,4.4,5.4,2.8z"/></g>
<g transform="translate(240,288) scale(4.12)"><path d="M0,5.2L0,5.2C0,3.8,4.6,0,6,0l0,0v6H0.8C0.4,6,0,5.6,0,5.2z"/></g>
<g transform="translate(264,288) scale(4.12)"><rect width="6" height="6"/></g>
<g transform="translate(288,288) scale(4.12)"><rect width="6" height="6"/></g>
<g transform="translate(312,288) scale(4.12)"><rect width="6" height="6"/></g>
<g transform="translate(336,288) scale(4.12)"><path d="M0,6V0h4c1.1,0,2,0.9,2,2v4H0z"/></g>
<g transform="translate(384,288) scale(4.12)"><path d="M5.2,6L5.2,6C3.8,6,0,1.4,0,0l0,0h6v5.2C6,5.6,5.6,6,5.2,6z"/></g>
<g transform="translate(432,288) scale(4.12)"><rect width="6" height="6"/></g>
<g transform="translate(480,288) scale(4.12)"><path d="M5.2,6L5.2,6C3.8,6,0,1.4,0,0l0,0h6v5.2C6,5.6,5.6,6,5.2,6z"/></g>
<g transform="translate(528,288) scale(4.12)"><path d="M6,0v6H2C0.9,6,0,5.1,0,4V0H6z"/></g>
<g transform="translate(552,288) scale(4.12)"><rect width="6" height="6"/></g>
<g transform="translate(576,288) scale(4.12)"><rect width="6" height="6"/></g>
<g transform="translate(600,288) scale(4.12)"><rect width="6" height="6"/></g>
<g transform="translate(624,288) scale(4.12)"><rect width="6" height="6"/></g>
<g transform="translate(648,288) scale(4.12)"><rect width="6" height="6"/></g>
<g transform="translate(672,288) scale(4.12)"><rect width="6" height="6"/></g>
<g transform="translate(768,288) scale(4.12)"><rect width="6" height="6"/></g>
<g transform="translate(792,288) scale(4.12)"><rect width="6" height="6"/></g>
<g transform="translate(816,288) scale(4.12)"><path d="M0,0h6v4c0,1.1-0.9,2-2,2H0V0z"/></g>
<g transform="translate(864,288) scale(4.12)"><path d="M5.4,2.8C4.5,1.1,2.6-0.1,1.2,0c-1.3,0.1-1.6,1.6-0.7,3.2c1,1.7,2.8,2.9,4.2,2.8C6.1,5.9,6.4,4.4,5.4,2.8z"/></g>
<g transform="translate(912,288) scale(4.12)"><path d="M0.8,0L0.8,0C2.2,0,6,4.6,6,6l0,0H0V0.8C0,0.4,0.4,0,0.8,0z"/></g>
<g transform="translate(48,312) scale(4.12)"><path d="M5.4,2.8C4.5,1.1,2.6-0.1,1.2,0c-1.3,0.1-1.6,1.6-0.7,3.2c1,1.7,2.8,2.9,4.2,2.8C6.1,5.9,6.4,4.4,5.4,2.8z"/></g>
<g transform="translate(120,312) scale(4.12)"><path d="M0,5.2L0,5.2C0,3.8,4.6,0,6,0l0,0v6H0.8C0.4,6,0,5.6,0,5.2z"/></g>
<g transform="translate(144,312) scale(4.12)"><rect width="6" height="6"/></g>
<g transform="translate(168,312) scale(4.12)"><path d="M0,6V0h4c1.1,0,2,0.9,2,2v4H0z"/></g>
<g transform="translate(264,312) scale(4.12)"><rect width="6" height="6"/></g>
<g transform="translate(288,312) scale(4.12)"><rect width="6" height="6"/></g>
<g transform="translate(312,312) scale(4.12)"><rect width="6" height="6"/></g>
<g transform="translate(336,312) scale(4.12)"><rect width="6" height="6"/></g>
<g transform="translate(432,312) scale(4.12)"><rect width="6" height="6"/></g>
<g transform="translate(552,312) scale(4.12)"><rect width="6" height="6"/></g>
<g transform="translate(576,312) scale(4.12)"><rect width="6" height="6"/></g>
<g transform="translate(600,312) scale(4.12)"><rect width="6" height="6"/></g>
<g transform="translate(672,312) scale(4.12)"><rect width="6" height="6"/></g>
<g transform="translate(720,312) scale(4.12)"><path d="M5.4,2.8C4.5,1.1,2.6-0.1,1.2,0c-1.3,0.1-1.6,1.6-0.7,3.2c1,1.7,2.8,2.9,4.2,2.8C6.1,5.9,6.4,4.4,5.4,2.8z"/></g>
<g transform="translate(768,312) scale(4.12)"><rect width="6" height="6"/></g>
<g transform="translate(840,312) scale(4.12)"><path d="M0.8,0L0.8,0C2.2,0,6,4.6,6,6l0,0H0V0.8C0,0.4,0.4,0,0.8,0z"/></g>
<g transform="translate(888,312) scale(4.12)"><path d="M6,6H0V2c0-1.1,0.9-2,2-2h4V6z"/></g>
<g transform="translate(912,312) scale(4.12)"><rect width="6" height="6"/></g>
<g transform="translate(96,336) scale(4.12)"><path d="M5.4,2.8C4.5,1.1,2.6-0.1,1.2,0c-1.3,0.1-1.6,1.6-0.7,3.2c1,1.7,2.8,2.9,4.2,2.8C6.1,5.9,6.4,4.4,5.4,2.8z"/></g>
<g transform="translate(144,336) scale(4.12)"><path d="M6,0v6H2C0.9,6,0,5.1,0,4V0H6z"/></g>
<g transform="translate(168,336) scale(4.12)"><rect width="6" height="6"/></g>
<g transform="translate(192,336) scale(4.12)"><rect width="6" height="6"/></g>
<g transform="translate(216,336) scale(4.12)"><path d="M6,0.8L6,0.8C6,2.2,1.4,6,0,6l0,0V0h5.2C5.6,0,6,0.4,6,0.8z"/></g>
<g transform="translate(264,336) scale(4.12)"><rect width="6" height="6"/></g>
<g transform="translate(288,336) scale(4.12)"><rect width="6" height="6"/></g>
<g transform="translate(312,336) scale(4.12)"><rect width="6" height="6"/></g>
<g transform="translate(336,336) scale(4.12)"><path d="M0,0h6v4c0,1.1-0.9,2-2,2H0V0z"/></g>
<g transform="translate(408,336) scale(4.12)"><path d="M6,6H0V2c0-1.1,0.9-2,2-2h4V6z"/></g>
<g transform="translate(432,336) scale(4.12)"><rect width="6" height="6"/></g>
<g transform="translate(528,336) scale(4.12)"><path d="M0,5.2L0,5.2C0,3.8,4.6,0,6,0l0,0v6H0.8C0.4,6,0,5.6,0,5.2z"/></g>
<g transform="translate(552,336) scale(4.12)"><rect width="6" height="6"/></g>
<g transform="translate(576,336) scale(4.12)"><rect width="6" height="6"/></g>
<g transform="translate(600,336) scale(4.12)"><path d="M0,0h6v4c0,1.1-0.9,2-2,2H0V0z"/></g>
<g transform="translate(648,336) scale(4.12)"><path d="M0,5.2L0,5.2C0,3.8,4.6,0,6,0l0,0v6H0.8C0.4,6,0,5.6,0,5.2z"/></g>
<g transform="translate(672,336) scale(4.12)"><rect width="6" height="6"/></g>
<g transform="translate(744,336) scale(4.12)"><path d="M6,6H0V2c0-1.1,0.9-2,2-2h4V6z"/></g>
<g transform="translate(768,336) scale(4.12)"><path d="M0,0h6v4c0,1.1-0.9,2-2,2H0V0z"/></g>
<g transform="translate(816,336) scale(4.12)"><path d="M0,5.2L0,5.2C0,3.8,4.6,0,6,0l0,0v6H0.8C0.4,6,0,5.6,0,5.2z"/></g>
<g transform="translate(840,336) scale(4.12)"><rect width="6" height="6"/></g>
<g transform="translate(888,336) scale(4.12)"><path d="M6,0v6H2C0.9,6,0,5.1,0,4V0H6z"/></g>
<g transform="translate(912,336) scale(4.12)"><path d="M0,0h6v4c0,1.1-0.9,2-2,2H0V0z"/></g>
<g transform="translate(120,360) scale(4.12)"><path d="M5.4,2.8C4.5,1.1,2.6-0.1,1.2,0c-1.3,0.1-1.6,1.6-0.7,3.2c1,1.7,2.8,2.9,4.2,2.8C6.1,5.9,6.4,4.4,5.4,2.8z"/></g>
<g transform="translate(168,360) scale(4.12)"><path d="M5.2,6L5.2,6C3.8,6,0,1.4,0,0l0,0h6v5.2C6,5.6,5.6,6,5.2,6z"/></g>
<g transform="translate(264,360) scale(4.12)"><rect width="6" height="6"/></g>
<g transform="translate(384,360) scale(4.12)"><path d="M6,6H0V2c0-1.1,0.9-2,2-2h4V6z"/></g>
<g transform="translate(408,360) scale(4.12)"><rect width="6" height="6"/></g>
<g transform="translate(432,360) scale(4.12)"><rect width="6" height="6"/></g>
<g transform="translate(456,360) scale(4.12)"><rect width="6" height="6"/></g>
<g transform="translate(480,360) scale(4.12)"><path d="M6,0.8L6,0.8C6,2.2,1.4,6,0,6l0,0V0h5.2C5.6,0,6,0.4,6,0.8z"/></g>
<g transform="translate(552,360) scale(4.12)"><path d="M5.2,6L5.2,6C3.8,6,0,1.4,0,0l0,0h6v5.2C6,5.6,5.6,6,5.2,6z"/></g>
<g transform="translate(672,360) scale(4.12)"><rect width="6" height="6"/></g>
<g transform="translate(696,360) scale(4.12)"><rect width="6" height="6"/></g>
<g transform="translate(720,360) scale(4.12)"><rect width="6" height="6"/></g>
<g transform="translate(744,360) scale(4.12)"><rect width="6" height="6"/></g>
<g transform="translate(840,360) scale(4.12)"><rect width="6" height="6"/></g>
<g transform="translate(864,360) scale(4.12)"><path d="M6,0.8L6,0.8C6,2.2,1.4,6,0,6l0,0V0h5.2C5.6,0,6,0.4,6,0.8z"/></g>
<g transform="translate(48,384) scale(4.12)"><path d="M0,5.2L0,5.2C0,3.8,4.6,0,6,0l0,0v6H0.8C0.4,6,0,5.6,0,5.2z"/></g>
<g transform="translate(72,384) scale(4.12)"><rect width="6" height="6"/></g>
<g transform="translate(96,384) scale(4.12)"><path d="M6,0.8L6,0.8C6,2.2,1.4,6,0,6l0,0V0h5.2C5.6,0,6,0.4,6,0.8z"/></g>
<g transform="translate(192,384) scale(4.12)"><path d="M5.4,2.8C4.5,1.1,2.6-0.1,1.2,0c-1.3,0.1-1.6,1.6-0.7,3.2c1,1.7,2.8,2.9,4.2,2.8C6.1,5.9,6.4,4.4,5.4,2.8z"/></g>
<g transform="translate(264,384) scale(4.12)"><path d="M6,0v6H2C0.9,6,0,5.1,0,4V0H6z"/></g>
<g transform="translate(288,384) scale(4.12)"><rect width="6" height="6"/></g>
<g transform="translate(312,384) scale(4.12)"><rect width="6" height="6"/></g>
<g transform="translate(336,384) scale(4.12)"><path d="M6,0.8L6,0.8C6,2.2,1.4,6,0,6l0,0V0h5.2C5.6,0,6,0.4,6,0.8z"/></g>
<g transform="translate(384,384) scale(4.12)"><rect width="6" height="6"/></g>
<g transform="translate(408,384) scale(4.12)"><rect width="6" height="6"/></g>
<g transform="translate(504,384) scale(4.12)"><path d="M5.4,2.8C4.5,1.1,2.6-0.1,1.2,0c-1.3,0.1-1.6,1.6-0.7,3.2c1,1.7,2.8,2.9,4.2,2.8C6.1,5.9,6.4,4.4,5.4,2.8z"/></g>
<g transform="translate(648,384) scale(4.12)"><path d="M0,5.2L0,5.2C0,3.8,4.6,0,6,0l0,0v6H0.8C0.4,6,0,5.6,0,5.2z"/></g>
<g transform="translate(672,384) scale(4.12)"><rect width="6" height="6"/></g>
<g transform="translate(696,384) scale(4.12)"><path d="M0,0h6v4c0,1.1-0.9,2-2,2H0V0z"/></g>
<g transform="translate(744,384) scale(4.12)"><path d="M5.2,6L5.2,6C3.8,6,0,1.4,0,0l0,0h6v5.2C6,5.6,5.6,6,5.2,6z"/></g>
<g transform="translate(816,384) scale(4.12)"><path d="M0,5.2L0,5.2C0,3.8,4.6,0,6,0l0,0v6H0.8C0.4,6,0,5.6,0,5.2z"/></g>
<g transform="translate(840,384) scale(4.12)"><path d="M0,0h6v4c0,1.1-0.9,2-2,2H0V0z"/></g>
<g transform="translate(912,384) scale(4.12)"><path d="M5.4,2.8C4.5,1.1,2.6-0.1,1.2,0c-1.3,0.1-1.6,1.6-0.7,3.2c1,1.7,2.8,2.9,4.2,2.8C6.1,5.9,6.4,4.4,5.4,2.8z"/></g>
<g transform="translate(120,408) scale(4.12)"><path d="M5.4,2.8C4.5,1.1,2.6-0.1,1.2,0c-1.3,0.1-1.6,1.6-0.7,3.2c1,1.7,2.8,2.9,4.2,2.8C6.1,5.9,6.4,4.4,5.4,2.8z"/></g>
<g transform="translate(168,408) scale(4.12)"><path d="M5.4,2.8C4.5,1.1,2.6-0.1,1.2,0c-1.3,0.1-1.6,1.6-0.7,3.2c1,1.7,2.8,2.9,4.2,2.8C6.1,5.9,6.4,4.4,5.4,2.8z"/></g>
<g transform="translate(312,408) scale(4.12)"><rect width="6" height="6"/></g>
<g transform="translate(360,408) scale(4.12)"><path d="M0,5.2L0,5.2C0,3.8,4.6,0,6,0l0,0v6H0.8C0.4,6,0,5.6,0,5.2z"/></g>
<g transform="translate(384,408) scale(4.12)"><rect width="6" height="6"/></g>
<g transform="translate(408,408) scale(4.12)"><path d="M0,0h6v4c0,1.1-0.9,2-2,2H0V0z"/></g>
<g transform="translate(528,408) scale(4.12)"><path d="M0,5.2L0,5.2C0,3.8,4.6,0,6,0l0,0v6H0.8C0.4,6,0,5.6,0,5.2z"/></g>
<g transform="translate(552,408) scale(4.12)"><rect width="6" height="6"/></g>
<g transform="translate(576,408) scale(4.12)"><path d="M0,6V0h4c1.1,0,2,0.9,2,2v4H0z"/></g>
<g transform="translate(624,408) scale(4.12)"><path d="M5.4,2.8C4.5,1.1,2.6-0.1,1.2,0c-1.3,0.1-1.6,1.6-0.7,3.2c1,1.7,2.8,2.9,4.2,2.8C6.1,5.9,6.4,4.4,5.4,2.8z"/></g>
<g transform="translate(792,408) scale(4.12)"><path d="M5.4,2.8C4.5,1.1,2.6-0.1,1.2,0c-1.3,0.1-1.6,1.6-0.7,3.2c1,1.7,2.8,2.9,4.2,2.8C6.1,5.9,6.4,4.4,5.4,2.8z"/></g>
<g transform="translate(888,408) scale(4.12)"><path d="M0.8,0L0.8,0C2.2,0,6,4.6,6,6l0,0H0V0.8C0,0.4,0.4,0,0.8,0z"/></g>
<g transform="translate(48,432) scale(4.12)"><path d="M0.8,0L0.8,0C2.2,0,6,4.6,6,6l0,0H0V0.8C0,0.4,0.4,0,0.8,0z"/></g>
<g transform="translate(96,432) scale(4.12)"><path d="M5.4,2.8C4.5,1.1,2.6-0.1,1.2,0c-1.3,0.1-1.6,1.6-0.7,3.2c1,1.7,2.8,2.9,4.2,2.8C6.1,5.9,6.4,4.4,5.4,2.8z"/></g>
<g transform="translate(144,432) scale(4.12)"><path d="M5.4,2.8C4.5,1.1,2.6-0.1,1.2,0c-1.3,0.1-1.6,1.6-0.7,3.2c1,1.7,2.8,2.9,4.2,2.8C6.1,5.9,6.4,4.4,5.4,2.8z"/></g>
<g transform="translate(192,432) scale(4.12)"><path d="M5.4,2.8C4.5,1.1,2.6-0.1,1.2,0c-1.3,0.1-1.6,1.6-0.7,3.2c1,1.7,2.8,2.9,4.2,2.8C6.1,5.9,6.4,4.4,5.4,2.8z"/></g>
<g transform="translate(288,432) scale(4.12)"><path d="M6,6H0V2c0-1.1,0.9-2,2-2h4V6z"/></g>
<g transform="translate(312,432) scale(4.12)"><rect width="6" height="6"/></g>
<g transform="translate(480,432) scale(4.12)"><path d="M0.8,0L0.8,0C2.2,0,6,4.6,6,6l0,0H0V0.8C0,0.4,0.4,0,0.8,0z"/></g>
<g transform="translate(552,432) scale(4.12)"><path d="M6,0v6H2C0.9,6,0,5.1,0,4V0H6z"/></g>
<g transform="translate(576,432) scale(4.12)"><rect width="6" height="6"/></g>
<g transform="translate(600,432) scale(4.12)"><path d="M0,6V0h4c1.1,0,2,0.9,2,2v4H0z"/></g>
<g transform="translate(648,432) scale(4.12)"><path d="M0.8,0L0.8,0C2.2,0,6,4.6,6,6l0,0H0V0.8C0,0.4,0.4,0,0.8,0z"/></g>
<g transform="translate(696,432) scale(4.12)"><path d="M5.4,2.8C4.5,1.1,2.6-0.1,1.2,0c-1.3,0.1-1.6,1.6-0.7,3.2c1,1.7,2.8,2.9,4.2,2.8C6.1,5.9,6.4,4.4,5.4,2.8z"/></g>
<g transform="translate(744,432) scale(4.12)"><path d="M0,5.2L0,5.2C0,3.8,4.6,0,6,0l0,0v6H0.8C0.4,6,0,5.6,0,5.2z"/></g>
<g transform="translate(768,432) scale(4.12)"><path d="M6,0.8L6,0.8C6,2.2,1.4,6,0,6l0,0V0h5.2C5.6,0,6,0.4,6,0.8z"/></g>
<g transform="translate(816,432) scale(4.12)"><path d="M5.4,2.8C4.5,1.1,2.6-0.1,1.2,0c-1.3,0.1-1.6,1.6-0.7,3.2c1,1.7,2.8,2.9,4.2,2.8C6.1,5.9,6.4,4.4,5.4,2.8z"/></g>
<g transform="translate(864,432) scale(4.12)"><path d="M6,6H0V2c0-1.1,0.9-2,2-2h4V6z"/></g>
<g transform="translate(888,432) scale(4.12)"><rect width="6" height="6"/></g>
<g transform="translate(912,432) scale(4.12)"><path d="M6,0.8L6,0.8C6,2.2,1.4,6,0,6l0,0V0h5.2C5.6,0,6,0.4,6,0.8z"/></g>
<g transform="translate(48,456) scale(4.12)"><rect width="6" height="6"/></g>
<g transform="translate(288,456) scale(4.12)"><rect width="6" height="6"/></g>
<g transform="translate(312,456) scale(4.12)"><path d="M0,0h6v4c0,1.1-0.9,2-2,2H0V0z"/></g>
<g transform="translate(480,456) scale(4.12)"><path d="M6,0v6H2C0.9,6,0,5.1,0,4V0H6z"/></g>
<g transform="translate(504,456) scale(4.12)"><rect width="6" height="6"/></g>
<g transform="translate(528,456) scale(4.12)"><path d="M6,0.8L6,0.8C6,2.2,1.4,6,0,6l0,0V0h5.2C5.6,0,6,0.4,6,0.8z"/></g>
<g transform="translate(576,456) scale(4.12)"><rect width="6" height="6"/></g>
<g transform="translate(600,456) scale(4.12)"><rect width="6" height="6"/></g>
<g transform="translate(648,456) scale(4.12)"><rect width="6" height="6"/></g>
<g transform="translate(720,456) scale(4.12)"><path d="M0.8,0L0.8,0C2.2,0,6,4.6,6,6l0,0H0V0.8C0,0.4,0.4,0,0.8,0z"/></g>
<g transform="translate(792,456) scale(4.12)"><path d="M0.8,0L0.8,0C2.2,0,6,4.6,6,6l0,0H0V0.8C0,0.4,0.4,0,0.8,0z"/></g>
<g transform="translate(864,456) scale(4.12)"><rect width="6" height="6"/></g>
<g transform="translate(48,480) scale(4.12)"><path d="M6,0v6H2C0.9,6,0,5.1,0,4V0H6z"/></g>
<g transform="translate(72,480) scale(4.12)"><path d="M6,0.8L6,0.8C6,2.2,1.4,6,0,6l0,0V0h5.2C5.6,0,6,0.4,6,0.8z"/></g>
<g transform="translate(120,480) scale(4.12)"><path d="M0,5.2L0,5.2C0,3.8,4.6,0,6,0l0,0v6H0.8C0.4,6,0,5.6,0,5.2z"/></g>
<g transform="translate(144,480) scale(4.12)"><path d="M0,6V0h4c1.1,0,2,0.9,2,2v4H0z"/></g>
<g transform="translate(192,480) scale(4.12)"><path d="M5.4,2.8C4.5,1.1,2.6-0.1,1.2,0c-1.3,0.1-1.6,1.6-0.7,3.2c1,1.7,2.8,2.9,4.2,2.8C6.1,5.9,6.4,4.4,5.4,2.8z"/></g>
<g transform="translate(240,480) scale(4.12)"><path d="M5.4,2.8C4.5,1.1,2.6-0.1,1.2,0c-1.3,0.1-1.6,1.6-0.7,3.2c1,1.7,2.8,2.9,4.2,2.8C6.1,5.9,6.4,4.4,5.4,2.8z"/></g>
<g transform="translate(288,480) scale(4.12)"><rect width="6" height="6"/></g>
<g transform="translate(336,480) scale(4.12)"><path d="M0,5.2L0,5.2C0,3.8,4.6,0,6,0l0,0v6H0.8C0.4,6,0,5.6,0,5.2z"/></g>
<g transform="translate(360,480) scale(4.12)"><rect width="6" height="6"/></g>
<g transform="translate(384,480) scale(4.12)"><path d="M0,6V0h4c1.1,0,2,0.9,2,2v4H0z"/></g>
<g transform="translate(504,480) scale(4.12)"><rect width="6" height="6"/></g>
<g transform="translate(576,480) scale(4.12)"><path d="M6,0v6H2C0.9,6,0,5.1,0,4V0H6z"/></g>
<g transform="translate(600,480) scale(4.12)"><path d="M0,0h6v4c0,1.1-0.9,2-2,2H0V0z"/></g>
<g transform="translate(648,480) scale(4.12)"><rect width="6" height="6"/></g>
<g transform="translate(672,480) scale(4.12)"><rect width="6" height="6"/></g>
<g transform="translate(696,480) scale(4.12)"><rect width="6" height="6"/></g>
<g transform="translate(720,480) scale(4.12)"><rect width="6" height="6"/></g>
<g transform="translate(768,480) scale(4.12)"><path d="M6,6H0V2c0-1.1,0.9-2,2-2h4V6z"/></g>
<g transform="translate(792,480) scale(4.12)"><path d="M0,0h6v4c0,1.1-0.9,2-2,2H0V0z"/></g>
<g transform="translate(840,480) scale(4.12)"><path d="M0,5.2L0,5.2C0,3.8,4.6,0,6,0l0,0v6H0.8C0.4,6,0,5.6,0,5.2z"/></g>
<g transform="translate(864,480) scale(4.12)"><rect width="6" height="6"/></g>
<g transform="translate(888,480) scale(4.12)"><rect width="6" height="6"/></g>
<g transform="translate(912,480) scale(4.12)"><path d="M0,6V0h4c1.1,0,2,0.9,2,2v4H0z"/></g>
<g transform="translate(144,504) scale(4.12)"><path d="M5.2,6L5.2,6C3.8,6,0,1.4,0,0l0,0h6v5.2C6,5.6,5.6,6,5.2,6z"/></g>
<g transform="translate(264,504) scale(4.12)"><path d="M6,6H0V2c0-1.1,0.9-2,2-2h4V6z"/></g>
<g transform="translate(288,504) scale(4.12)"><rect width="6" height="6"/></g>
<g transform="translate(312,504) scale(4.12)"><path d="M6,0.8L6,0.8C6,2.2,1.4,6,0,6l0,0V0h5.2C5.6,0,6,0.4,6,0.8z"/></g>
<g transform="translate(360,504) scale(4.12)"><rect width="6" height="6"/></g>
<g transform="translate(384,504) scale(4.12)"><rect width="6" height="6"/></g>
<g transform="translate(408,504) scale(4.12)"><rect width="6" height="6"/></g>
<g transform="translate(432,504) scale(4.12)"><rect width="6" height="6"/></g>
<g transform="translate(456,504) scale(4.12)"><path d="M0,6V0h4c1.1,0,2,0.9,2,2v4H0z"/></g>
<g transform="translate(504,504) scale(4.12)"><rect width="6" height="6"/></g>
<g transform="translate(528,504) scale(4.12)"><path d="M6,0.8L6,0.8C6,2.2,1.4,6,0,6l0,0V0h5.2C5.6,0,6,0.4,6,0.8z"/></g>
<g transform="translate(624,504) scale(4.12)"><path d="M6,6H0V2c0-1.1,0.9-2,2-2h4V6z"/></g>
<g transform="translate(648,504) scale(4.12)"><rect width="6" height="6"/></g>
<g transform="translate(672,504) scale(4.12)"><rect width="6" height="6"/></g>
<g transform="translate(720,504) scale(4.12)"><path d="M5.2,6L5.2,6C3.8,6,0,1.4,0,0l0,0h6v5.2C6,5.6,5.6,6,5.2,6z"/></g>
<g transform="translate(768,504) scale(4.12)"><rect width="6" height="6"/></g>
<g transform="translate(816,504) scale(4.12)"><path d="M0.8,0L0.8,0C2.2,0,6,4.6,6,6l0,0H0V0.8C0,0.4,0.4,0,0.8,0z"/></g>
<g transform="translate(888,504) scale(4.12)"><path d="M6,0v6H2C0.9,6,0,5.1,0,4V0H6z"/></g>
<g transform="translate(912,504) scale(4.12)"><path d="M0,0h6v4c0,1.1-0.9,2-2,2H0V0z"/></g>
<g transform="translate(48,528) scale(4.12)"><path d="M0.8,0L0.8,0C2.2,0,6,4.6,6,6l0,0H0V0.8C0,0.4,0.4,0,0.8,0z"/></g>
<g transform="translate(120,528) scale(4.12)"><path d="M5.4,2.8C4.5,1.1,2.6-0.1,1.2,0c-1.3,0.1-1.6,1.6-0.7,3.2c1,1.7,2.8,2.9,4.2,2.8C6.1,5.9,6.4,4.4,5.4,2.8z"/></g>
<g transform="translate(192,528) scale(4.12)"><path d="M5.4,2.8C4.5,1.1,2.6-0.1,1.2,0c-1.3,0.1-1.6,1.6-0.7,3.2c1,1.7,2.8,2.9,4.2,2.8C6.1,5.9,6.4,4.4,5.4,2.8z"/></g>
<g transform="translate(240,528) scale(4.12)"><path d="M6,6H0V2c0-1.1,0.9-2,2-2h4V6z"/></g>
<g transform="translate(264,528) scale(4.12)"><rect width="6" height="6"/></g>
<g transform="translate(288,528) scale(4.12)"><path d="M0,0h6v4c0,1.1-0.9,2-2,2H0V0z"/></g>
<g transform="translate(360,528) scale(4.12)"><path d="M5.2,6L5.2,6C3.8,6,0,1.4,0,0l0,0h6v5.2C6,5.6,5.6,6,5.2,6z"/></g>
<g transform="translate(432,528) scale(4.12)"><path d="M6,0v6H2C0.9,6,0,5.1,0,4V0H6z"/></g>
<g transform="translate(456,528) scale(4.12)"><rect width="6" height="6"/></g>
<g transform="translate(504,528) scale(4.12)"><rect width="6" height="6"/></g>
<g transform="translate(600,528) scale(4.12)"><path d="M0,5.2L0,5.2C0,3.8,4.6,0,6,0l0,0v6H0.8C0.4,6,0,5.6,0,5.2z"/></g>
<g transform="translate(624,528) scale(4.12)"><rect width="6" height="6"/></g>
<g transform="translate(648,528) scale(4.12)"><rect width="6" height="6"/></g>
<g transform="translate(672,528) scale(4.12)"><rect width="6" height="6"/></g>
<g transform="translate(768,528) scale(4.12)"><path d="M6,0v6H2C0.9,6,0,5.1,0,4V0H6z"/></g>
<g transform="translate(792,528) scale(4.12)"><rect width="6" height="6"/></g>
<g transform="translate(816,528) scale(4.12)"><path d="M0,0h6v4c0,1.1-0.9,2-2,2H0V0z"/></g>
<g transform="translate(864,528) scale(4.12)"><path d="M0.8,0L0.8,0C2.2,0,6,4.6,6,6l0,0H0V0.8C0,0.4,0.4,0,0.8,0z"/></g>
<g transform="translate(48,552) scale(4.12)"><path d="M6,0v6H2C0.9,6,0,5.1,0,4V0H6z"/></g>
<g transform="translate(72,552) scale(4.12)"><path d="M0,6V0h4c1.1,0,2,0.9,2,2v4H0z"/></g>
<g transform="translate(216,552) scale(4.12)"><path d="M6,6H0V2c0-1.1,0.9-2,2-2h4V6z"/></g>
<g transform="translate(240,552) scale(4.12)"><rect width="6" height="6"/></g>
<g transform="translate(264,552) scale(4.12)"><rect width="6" height="6"/></g>
<g transform="translate(336,552) scale(4.12)"><path d="M5.4,2.8C4.5,1.1,2.6-0.1,1.2,0c-1.3,0.1-1.6,1.6-0.7,3.2c1,1.7,2.8,2.9,4.2,2.8C6.1,5.9,6.4,4.4,5.4,2.8z"/></g>
<g transform="translate(384,552) scale(4.12)"><path d="M5.4,2.8C4.5,1.1,2.6-0.1,1.2,0c-1.3,0.1-1.6,1.6-0.7,3.2c1,1.7,2.8,2.9,4.2,2.8C6.1,5.9,6.4,4.4,5.4,2.8z"/></g>
<g transform="translate(456,552) scale(4.12)"><rect width="6" height="6"/></g>
<g transform="translate(480,552) scale(4.12)"><rect width="6" height="6"/></g>
<g transform="translate(504,552) scale(4.12)"><rect width="6" height="6"/></g>
<g transform="translate(528,552) scale(4.12)"><path d="M0,6V0h4c1.1,0,2,0.9,2,2v4H0z"/></g>
<g transform="translate(576,552) scale(4.12)"><path d="M5.4,2.8C4.5,1.1,2.6-0.1,1.2,0c-1.3,0.1-1.6,1.6-0.7,3.2c1,1.7,2.8,2.9,4.2,2.8C6.1,5.9,6.4,4.4,5.4,2.8z"/></g>
<g transform="translate(648,552) scale(4.12)"><rect width="6" height="6"/></g>
<g transform="translate(672,552) scale(4.12)"><rect width="6" height="6"/></g>
<g transform="translate(744,552) scale(4.12)"><path d="M0.8,0L0.8,0C2.2,0,6,4.6,6,6l0,0H0V0.8C0,0.4,0.4,0,0.8,0z"/></g>
<g transform="translate(792,552) scale(4.12)"><path d="M5.2,6L5.2,6C3.8,6,0,1.4,0,0l0,0h6v5.2C6,5.6,5.6,6,5.2,6z"/></g>
<g transform="translate(864,552) scale(4.12)"><rect width="6" height="6"/></g>
<g transform="translate(888,552) scale(4.12)"><rect width="6" height="6"/></g>
<g transform="translate(912,552) scale(4.12)"><path d="M6,0.8L6,0.8C6,2.2,1.4,6,0,6l0,0V0h5.2C5.6,0,6,0.4,6,0.8z"/></g>
<g transform="translate(72,576) scale(4.12)"><rect width="6" height="6"/></g>
<g transform="translate(120,576) scale(4.12)"><path d="M0,5.2L0,5.2C0,3.8,4.6,0,6,0l0,0v6H0.8C0.4,6,0,5.6,0,5.2z"/></g>
<g transform="translate(144,576) scale(4.12)"><path d="M6,0.8L6,0.8C6,2.2,1.4,6,0,6l0,0V0h5.2C5.6,0,6,0.4,6,0.8z"/></g>
<g transform="translate(192,576) scale(4.12)"><path d="M0,5.2L0,5.2C0,3.8,4.6,0,6,0l0,0v6H0.8C0.4,6,0,5.6,0,5.2z"/></g>
<g transform="translate(216,576) scale(4.12)"><rect width="6" height="6"/></g>
<g transform="translate(264,576) scale(4.12)"><path d="M6,0v6H2C0.9,6,0,5.1,0,4V0H6z"/></g>
<g transform="translate(288,576) scale(4.12)"><path d="M6,0.8L6,0.8C6,2.2,1.4,6,0,6l0,0V0h5.2C5.6,0,6,0.4,6,0.8z"/></g>
<g transform="translate(360,576) scale(4.12)"><path d="M0.8,0L0.8,0C2.2,0,6,4.6,6,6l0,0H0V0.8C0,0.4,0.4,0,0.8,0z"/></g>
<g transform="translate(456,576) scale(4.12)"><rect width="6" height="6"/></g>
<g transform="translate(504,576) scale(4.12)"><rect width="6" height="6"/></g>
<g transform="translate(528,576) scale(4.12)"><rect width="6" height="6"/></g>
<g transform="translate(552,576) scale(4.12)"><path d="M6,0.8L6,0.8C6,2.2,1.4,6,0,6l0,0V0h5.2C5.6,0,6,0.4,6,0.8z"/></g>
<g transform="translate(600,576) scale(4.12)"><path d="M6,6H0V2c0-1.1,0.9-2,2-2h4V6z"/></g>
<g transform="translate(624,576) scale(4.12)"><rect width="6" height="6"/></g>
<g transform="translate(648,576) scale(4.12)"><rect width="6" height="6"/></g>
<g transform="translate(672,576) scale(4.12)"><rect width="6" height="6"/></g>
<g transform="translate(696,576) scale(4.12)"><path d="M6,0.8L6,0.8C6,2.2,1.4,6,0,6l0,0V0h5.2C5.6,0,6,0.4,6,0.8z"/></g>
<g transform="translate(744,576) scale(4.12)"><path d="M6,0v6H2C0.9,6,0,5.1,0,4V0H6z"/></g>
<g transform="translate(768,576) scale(4.12)"><path d="M0,6V0h4c1.1,0,2,0.9,2,2v4H0z"/></g>
<g transform="translate(864,576) scale(4.12)"><path d="M6,0v6H2C0.9,6,0,5.1,0,4V0H6z"/></g>
<g transform="translate(888,576) scale(4.12)"><path d="M0,0h6v4c0,1.1-0.9,2-2,2H0V0z"/></g>
<g transform="translate(72,600) scale(4.12)"><rect width="6" height="6"/></g>
<g transform="translate(96,600) scale(4.12)"><path d="M0,6V0h4c1.1,0,2,0.9,2,2v4H0z"/></g>
<g transform="translate(216,600) scale(4.12)"><rect width="6" height="6"/></g>
<g transform="translate(312,600) scale(4.12)"><path d="M6,6H0V2c0-1.1,0.9-2,2-2h4V6z"/></g>
<g transform="translate(336,600) scale(4.12)"><rect width="6" height="6"/></g>
<g transform="translate(360,600) scale(4.12)"><rect width="6" height="6"/></g>
<g transform="translate(432,600) scale(4.12)"><path d="M0,5.2L0,5.2C0,3.8,4.6,0,6,0l0,0v6H0.8C0.4,6,0,5.6,0,5.2z"/></g>
<g transform="translate(456,600) scale(4.12)"><path d="M0,0h6v4c0,1.1-0.9,2-2,2H0V0z"/></g>
<g transform="translate(504,600) scale(4.12)"><rect width="6" height="6"/></g>
<g transform="translate(528,600) scale(4.12)"><rect width="6" height="6"/></g>
<g transform="translate(576,600) scale(4.12)"><path d="M6,6H0V2c0-1.1,0.9-2,2-2h4V6z"/></g>
<g transform="translate(600,600) scale(4.12)"><path d="M0,0h6v4c0,1.1-0.9,2-2,2H0V0z"/></g>
<g transform="translate(648,600) scale(4.12)"><path d="M5.2,6L5.2,6C3.8,6,0,1.4,0,0l0,0h6v5.2C6,5.6,5.6,6,5.2,6z"/></g>
<g transform="translate(768,600) scale(4.12)"><path d="M6,0v6H2C0.9,6,0,5.1,0,4V0H6z"/></g>
<g transform="translate(792,600) scale(4.12)"><path d="M0,6V0h4c1.1,0,2,0.9,2,2v4H0z"/></g>
<g transform="translate(912,600) scale(4.12)"><path d="M5.4,2.8C4.5,1.1,2.6-0.1,1.2,0c-1.3,0.1-1.6,1.6-0.7,3.2c1,1.7,2.8,2.9,4.2,2.8C6.1,5.9,6.4,4.4,5.4,2.8z"/></g>
<g transform="translate(72,624) scale(4.12)"><path d="M6,0v6H2C0.9,6,0,5.1,0,4V0H6z"/></g>
<g transform="translate(96,624) scale(4.12)"><path d="M0,0h6v4c0,1.1-0.9,2-2,2H0V0z"/></g>
<g transform="translate(168,624) scale(4.12)"><path d="M6,6H0V2c0-1.1,0.9-2,2-2h4V6z"/></g>
<g transform="translate(192,624) scale(4.12)"><rect width="6" height="6"/></g>
<g transform="translate(216,624) scale(4.12)"><rect width="6" height="6"/></g>
<g transform="translate(240,624) scale(4.12)"><rect width="6" height="6"/></g>
<g transform="translate(264,624) scale(4.12)"><path d="M0,6V0h4c1.1,0,2,0.9,2,2v4H0z"/></g>
<g transform="translate(312,624) scale(4.12)"><path d="M5.2,6L5.2,6C3.8,6,0,1.4,0,0l0,0h6v5.2C6,5.6,5.6,6,5.2,6z"/></g>
<g transform="translate(360,624) scale(4.12)"><path d="M6,0v6H2C0.9,6,0,5.1,0,4V0H6z"/></g>
<g transform="translate(384,624) scale(4.12)"><rect width="6" height="6"/></g>
<g transform="translate(408,624) scale(4.12)"><path d="M0,6V0h4c1.1,0,2,0.9,2,2v4H0z"/></g>
<g transform="translate(480,624) scale(4.12)"><path d="M6,6H0V2c0-1.1,0.9-2,2-2h4V6z"/></g>
<g transform="translate(504,624) scale(4.12)"><rect width="6" height="6"/></g>
<g transform="translate(528,624) scale(4.12)"><path d="M0,0h6v4c0,1.1-0.9,2-2,2H0V0z"/></g>
<g transform="translate(576,624) scale(4.12)"><path d="M5.2,6L5.2,6C3.8,6,0,1.4,0,0l0,0h6v5.2C6,5.6,5.6,6,5.2,6z"/></g>
<g transform="translate(624,624) scale(4.12)"><path d="M5.4,2.8C4.5,1.1,2.6-0.1,1.2,0c-1.3,0.1-1.6,1.6-0.7,3.2c1,1.7,2.8,2.9,4.2,2.8C6.1,5.9,6.4,4.4,5.4,2.8z"/></g>
<g transform="translate(672,624) scale(4.12)"><path d="M5.4,2.8C4.5,1.1,2.6-0.1,1.2,0c-1.3,0.1-1.6,1.6-0.7,3.2c1,1.7,2.8,2.9,4.2,2.8C6.1,5.9,6.4,4.4,5.4,2.8z"/></g>
<g transform="translate(744,624) scale(4.12)"><path d="M5.4,2.8C4.5,1.1,2.6-0.1,1.2,0c-1.3,0.1-1.6,1.6-0.7,3.2c1,1.7,2.8,2.9,4.2,2.8C6.1,5.9,6.4,4.4,5.4,2.8z"/></g>
<g transform="translate(792,624) scale(4.12)"><path d="M5.2,6L5.2,6C3.8,6,0,1.4,0,0l0,0h6v5.2C6,5.6,5.6,6,5.2,6z"/></g>
<g transform="translate(840,624) scale(4.12)"><path d="M0,5.2L0,5.2C0,3.8,4.6,0,6,0l0,0v6H0.8C0.4,6,0,5.6,0,5.2z"/></g>
<g transform="translate(864,624) scale(4.12)"><rect width="6" height="6"/></g>
<g transform="translate(888,624) scale(4.12)"><path d="M0,6V0h4c1.1,0,2,0.9,2,2v4H0z"/></g>
<g transform="translate(48,648) scale(4.12)"><path d="M0.8,0L0.8,0C2.2,0,6,4.6,6,6l0,0H0V0.8C0,0.4,0.4,0,0.8,0z"/></g>
<g transform="translate(120,648) scale(4.12)"><path d="M0.8,0L0.8,0C2.2,0,6,4.6,6,6l0,0H0V0.8C0,0.4,0.4,0,0.8,0z"/></g>
<g transform="translate(168,648) scale(4.12)"><rect width="6" height="6"/></g>
<g transform="translate(216,648) scale(4.12)"><path d="M6,0v6H2C0.9,6,0,5.1,0,4V0H6z"/></g>
<g transform="translate(240,648) scale(4.12)"><rect width="6" height="6"/></g>
<g transform="translate(264,648) scale(4.12)"><rect width="6" height="6"/></g>
<g transform="translate(288,648) scale(4.12)"><path d="M0,6V0h4c1.1,0,2,0.9,2,2v4H0z"/></g>
<g transform="translate(384,648) scale(4.12)"><rect width="6" height="6"/></g>
<g transform="translate(408,648) scale(4.12)"><rect width="6" height="6"/></g>
<g transform="translate(432,648) scale(4.12)"><path d="M0,6V0h4c1.1,0,2,0.9,2,2v4H0z"/></g>
<g transform="translate(480,648) scale(4.12)"><path d="M6,0v6H2C0.9,6,0,5.1,0,4V0H6z"/></g>
<g transform="translate(504,648) scale(4.12)"><path d="M0,0h6v4c0,1.1-0.9,2-2,2H0V0z"/></g>
<g transform="translate(552,648) scale(4.12)"><path d="M0.8,0L0.8,0C2.2,0,6,4.6,6,6l0,0H0V0.8C0,0.4,0.4,0,0.8,0z"/></g>
<g transform="translate(696,648) scale(4.12)"><path d="M0.8,0L0.8,0C2.2,0,6,4.6,6,6l0,0H0V0.8C0,0.4,0.4,0,0.8,0z"/></g>
<g transform="translate(768,648) scale(4.12)"><path d="M0.8,0L0.8,0C2.2,0,6,4.6,6,6l0,0H0V0.8C0,0.4,0.4,0,0.8,0z"/></g>
<g transform="translate(864,648) scale(4.12)"><rect width="6" height="6"/></g>
<g transform="translate(888,648) scale(4.12)"><rect width="6" height="6"/></g>
<g transform="translate(48,672) scale(4.12)"><rect width="6" height="6"/></g>
<g transform="translate(96,672) scale(4.12)"><path d="M0,5.2L0,5.2C0,3.8,4.6,0,6,0l0,0v6H0.8C0.4,6,0,5.6,0,5.2z"/></g>
<g transform="translate(120,672) scale(4.12)"><rect width="6" height="6"/></g>
<g transform="translate(144,672) scale(4.12)"><rect width="6" height="6"/></g>
<g transform="translate(168,672) scale(4.12)"><rect width="6" height="6"/></g>
<g transform="translate(192,672) scale(4.12)"><path d="M6,0.8L6,0.8C6,2.2,1.4,6,0,6l0,0V0h5.2C5.6,0,6,0.4,6,0.8z"/></g>
<g transform="translate(240,672) scale(4.12)"><path d="M5.2,6L5.2,6C3.8,6,0,1.4,0,0l0,0h6v5.2C6,5.6,5.6,6,5.2,6z"/></g>
<g transform="translate(288,672) scale(4.12)"><rect width="6" height="6"/></g>
<g transform="translate(336,672) scale(4.12)"><path d="M0,5.2L0,5.2C0,3.8,4.6,0,6,0l0,0v6H0.8C0.4,6,0,5.6,0,5.2z"/></g>
<g transform="translate(360,672) scale(4.12)"><rect width="6" height="6"/></g>
<g transform="translate(384,672) scale(4.12)"><rect width="6" height="6"/></g>
<g transform="translate(408,672) scale(4.12)"><rect width="6" height="6"/></g>
<g transform="translate(432,672) scale(4.12)"><rect width="6" height="6"/></g>
<g transform="translate(552,672) scale(4.12)"><path d="M6,0v6H2C0.9,6,0,5.1,0,4V0H6z"/></g>
<g transform="translate(576,672) scale(4.12)"><rect width="6" height="6"/></g>
<g transform="translate(600,672) scale(4.12)"><rect width="6" height="6"/></g>
<g transform="translate(624,672) scale(4.12)"><rect width="6" height="6"/></g>
<g transform="translate(648,672) scale(4.12)"><rect width="6" height="6"/></g>
<g transform="translate(672,672) scale(4.12)"><rect width="6" height="6"/></g>
<g transform="translate(696,672) scale(4.12)"><rect width="6" height="6"/></g>
<g transform="translate(768,672) scale(4.12)"><path d="M6,0v6H2C0.9,6,0,5.1,0,4V0H6z"/></g>
<g transform="translate(792,672) scale(4.12)"><path d="M0,6V0h4c1.1,0,2,0.9,2,2v4H0z"/></g>
<g transform="translate(840,672) scale(4.12)"><path d="M6,6H0V2c0-1.1,0.9-2,2-2h4V6z"/></g>
<g transform="translate(864,672) scale(4.12)"><rect width="6" height="6"/></g>
<g transform="translate(888,672) scale(4.12)"><rect width="6" height="6"/></g>
<g transform="translate(912,672) scale(4.12)"><path d="M6,0.8L6,0.8C6,2.2,1.4,6,0,6l0,0V0h5.2C5.6,0,6,0.4,6,0.8z"/></g>
<g transform="translate(48,696) scale(4.12)"><rect width="6" height="6"/></g>
<g transform="translate(168,696) scale(4.12)"><path d="M5.2,6L5.2,6C3.8,6,0,1.4,0,0l0,0h6v5.2C6,5.6,5.6,6,5.2,6z"/></g>
<g transform="translate(264,696) scale(4.12)"><path d="M0,5.2L0,5.2C0,3.8,4.6,0,6,0l0,0v6H0.8C0.4,6,0,5.6,0,5.2z"/></g>
<g transform="translate(288,696) scale(4.12)"><rect width="6" height="6"/></g>
<g transform="translate(360,696) scale(4.12)"><rect width="6" height="6"/></g>
<g transform="translate(432,696) scale(4.12)"><path d="M5.2,6L5.2,6C3.8,6,0,1.4,0,0l0,0h6v5.2C6,5.6,5.6,6,5.2,6z"/></g>
<g transform="translate(480,696) scale(4.12)"><path d="M6,6H0V2c0-1.1,0.9-2,2-2h4V6z"/></g>
<g transform="translate(504,696) scale(4.12)"><rect width="6" height="6"/></g>
<g transform="translate(528,696) scale(4.12)"><path d="M6,0.8L6,0.8C6,2.2,1.4,6,0,6l0,0V0h5.2C5.6,0,6,0.4,6,0.8z"/></g>
<g transform="translate(600,696) scale(4.12)"><rect width="6" height="6"/></g>
<g transform="translate(672,696) scale(4.12)"><rect width="6" height="6"/></g>
<g transform="translate(696,696) scale(4.12)"><rect width="6" height="6"/></g>
<g transform="translate(744,696) scale(4.12)"><path d="M0.8,0L0.8,0C2.2,0,6,4.6,6,6l0,0H0V0.8C0,0.4,0.4,0,0.8,0z"/></g>
<g transform="translate(792,696) scale(4.12)"><rect width="6" height="6"/></g>
<g transform="translate(816,696) scale(4.12)"><rect width="6" height="6"/></g>
<g transform="translate(840,696) scale(4.12)"><path d="M0,0h6v4c0,1.1-0.9,2-2,2H0V0z"/></g>
<g transform="translate(48,720) scale(4.12)"><path d="M5.2,6L5.2,6C3.8,6,0,1.4,0,0l0,0h6v5.2C6,5.6,5.6,6,5.2,6z"/></g>
<g transform="translate(96,720) scale(4.12)"><path d="M0,5.2L0,5.2C0,3.8,4.6,0,6,0l0,0v6H0.8C0.4,6,0,5.6,0,5.2z"/></g>
<g transform="translate(120,720) scale(4.12)"><rect width="6" height="6"/></g>
<g transform="translate(144,720) scale(4.12)"><path d="M6,0.8L6,0.8C6,2.2,1.4,6,0,6l0,0V0h5.2C5.6,0,6,0.4,6,0.8z"/></g>
<g transform="translate(192,720) scale(4.12)"><path d="M5.4,2.8C4.5,1.1,2.6-0.1,1.2,0c-1.3,0.1-1.6,1.6-0.7,3.2c1,1.7,2.8,2.9,4.2,2.8C6.1,5.9,6.4,4.4,5.4,2.8z"/></g>
<g transform="translate(288,720) scale(4.12)"><path d="M6,0v6H2C0.9,6,0,5.1,0,4V0H6z"/></g>
<g transform="translate(312,720) scale(4.12)"><rect width="6" height="6"/></g>
<g transform="translate(336,720) scale(4.12)"><rect width="6" height="6"/></g>
<g transform="translate(360,720) scale(4.12)"><path d="M0,0h6v4c0,1.1-0.9,2-2,2H0V0z"/></g>
<g transform="translate(480,720) scale(4.12)"><rect width="6" height="6"/></g>
<g transform="translate(504,720) scale(4.12)"><rect width="6" height="6"/></g>
<g transform="translate(552,720) scale(4.12)"><path d="M0,5.2L0,5.2C0,3.8,4.6,0,6,0l0,0v6H0.8C0.4,6,0,5.6,0,5.2z"/></g>
<g transform="translate(576,720) scale(4.12)"><rect width="6" height="6"/></g>
<g transform="translate(600,720) scale(4.12)"><path d="M0,0h6v4c0,1.1-0.9,2-2,2H0V0z"/></g>
<g transform="translate(648,720) scale(4.12)"><path d="M6,6H0V2c0-1.1,0.9-2,2-2h4V6z"/></g>
<g transform="translate(672,720) scale(4.12)"><rect width="6" height="6"/></g>
<g transform="translate(696,720) scale(4.12)"><rect width="6" height="6"/></g>
<g transform="translate(720,720) scale(4.12)"><rect width="6" height="6"/></g>
<g transform="translate(744,720) scale(4.12)"><rect width="6" height="6"/></g>
<g transform="translate(768,720) scale(4.12)"><rect width="6" height="6"/></g>
<g transform="translate(792,720) scale(4.12)"><rect width="6" height="6"/></g>
<g transform="translate(816,720) scale(4.12)"><rect width="6" height="6"/></g>
<g transform="translate(912,720) scale(4.12)"><path d="M5.4,2.8C4.5,1.1,2.6-0.1,1.2,0c-1.3,0.1-1.6,1.6-0.7,3.2c1,1.7,2.8,2.9,4.2,2.8C6.1,5.9,6.4,4.4,5.4,2.8z"/></g>
<g transform="translate(240,744) scale(4.12)"><path d="M5.4,2.8C4.5,1.1,2.6-0.1,1.2,0c-1.3,0.1-1.6,1.6-0.7,3.2c1,1.7,2.8,2.9,4.2,2.8C6.1,5.9,6.4,4.4,5.4,2.8z"/></g>
<g transform="translate(312,744) scale(4.12)"><rect width="6" height="6"/></g>
<g transform="translate(408,744) scale(4.12)"><path d="M0,5.2L0,5.2C0,3.8,4.6,0,6,0l0,0v6H0.8C0.4,6,0,5.6,0,5.2z"/></g>
<g transform="translate(432,744) scale(4.12)"><path d="M6,0.8L6,0.8C6,2.2,1.4,6,0,6l0,0V0h5.2C5.6,0,6,0.4,6,0.8z"/></g>
<g transform="translate(480,744) scale(4.12)"><path d="M6,0v6H2C0.9,6,0,5.1,0,4V0H6z"/></g>
<g transform="translate(504,744) scale(4.12)"><path d="M0,0h6v4c0,1.1-0.9,2-2,2H0V0z"/></g>
<g transform="translate(624,744) scale(4.12)"><path d="M0,5.2L0,5.2C0,3.8,4.6,0,6,0l0,0v6H0.8C0.4,6,0,5.6,0,5.2z"/></g>
<g transform="translate(648,744) scale(4.12)"><rect width="6" height="6"/></g>
<g transform="translate(672,744) scale(4.12)"><rect width="6" height="6"/></g>
<g transform="translate(720,744) scale(4.12)"><rect width="6" height="6"/></g>
<g transform="translate(816,744) scale(4.12)"><rect width="6" height="6"/></g>
<g transform="translate(888,744) scale(4.12)"><path d="M0.8,0L0.8,0C2.2,0,6,4.6,6,6l0,0H0V0.8C0,0.4,0.4,0,0.8,0z"/></g>
<g transform="translate(312,768) scale(4.12)"><path d="M6,0v6H2C0.9,6,0,5.1,0,4V0H6z"/></g>
<g transform="translate(336,768) scale(4.12)"><path d="M6,0.8L6,0.8C6,2.2,1.4,6,0,6l0,0V0h5.2C5.6,0,6,0.4,6,0.8z"/></g>
<g transform="translate(456,768) scale(4.12)"><path d="M0.8,0L0.8,0C2.2,0,6,4.6,6,6l0,0H0V0.8C0,0.4,0.4,0,0.8,0z"/></g>
<g transform="translate(528,768) scale(4.12)"><path d="M0,5.2L0,5.2C0,3.8,4.6,0,6,0l0,0v6H0.8C0.4,6,0,5.6,0,5.2z"/></g>
<g transform="translate(552,768) scale(4.12)"><path d="M6,0.8L6,0.8C6,2.2,1.4,6,0,6l0,0V0h5.2C5.6,0,6,0.4,6,0.8z"/></g>
<g transform="translate(600,768) scale(4.12)"><path d="M5.4,2.8C4.5,1.1,2.6-0.1,1.2,0c-1.3,0.1-1.6,1.6-0.7,3.2c1,1.7,2.8,2.9,4.2,2.8C6.1,5.9,6.4,4.4,5.4,2.8z"/></g>
<g transform="translate(648,768) scale(4.12)"><path d="M6,0v6H2C0.9,6,0,5.1,0,4V0H6z"/></g>
<g transform="translate(672,768) scale(4.12)"><rect width="6" height="6"/></g>
<g transform="translate(696,768) scale(4.12)"><rect width="6" height="6"/></g>
<g transform="translate(720,768) scale(4.12)"><rect width="6" height="6"/></g>
<g transform="translate(768,768) scale(4.12)"><path d="M5.4,2.8C4.5,1.1,2.6-0.1,1.2,0c-1.3,0.1-1.6,1.6-0.7,3.2c1,1.7,2.8,2.9,4.2,2.8C6.1,5.9,6.4,4.4,5.4,2.8z"/></g>
<g transform="translate(816,768) scale(4.12)"><rect width="6" height="6"/></g>
<g transform="translate(840,768) scale(4.12)"><path d="M6,0.8L6,0.8C6,2.2,1.4,6,0,6l0,0V0h5.2C5.6,0,6,0.4,6,0.8z"/></g>
<g transform="translate(888,768) scale(4.12)"><rect width="6" height="6"/></g>
<g transform="translate(912,768) scale(4.12)"><path d="M6,0.8L6,0.8C6,2.2,1.4,6,0,6l0,0V0h5.2C5.6,0,6,0.4,6,0.8z"/></g>
<g transform="translate(264,792) scale(4.12)"><path d="M0,5.2L0,5.2C0,3.8,4.6,0,6,0l0,0v6H0.8C0.4,6,0,5.6,0,5.2z"/></g>
<g transform="translate(288,792) scale(4.12)"><path d="M6,0.8L6,0.8C6,2.2,1.4,6,0,6l0,0V0h5.2C5.6,0,6,0.4,6,0.8z"/></g>
<g transform="translate(360,792) scale(4.12)"><path d="M0.8,0L0.8,0C2.2,0,6,4.6,6,6l0,0H0V0.8C0,0.4,0.4,0,0.8,0z"/></g>
<g transform="translate(408,792) scale(4.12)"><path d="M5.4,2.8C4.5,1.1,2.6-0.1,1.2,0c-1.3,0.1-1.6,1.6-0.7,3.2c1,1.7,2.8,2.9,4.2,2.8C6.1,5.9,6.4,4.4,5.4,2.8z"/></g>
<g transform="translate(456,792) scale(4.12)"><rect width="6" height="6"/></g>
<g transform="translate(624,792) scale(4.12)"><path d="M5.4,2.8C4.5,1.1,2.6-0.1,1.2,0c-1.3,0.1-1.6,1.6-0.7,3.2c1,1.7,2.8,2.9,4.2,2.8C6.1,5.9,6.4,4.4,5.4,2.8z"/></g>
<g transform="translate(696,792) scale(4.12)"><path d="M6,0v6H2C0.9,6,0,5.1,0,4V0H6z"/></g>
<g transform="translate(720,792) scale(4.12)"><rect width="6" height="6"/></g>
<g transform="translate(816,792) scale(4.12)"><rect width="6" height="6"/></g>
<g transform="translate(888,792) scale(4.12)"><rect width="6" height="6"/></g>
<g transform="translate(240,816) scale(4.12)"><path d="M0.8,0L0.8,0C2.2,0,6,4.6,6,6l0,0H0V0.8C0,0.4,0.4,0,0.8,0z"/></g>
<g transform="translate(312,816) scale(4.12)"><path d="M5.4,2.8C4.5,1.1,2.6-0.1,1.2,0c-1.3,0.1-1.6,1.6-0.7,3.2c1,1.7,2.8,2.9,4.2,2.8C6.1,5.9,6.4,4.4,5.4,2.8z"/></g>
<g transform="translate(360,816) scale(4.12)"><path d="M6,0v6H2C0.9,6,0,5.1,0,4V0H6z"/></g>
<g transform="translate(384,816) scale(4.12)"><path d="M6,0.8L6,0.8C6,2.2,1.4,6,0,6l0,0V0h5.2C5.6,0,6,0.4,6,0.8z"/></g>
<g transform="translate(456,816) scale(4.12)"><path d="M6,0v6H2C0.9,6,0,5.1,0,4V0H6z"/></g>
<g transform="translate(480,816) scale(4.12)"><path d="M0,6V0h4c1.1,0,2,0.9,2,2v4H0z"/></g>
<g transform="translate(528,816) scale(4.12)"><path d="M0,5.2L0,5.2C0,3.8,4.6,0,6,0l0,0v6H0.8C0.4,6,0,5.6,0,5.2z"/></g>
<g transform="translate(552,816) scale(4.12)"><path d="M0,6V0h4c1.1,0,2,0.9,2,2v4H0z"/></g>
<g transform="translate(648,816) scale(4.12)"><path d="M6,6H0V2c0-1.1,0.9-2,2-2h4V6z"/></g>
<g transform="translate(672,816) scale(4.12)"><path d="M0,6V0h4c1.1,0,2,0.9,2,2v4H0z"/></g>
<g transform="translate(720,816) scale(4.12)"><rect width="6" height="6"/></g>
<g transform="translate(744,816) scale(4.12)"><rect width="6" height="6"/></g>
<g transform="translate(768,816) scale(4.12)"><rect width="6" height="6"/></g>
<g transform="translate(792,816) scale(4.12)"><rect width="6" height="6"/></g>
<g transform="translate(816,816) scale(4.12)"><rect width="6" height="6"/></g>
<g transform="translate(864,816) scale(4.12)"><path d="M0,5.2L0,5.2C0,3.8,4.6,0,6,0l0,0v6H0.8C0.4,6,0,5.6,0,5.2z"/></g>
<g transform="translate(888,816) scale(4.12)"><rect width="6" height="6"/></g>
<g transform="translate(912,816) scale(4.12)"><path d="M0,6V0h4c1.1,0,2,0.9,2,2v4H0z"/></g>
<g transform="translate(240,840) scale(4.12)"><rect width="6" height="6"/></g>
<g transform="translate(336,840) scale(4.12)"><path d="M0.8,0L0.8,0C2.2,0,6,4.6,6,6l0,0H0V0.8C0,0.4,0.4,0,0.8,0z"/></g>
<g transform="translate(408,840) scale(4.12)"><path d="M6,6H0V2c0-1.1,0.9-2,2-2h4V6z"/></g>
<g transform="translate(432,840) scale(4.12)"><path d="M6,0.8L6,0.8C6,2.2,1.4,6,0,6l0,0V0h5.2C5.6,0,6,0.4,6,0.8z"/></g>
<g transform="translate(480,840) scale(4.12)"><rect width="6" height="6"/></g>
<g transform="translate(504,840) scale(4.12)"><path d="M6,0.8L6,0.8C6,2.2,1.4,6,0,6l0,0V0h5.2C5.6,0,6,0.4,6,0.8z"/></g>
<g transform="translate(552,840) scale(4.12)"><path d="M6,0v6H2C0.9,6,0,5.1,0,4V0H6z"/></g>
<g transform="translate(576,840) scale(4.12)"><path d="M6,0.8L6,0.8C6,2.2,1.4,6,0,6l0,0V0h5.2C5.6,0,6,0.4,6,0.8z"/></g>
<g transform="translate(624,840) scale(4.12)"><path d="M0,5.2L0,5.2C0,3.8,4.6,0,6,0l0,0v6H0.8C0.4,6,0,5.6,0,5.2z"/></g>
<g transform="translate(648,840) scale(4.12)"><rect width="6" height="6"/></g>
<g transform="translate(672,840) scale(4.12)"><path d="M0,0h6v4c0,1.1-0.9,2-2,2H0V0z"/></g>
<g transform="translate(720,840) scale(4.12)"><path d="M5.2,6L5.2,6C3.8,6,0,1.4,0,0l0,0h6v5.2C6,5.6,5.6,6,5.2,6z"/></g>
<g transform="translate(768,840) scale(4.12)"><path d="M5.2,6L5.2,6C3.8,6,0,1.4,0,0l0,0h6v5.2C6,5.6,5.6,6,5.2,6z"/></g>
<g transform="translate(816,840) scale(4.12)"><path d="M5.2,6L5.2,6C3.8,6,0,1.4,0,0l0,0h6v5.2C6,5.6,5.6,6,5.2,6z"/></g>
<g transform="translate(888,840) scale(4.12)"><path d="M6,0v6H2C0.9,6,0,5.1,0,4V0H6z"/></g>
<g transform="translate(912,840) scale(4.12)"><rect width="6" height="6"/></g>
<g transform="translate(240,864) scale(4.12)"><path d="M6,0v6H2C0.9,6,0,5.1,0,4V0H6z"/></g>
<g transform="translate(264,864) scale(4.12)"><path d="M0,6V0h4c1.1,0,2,0.9,2,2v4H0z"/></g>
<g transform="translate(336,864) scale(4.12)"><rect width="6" height="6"/></g>
<g transform="translate(360,864) scale(4.12)"><rect width="6" height="6"/></g>
<g transform="translate(384,864) scale(4.12)"><rect width="6" height="6"/></g>
<g transform="translate(408,864) scale(4.12)"><path d="M0,0h6v4c0,1.1-0.9,2-2,2H0V0z"/></g>
<g transform="translate(456,864) scale(4.12)"><path d="M0,5.2L0,5.2C0,3.8,4.6,0,6,0l0,0v6H0.8C0.4,6,0,5.6,0,5.2z"/></g>
<g transform="translate(480,864) scale(4.12)"><path d="M0,0h6v4c0,1.1-0.9,2-2,2H0V0z"/></g>
<g transform="translate(528,864) scale(4.12)"><path d="M0.8,0L0.8,0C2.2,0,6,4.6,6,6l0,0H0V0.8C0,0.4,0.4,0,0.8,0z"/></g>
<g transform="translate(744,864) scale(4.12)"><path d="M5.4,2.8C4.5,1.1,2.6-0.1,1.2,0c-1.3,0.1-1.6,1.6-0.7,3.2c1,1.7,2.8,2.9,4.2,2.8C6.1,5.9,6.4,4.4,5.4,2.8z"/></g>
<g transform="translate(792,864) scale(4.12)"><path d="M0.8,0L0.8,0C2.2,0,6,4.6,6,6l0,0H0V0.8C0,0.4,0.4,0,0.8,0z"/></g>
<g transform="translate(840,864) scale(4.12)"><path d="M5.4,2.8C4.5,1.1,2.6-0.1,1.2,0c-1.3,0.1-1.6,1.6-0.7,3.2c1,1.7,2.8,2.9,4.2,2.8C6.1,5.9,6.4,4.4,5.4,2.8z"/></g>
<g transform="translate(912,864) scale(4.12)"><rect width="6" height="6"/></g>
<g transform="translate(264,888) scale(4.12)"><rect width="6" height="6"/></g>
<g transform="translate(336,888) scale(4.12)"><path d="M5.2,6L5.2,6C3.8,6,0,1.4,0,0l0,0h6v5.2C6,5.6,5.6,6,5.2,6z"/></g>
<g transform="translate(528,888) scale(4.12)"><rect width="6" height="6"/></g>
<g transform="translate(576,888) scale(4.12)"><path d="M0.8,0L0.8,0C2.2,0,6,4.6,6,6l0,0H0V0.8C0,0.4,0.4,0,0.8,0z"/></g>
<g transform="translate(624,888) scale(4.12)"><path d="M0.8,0L0.8,0C2.2,0,6,4.6,6,6l0,0H0V0.8C0,0.4,0.4,0,0.8,0z"/></g>
<g transform="translate(672,888) scale(4.12)"><path d="M0,5.2L0,5.2C0,3.8,4.6,0,6,0l0,0v6H0.8C0.4,6,0,5.6,0,5.2z"/></g>
<g transform="translate(696,888) scale(4.12)"><rect width="6" height="6"/></g>
<g transform="translate(720,888) scale(4.12)"><path d="M6,0.8L6,0.8C6,2.2,1.4,6,0,6l0,0V0h5.2C5.6,0,6,0.4,6,0.8z"/></g>
<g transform="translate(792,888) scale(4.12)"><path d="M6,0v6H2C0.9,6,0,5.1,0,4V0H6z"/></g>
<g transform="translate(816,888) scale(4.12)"><path d="M6,0.8L6,0.8C6,2.2,1.4,6,0,6l0,0V0h5.2C5.6,0,6,0.4,6,0.8z"/></g>
<g transform="translate(912,888) scale(4.12)"><rect width="6" height="6"/></g>
<g transform="translate(264,912) scale(4.12)"><path d="M6,0v6H2C0.9,6,0,5.1,0,4V0H6z"/></g>
<g transform="translate(288,912) scale(4.12)"><path d="M6,0.8L6,0.8C6,2.2,1.4,6,0,6l0,0V0h5.2C5.6,0,6,0.4,6,0.8z"/></g>
<g transform="translate(384,912) scale(4.12)"><path d="M5.4,2.8C4.5,1.1,2.6-0.1,1.2,0c-1.3,0.1-1.6,1.6-0.7,3.2c1,1.7,2.8,2.9,4.2,2.8C6.1,5.9,6.4,4.4,5.4,2.8z"/></g>
<g transform="translate(480,912) scale(4.12)"><path d="M0,5.2L0,5.2C0,3.8,4.6,0,6,0l0,0v6H0.8C0.4,6,0,5.6,0,5.2z"/></g>
<g transform="translate(504,912) scale(4.12)"><rect width="6" height="6"/></g>
<g transform="translate(528,912) scale(4.12)"><rect width="6" height="6"/></g>
<g transform="translate(552,912) scale(4.12)"><rect width="6" height="6"/></g>
<g transform="translate(576,912) scale(4.12)"><path d="M0,0h6v4c0,1.1-0.9,2-2,2H0V0z"/></g>
<g transform="translate(624,912) scale(4.12)"><path d="M5.2,6L5.2,6C3.8,6,0,1.4,0,0l0,0h6v5.2C6,5.6,5.6,6,5.2,6z"/></g>
<g transform="translate(744,912) scale(4.12)"><path d="M5.4,2.8C4.5,1.1,2.6-0.1,1.2,0c-1.3,0.1-1.6,1.6-0.7,3.2c1,1.7,2.8,2.9,4.2,2.8C6.1,5.9,6.4,4.4,5.4,2.8z"/></g>
<g transform="translate(840,912) scale(4.12)"><path d="M0,5.2L0,5.2C0,3.8,4.6,0,6,0l0,0v6H0.8C0.4,6,0,5.6,0,5.2z"/></g>
<g transform="translate(864,912) scale(4.12)"><rect width="6" height="6"/></g>
<g transform="translate(888,912) scale(4.12)"><rect width="6" height="6"/></g>
<g transform="translate(912,912) scale(4.12)"><path d="M0,0h6v4c0,1.1-0.9,2-2,2H0V0z"/></g>
<g transform="translate(48,48)"><g transform="scale(12)"><path d="M14,0H4.4C2,0,0,2,0,4.4V14h14V0z M2,12V4.8C2,3.3,3.3,2,4.8,2H12v10H2z"/></g></g>
<g transform="translate(768,48)"><g transform="scale(12) rotate(90 7 7)"><path d="M14,0H4.4C2,0,0,2,0,4.4V14h14V0z M2,12V4.8C2,3.3,3.3,2,4.8,2H12v10H2z"/></g></g>
<g transform="translate(48,768)"><g transform="scale(12) rotate(-90 7 7)"><path d="M14,0H4.4C2,0,0,2,0,4.4V14h14V0z M2,12V4.8C2,3.3,3.3,2,4.8,2H12v10H2z"/></g></g>
<g transform="translate(96,96)"><g transform="scale(12)"><path d="M1.5,6C1.2,5.3,0.7,4.8,0,4.5v-3C0,0.7,0.7,0,1.5,0h3C4.8,0.7,5.3,1.2,6,1.5v3C6,5.3,5.3,6,4.5,6H1.5z"/></g></g>
<g transform="translate(816,96)"><g transform="scale(12) rotate(90 3 3)"><path d="M1.5,6C1.2,5.3,0.7,4.8,0,4.5v-3C0,0.7,0.7,0,1.5,0h3C4.8,0.7,5.3,1.2,6,1.5v3C6,5.3,5.3,6,4.5,6H1.5z"/></g></g>
<g transform="translate(96,816)"><g transform="scale(12) rotate(-90 3 3)"><path d="M1.5,6C1.2,5.3,0.7,4.8,0,4.5v-3C0,0.7,0.7,0,1.5,0h3C4.8,0.7,5.3,1.2,6,1.5v3C6,5.3,5.3,6,4.5,6H1.5z"/></g></g>
</g></svg>
